<svg width="15.000000" height="20.000000" viewBox="0 0 15 20" fill="none" xmlns="http://www.w3.org/2000/svg" xmlns:xlink="http://www.w3.org/1999/xlink">
	<defs/>
	<path id="Vector" d="M7 0C2.93 0 -0.37 3.3 -0.37 7.36C-0.37 8.42 -0.15 9.43 0.28 10.36C2.12 14.39 5.65 18.65 6.68 19.85C6.76 19.94 6.88 19.99 7 19.99C7.11 19.99 7.23 19.94 7.31 19.85C8.34 18.65 11.87 14.39 13.71 10.36C14.14 9.43 14.36 8.42 14.36 7.36C14.36 3.3 11.05 0 7 0ZM7 11.18C4.89 11.18 3.17 9.47 3.17 7.36C3.17 5.25 4.89 3.53 7 3.53C9.1 3.53 10.82 5.25 10.82 7.36C10.82 9.47 9.1 11.18 7 11.18Z" fill="#8C3213" fill-opacity="1.000000" fill-rule="nonzero"/>
</svg>
