<svg width="20.000000" height="20.000000" viewBox="0 0 20 20" fill="none" xmlns="http://www.w3.org/2000/svg" xmlns:xlink="http://www.w3.org/1999/xlink">
	<defs>
		<clipPath id="clip114_6281">
			<rect id="back-in-time (2) 1" width="20.000000" height="20.000000" fill="white" fill-opacity="0"/>
		</clipPath>
	</defs>
	<rect id="back-in-time (2) 1" width="20.000000" height="20.000000" fill="#FFFFFF" fill-opacity="0"/>
	<g clip-path="url(#clip114_6281)">
		<path id="XMLID_1030_" d="M17.86 3.82L18.48 3.82C18.69 3.82 18.87 3.65 18.87 3.43C18.87 3.21 18.69 3.04 18.48 3.04L17 3.04C16.78 3.04 16.6 3.21 16.6 3.43L16.6 4.91C16.6 5.13 16.78 5.3 17 5.3C17.21 5.3 17.39 5.13 17.39 4.91L17.39 4.48C18.57 6.07 19.21 7.99 19.21 10C19.21 15.08 15.08 19.21 10 19.21C4.91 19.21 0.78 15.08 0.78 10C0.78 4.91 4.91 0.78 10 0.78C10.37 0.78 10.75 0.8 11.12 0.84C11.33 0.87 11.53 0.72 11.55 0.5C11.58 0.29 11.43 0.09 11.21 0.07C10.81 0.02 10.4 0 10 0C7.32 0 4.81 1.04 2.92 2.92C1.03 4.81 0 7.32 0 10C0 12.67 1.03 15.18 2.92 17.07C4.81 18.95 7.32 20 10 20C12.67 20 15.18 18.95 17.07 17.07C18.96 15.18 20 12.67 20 10C20 7.74 19.24 5.58 17.86 3.82Z" fill="#8C3213" fill-opacity="1.000000" fill-rule="nonzero"/>
		<path id="XMLID_1029_" d="M4.23 5.89C4.05 5.77 3.8 5.83 3.69 6.01C2.8 7.42 2.41 9.11 2.58 10.78C2.76 12.47 3.52 14.06 4.72 15.27C6.17 16.72 8.08 17.45 10 17.45C11.9 17.45 13.81 16.72 15.26 15.27C18.17 12.36 18.17 7.63 15.26 4.72C14.06 3.52 12.47 2.76 10.78 2.58C9.12 2.4 7.43 2.8 6.02 3.68C5.84 3.8 5.78 4.04 5.9 4.22C6.01 4.4 6.26 4.46 6.44 4.34C9.09 2.67 12.5 3.05 14.71 5.27C17.32 7.88 17.32 12.11 14.71 14.72C12.11 17.32 7.88 17.32 5.27 14.72C3.08 12.53 2.69 9.04 4.35 6.43C4.46 6.25 4.41 6.01 4.23 5.89Z" fill="#8C3213" fill-opacity="1.000000" fill-rule="nonzero"/>
		<path id="XMLID_1028_" d="M15.07 10.39L15.55 10.39C15.76 10.39 15.94 10.22 15.94 10C15.94 9.79 15.76 9.61 15.55 9.61L15.07 9.61C14.85 9.61 14.68 9.79 14.68 10C14.68 10.22 14.85 10.39 15.07 10.39Z" fill="#8C3213" fill-opacity="1.000000" fill-rule="nonzero"/>
		<path id="XMLID_1004_" d="M4.05 9.99C4.05 10.2 4.23 10.38 4.44 10.38L4.92 10.38C5.14 10.38 5.31 10.2 5.31 9.99C5.31 9.77 5.14 9.6 4.92 9.6L4.44 9.6C4.23 9.6 4.05 9.77 4.05 9.99Z" fill="#8C3213" fill-opacity="1.000000" fill-rule="nonzero"/>
		<path id="XMLID_1001_" d="M10.39 4.92L10.39 4.44C10.39 4.22 10.22 4.05 10 4.05C9.79 4.05 9.61 4.22 9.61 4.44L9.61 4.92C9.61 5.14 9.79 5.31 10 5.31C10.22 5.31 10.39 5.14 10.39 4.92Z" fill="#8C3213" fill-opacity="1.000000" fill-rule="nonzero"/>
		<path id="XMLID_1415_" d="M9.6 15.07L9.6 15.55C9.6 15.77 9.77 15.94 9.99 15.94C10.2 15.94 10.38 15.77 10.38 15.55L10.38 15.07C10.38 14.85 10.2 14.68 9.99 14.68C9.77 14.68 9.6 14.85 9.6 15.07Z" fill="#8C3213" fill-opacity="1.000000" fill-rule="nonzero"/>
		<path id="XMLID_996_" d="M8.04 7.49C7.89 7.33 7.64 7.33 7.48 7.49C7.33 7.64 7.33 7.89 7.48 8.04L8.81 9.36C8.71 9.55 8.65 9.77 8.65 10C8.65 10.74 9.25 11.34 10 11.34C10.73 11.34 11.34 10.74 11.34 10C11.34 9.77 11.28 9.55 11.18 9.36L13.85 6.69C14 6.54 14 6.29 13.85 6.14C13.69 5.99 13.45 5.99 13.3 6.14L10.63 8.81C10.44 8.71 10.22 8.65 10 8.65C9.76 8.65 9.55 8.71 9.36 8.81L8.04 7.49ZM10.56 10C10.56 10.31 10.3 10.56 10 10.56C9.68 10.56 9.43 10.31 9.43 10C9.43 9.68 9.68 9.43 10 9.43C10.3 9.43 10.56 9.68 10.56 10Z" fill="#8C3213" fill-opacity="1.000000" fill-rule="nonzero"/>
		<path id="XMLID_980_" d="M5.28 5.27C5.35 5.2 5.39 5.1 5.39 5C5.39 4.9 5.35 4.8 5.28 4.72C5.2 4.65 5.1 4.61 5 4.61C4.9 4.61 4.8 4.65 4.72 4.72C4.65 4.8 4.61 4.9 4.61 5C4.61 5.1 4.65 5.2 4.72 5.27C4.8 5.35 4.9 5.39 5 5.39C5.1 5.39 5.2 5.35 5.28 5.27Z" fill="#8C3213" fill-opacity="1.000000" fill-rule="nonzero"/>
		<path id="XMLID_979_" d="M12.7 1.16C12.8 1.16 12.9 1.12 12.98 1.05C13.05 0.97 13.09 0.87 13.09 0.77C13.09 0.67 13.05 0.57 12.98 0.5C12.9 0.42 12.8 0.38 12.7 0.38C12.6 0.38 12.5 0.42 12.42 0.5C12.35 0.57 12.31 0.67 12.31 0.77C12.31 0.87 12.35 0.97 12.42 1.05C12.5 1.12 12.6 1.16 12.7 1.16Z" fill="#8C3213" fill-opacity="1.000000" fill-rule="nonzero"/>
	</g>
</svg>
