<svg width="30.000000" height="30.000000" viewBox="0 0 30 30" fill="none" xmlns="http://www.w3.org/2000/svg" xmlns:xlink="http://www.w3.org/1999/xlink">
	<defs>
		<clipPath id="clip84_2909">
			<rect id="cancel (23) 2" width="30.000000" height="30.000000" fill="white" fill-opacity="0"/>
		</clipPath>
	</defs>
	<rect id="cancel (23) 2" width="30.000000" height="30.000000" fill="#FFFFFF" fill-opacity="0"/>
	<g clip-path="url(#clip84_2909)">
		<path id="Vector" d="M18.3 15L29.52 3.78C29.83 3.47 30 3.06 30 2.62C30 2.18 29.83 1.77 29.52 1.46L28.53 0.47C28.22 0.17 27.81 0 27.37 0C26.93 0 26.52 0.17 26.21 0.47L15 11.69L3.78 0.47C3.47 0.17 3.06 0 2.62 0C2.18 0 1.77 0.17 1.46 0.47L0.48 1.46C-0.17 2.1 -0.17 3.14 0.48 3.78L11.69 15L0.48 26.21C0.17 26.52 0 26.93 0 27.37C0 27.81 0.17 28.22 0.48 28.53L1.46 29.52C1.77 29.82 2.18 29.99 2.62 29.99C3.06 29.99 3.47 29.82 3.78 29.52L15 18.3L26.21 29.52C26.52 29.82 26.93 29.99 27.37 29.99L27.37 29.99C27.81 29.99 28.22 29.82 28.53 29.52L29.51 28.53C29.82 28.22 30 27.81 30 27.37C30 26.93 29.82 26.52 29.51 26.21L18.3 15Z" fill="#FFFFFF" fill-opacity="0.600000" fill-rule="nonzero"/>
	</g>
</svg>
