<svg width="20.000000" height="20.000000" viewBox="0 0 20 20" fill="none" xmlns="http://www.w3.org/2000/svg" xmlns:xlink="http://www.w3.org/1999/xlink">
	<desc>
			Created with Pixso.
	</desc>
	<defs>
		<clipPath id="clip63_3016">
			<rect id="arrow 1" width="20.000000" height="20.000000" fill="white" fill-opacity="0"/>
		</clipPath>
	</defs>
	<rect id="arrow 1" width="20.000000" height="20.000000" fill="#FFFFFF" fill-opacity="0"/>
	<g clip-path="url(#clip63_3016)">
		<path id="Vector" d="M18.79 8.59C18.71 8.58 18.63 8.57 18.55 8.57L4.44 8.57L4.74 8.43C5.04 8.29 5.32 8.09 5.55 7.86L9.51 3.9C10.03 3.4 10.12 2.6 9.72 2C9.25 1.37 8.35 1.23 7.72 1.7C7.66 1.73 7.62 1.77 7.57 1.82L0.41 8.97C-0.14 9.53 -0.15 10.44 0.41 11C0.41 11 0.41 11 0.41 11L7.57 18.15C8.13 18.71 9.04 18.71 9.59 18.15C9.64 18.11 9.68 18.06 9.72 18.01C10.12 17.41 10.03 16.61 9.51 16.11L5.56 12.15C5.35 11.94 5.11 11.76 4.84 11.63L4.41 11.43L18.47 11.43C19.2 11.46 19.84 10.95 19.98 10.23C20.1 9.45 19.57 8.72 18.79 8.59Z" fill="#FFFFFF" fill-opacity="1.000000" fill-rule="nonzero"/>
	</g>
</svg>
