<?xml version="1.0" encoding="utf-8"?><svg xmlns="http://www.w3.org/2000/svg" xmlns:xlink="http://www.w3.org/1999/xlink"><symbol viewBox="0 0 24 24" id="agronomist-icon" xmlns="http://www.w3.org/2000/svg">
    <g clip-path="url(#aaclip0_25_1137)">
        <path d="M11.3998 6C11.0684 6 10.7998 6.26856 10.7998 6.6C10.7998 6.93145 11.0684 7.20001 11.3998 7.20001C11.7313 7.20001 11.9998 6.93145 11.9998 6.6C11.9998 6.26856 11.7313 6 11.3998 6Z"/>
        <path d="M14.9999 6C14.6685 6 14.3999 6.26856 14.3999 6.6C14.3999 6.93145 14.6685 7.20001 14.9999 7.20001C15.3313 7.20001 15.5999 6.93145 15.5999 6.6C15.5999 6.26856 15.3313 6 14.9999 6Z"/>
        <path d="M9.6001 17.6H10.4001V18.4H9.6001V17.6Z"/>
        <path d="M16 17.6H16.8V18.4H16V17.6Z"/>
        <path d="M9.6001 22.8C9.6001 22.9061 9.64229 23.0078 9.71729 23.0828L10.5173 23.8828C10.5923 23.9578 10.694 24 10.8001 24H15.6001C15.7062 24 15.8079 23.9578 15.8829 23.8828L16.6829 23.0828C16.7579 23.0078 16.8001 22.9061 16.8001 22.8V19.6C16.8001 19.3791 16.621 19.2 16.4001 19.2H10.0001C9.7792 19.2 9.6001 19.3791 9.6001 19.6V22.8ZM10.4001 20H16.0001V22.6344L15.4345 23.2H10.9657L10.4001 22.6344V20Z"/>
        <path d="M3.60001 18H3.20001C2.97911 18 2.80001 18.1791 2.80001 18.4V22.4C2.80001 22.6209 2.97911 22.8 3.20001 22.8H3.60001V24H4.40001V22.8H5.20001V24H6.00001V23.9725C6.77404 23.8742 7.48537 23.4961 8.00001 22.9096V24H8.80001V16.8H17.6V24H18.4V21.2H20.4V24H21.2V21.2H21.6C21.8209 21.2 22 21.0209 22 20.8V19.2C22 18.9791 21.8209 18.8 21.6 18.8H21.2V15.2C21.1981 13.4336 19.7664 12.002 18 12H16V11.6488C16.6664 10.9949 17.0834 10.1287 17.1789 9.2H17.2C17.9072 9.19746 18.5287 8.73008 18.7272 8.05117C19.4512 7.55645 19.7684 6.64785 19.5098 5.80996C19.251 4.97227 18.4768 4.40059 17.6 4.4H17.2V2.5916C17.2 1.51152 16.8721 0.767189 16.1965 0.316798C15.8865 0.109767 15.5223 -0.00038959 15.1496 1.0353e-06H14.8504C14.4778 -0.00038959 14.1135 0.109767 13.8035 0.316798C13.4383 0.561134 12.9617 0.561134 12.5965 0.316798C12.2865 0.109767 11.9223 -0.00038959 11.5496 1.0353e-06H11.2504C10.8777 -0.00038959 10.5135 0.109767 10.2035 0.316798C9.52794 0.767189 9.20001 1.51113 9.20001 2.5916V4.4H8.80001C8.36583 4.40156 7.94415 4.54571 7.60001 4.81035V2.33047C7.59826 1.71172 7.84415 1.11797 8.28283 0.681642L7.7172 0.117189C7.12794 0.703126 6.79767 1.50059 6.80001 2.33164V5.6C6.79787 6.10664 6.47775 6.55742 6.00001 6.72637V2.33164C5.99826 1.71289 6.24415 1.11914 6.68283 0.682814L6.1172 0.117189C5.52794 0.703126 5.19767 1.50059 5.20001 2.33164V6.8H4.40001V2.33164C4.39826 1.71289 4.64415 1.11914 5.08283 0.682814L4.5172 0.117189C3.92794 0.703126 3.59767 1.50059 3.60001 2.33164V6.72637C3.12228 6.55742 2.80216 6.10664 2.80001 5.6V2.33164C2.79825 1.71289 3.04415 1.11914 3.48283 0.682814L2.9172 0.117189C2.32794 0.703126 1.99767 1.50059 2.00001 2.33164V5.6C2.00118 6.55 2.66954 7.36856 3.60001 7.55996V18ZM4.40001 9.2H5.20001V18H4.40001V9.2ZM6.80001 19.6H8.00001V20.4H6.80001V19.6ZM8.00001 16.4V18.8H6.72638C6.60548 18.4611 6.33888 18.1945 6.00001 18.0736V15.2C6.00216 14.0301 6.84669 13.032 8.00001 12.8359V16.4ZM4.00001 22H3.60001V18.8H5.60001C5.82091 18.8 6.00001 18.9791 6.00001 19.2V21.6C6.00001 21.8209 5.82091 22 5.60001 22H4.00001ZM6.00001 23.1637V22.7264C6.47775 22.5574 6.79787 22.1066 6.80001 21.6V21.2H7.96681C7.79435 22.2057 7.00587 22.9928 6.00001 23.1637ZM8.80001 16V12.8H9.60001V16H8.80001ZM10.5199 12.8C10.6717 13.3051 10.9629 13.757 11.36 14.1039L12.4944 16H10.4V12.8H10.5199ZM13.2 14C12.0959 13.9986 11.2014 13.1041 11.2 12V10.4C11.2 9.29551 12.0955 8.4 13.2 8.4C14.3045 8.4 15.2 9.29551 15.2 10.4V12C15.1986 13.1041 14.3041 13.9986 13.2 14ZM13.7129 14.7508L13.2 15.6188L12.6801 14.7492C12.8514 14.7824 13.0254 14.7994 13.2 14.8C13.3721 14.7992 13.5438 14.7828 13.7129 14.7508ZM21.2 20.4H18.4V19.6H21.2V20.4ZM20.4 15.2V18.8H18.4V12.8359C19.5533 13.032 20.3979 14.0301 20.4 15.2ZM17.6 12.8V16H16.8V12.8H17.6ZM16 12.8V16H13.9024L15.0092 14.1332C15.4229 13.7826 15.7262 13.3195 15.882 12.8H16ZM15.9973 10.3477C15.9715 8.8211 14.7266 7.59727 13.2 7.59727C11.6735 7.59727 10.4287 8.8211 10.4027 10.3477C10.1397 9.87422 10.0012 9.3416 10 8.8V5.2H16.4V8.8C16.3988 9.3416 16.2604 9.87422 15.9973 10.3477ZM17.2 8.4V6.8C17.6418 6.8 18 7.15821 18 7.6C18 8.0418 17.6418 8.4 17.2 8.4ZM17.6 5.2C18.0197 5.2002 18.4088 5.41973 18.626 5.77891C18.8432 6.13809 18.857 6.58457 18.6625 6.95645C18.4074 6.37598 17.834 6.00098 17.2 6V5.2H17.6ZM10.6473 0.982814C10.8258 0.863478 11.0358 0.799806 11.2504 0.800001H11.5496C11.7645 0.799806 11.9744 0.863478 12.1528 0.982814C12.7867 1.40664 13.6135 1.40664 14.2473 0.982814C14.4258 0.863478 14.6358 0.799806 14.8504 0.800001H15.1496C15.3645 0.799806 15.5744 0.863478 15.7528 0.982814C16.0305 1.16758 16.4 1.53594 16.4 2.5916V2.8H10V2.5916C10 1.53594 10.3695 1.16758 10.6473 0.982814ZM10 3.6H16.4V4.4H10V3.6ZM8.80001 5.2H9.20001V6C8.56857 6.00117 7.99708 6.37364 7.74083 6.95078C7.54259 6.58047 7.55451 6.13321 7.77189 5.77383C7.98927 5.41446 8.38009 5.19629 8.80001 5.2ZM8.40001 7.6C8.40001 7.15821 8.75822 6.8 9.20001 6.8V8.4C8.75822 8.4 8.40001 8.0418 8.40001 7.6ZM6.92599 7.08555C7.06915 7.475 7.32951 7.81035 7.6713 8.04551C7.86759 8.72735 8.49044 9.19766 9.20001 9.2H9.2213C9.31662 10.1287 9.73361 10.9949 10.4 11.6488V12H8.40001C7.48029 12.0006 6.60548 12.3981 6.00001 13.0904V7.55996C6.34533 7.48692 6.66505 7.32324 6.92599 7.08555ZM5.20001 8.4H4.40001V7.6H5.20001V8.4Z"/>
        <path d="M12.6845 9.31995L12.1157 9.8801C12.3802 10.208 12.7788 10.3989 13.2001 10.3989C13.6214 10.3989 14.02 10.208 14.2845 9.8801L13.7157 9.31995C13.6022 9.49456 13.4083 9.60002 13.2001 9.60002C12.9919 9.60002 12.7979 9.49456 12.6845 9.31995Z"/>
    </g>
    <defs>
        <clipPath id="aaclip0_25_1137">
            <rect width="24" height="24"/>
        </clipPath>
    </defs>
</symbol><symbol viewBox="0 0 12 12" id="arrow-down" xmlns="http://www.w3.org/2000/svg">
    <g id="abarrow-down-sign-to-navigate (10) 8" clip-path="url(#abclip0_219_9716)">
        <g id="abGroup">
            <path id="abVector" d="M5.96404 2.57982C5.75026 2.57982 5.53651 2.66194 5.37353 2.82583L0.244696 7.98561C-0.0815652 8.31384 -0.0815652 8.846 0.244696 9.1741C0.570824 9.50219 1.09969 9.50219 1.42598 9.1741L5.96404 4.60843L10.5021 9.17394C10.8284 9.50203 11.3572 9.50203 11.6833 9.17394C12.0097 8.84584 12.0097 8.31368 11.6833 7.98545L6.55455 2.82567C6.39149 2.66176 6.17774 2.57982 5.96404 2.57982Z"/>
        </g>
    </g>
    <defs>
        <clipPath id="abclip0_219_9716">
            <rect width="11.9281" height="12" transform="matrix(1 0 0 -1 0 12)"/>
        </clipPath>
    </defs>
</symbol><symbol viewBox="0 0 16 15" id="basket-icon" xmlns="http://www.w3.org/2000/svg">
    <defs/>
    <path id="acVector" d="M15.9 2.34C15.81 2.21 15.66 2.13 15.5 2.12L5.58 1.69C5.29 1.68 5.06 1.9 5.04 2.18C5.03 2.46 5.25 2.7 5.53 2.72L14.79 3.12L12.97 8.79L4.87 8.79L3.41 0.83C3.38 0.65 3.26 0.51 3.09 0.44L0.7 -0.5C0.43 -0.6 0.13 -0.47 0.03 -0.21C-0.07 0.06 0.06 0.35 0.32 0.46L2.45 1.29L3.94 9.4C3.98 9.64 4.2 9.82 4.44 9.82L4.69 9.82L4.13 11.38C4.08 11.52 4.1 11.66 4.18 11.78C4.26 11.89 4.39 11.96 4.53 11.96L4.93 11.96C4.68 12.23 4.53 12.59 4.53 12.98C4.53 13.83 5.22 14.52 6.07 14.52C6.92 14.52 7.61 13.83 7.61 12.98C7.61 12.59 7.46 12.23 7.21 11.96L10.57 11.96C10.33 12.23 10.18 12.59 10.18 12.98C10.18 13.83 10.87 14.52 11.72 14.52C12.57 14.52 13.26 13.83 13.26 12.98C13.26 12.59 13.11 12.23 12.86 11.96L13.34 11.96C13.58 11.96 13.77 11.77 13.77 11.53C13.77 11.29 13.58 11.1 13.34 11.1L5.14 11.1L5.6 9.82L13.34 9.82C13.57 9.82 13.76 9.67 13.83 9.46L15.97 2.79C16.02 2.64 15.99 2.47 15.9 2.34ZM6.07 13.67C5.69 13.67 5.39 13.36 5.39 12.98C5.39 12.61 5.69 12.3 6.07 12.3C6.45 12.3 6.75 12.61 6.75 12.98C6.75 13.36 6.45 13.67 6.07 13.67ZM11.72 13.67C11.34 13.67 11.03 13.36 11.03 12.98C11.03 12.61 11.34 12.3 11.72 12.3C12.09 12.3 12.4 12.61 12.4 12.98C12.4 13.36 12.09 13.67 11.72 13.67Z" fill-opacity="1.000000" fill-rule="nonzero"/>
</symbol><symbol viewBox="0 0 6 6" id="breadcrumbs-icon" xmlns="http://www.w3.org/2000/svg">
    <circle id="adEllipse 24" cx="3" cy="3" r="3"/>
</symbol><symbol viewBox="0 0 12 12" id="check-in-stock-icon" xmlns="http://www.w3.org/2000/svg">
    <defs>
        <clipPath id="aeclip53_4061">
            <rect id="aecheck (8) 1" width="12.000000" height="12.000000" fill-opacity="0"/>
        </clipPath>
    </defs>
    <rect id="aecheck (8) 1" width="12.000000" height="12.000000" fill-opacity="0"/>
    <g clip-path="url(#aeclip53_4061)">
        <path id="aeVector" d="M4.85 9.56C4.75 9.65 4.63 9.7 4.5 9.7C4.36 9.7 4.24 9.65 4.14 9.56L1.32 6.73C1.03 6.44 1.03 5.96 1.32 5.67L1.67 5.32C1.96 5.03 2.44 5.03 2.73 5.32L4.5 7.08L9.26 2.32C9.55 2.03 10.03 2.03 10.32 2.32L10.67 2.67C10.96 2.96 10.96 3.44 10.67 3.73L4.85 9.56Z" fill-opacity="1.000000" fill-rule="nonzero"/>
    </g>
</symbol><symbol viewBox="0 0 30 30" id="closeBtn-icon" xmlns="http://www.w3.org/2000/svg">
    <defs>
        <clipPath id="afclip84_2909">
            <rect id="afcancel (23) 2" width="30.000000" height="30.000000" fill-opacity="0"/>
        </clipPath>
    </defs>
    <rect id="afcancel (23) 2" width="30.000000" height="30.000000" fill-opacity="0"/>
    <g clip-path="url(#afclip84_2909)">
        <path id="afVector" d="M18.3 15L29.52 3.78C29.83 3.47 30 3.06 30 2.62C30 2.18 29.83 1.77 29.52 1.46L28.53 0.47C28.22 0.17 27.81 0 27.37 0C26.93 0 26.52 0.17 26.21 0.47L15 11.69L3.78 0.47C3.47 0.17 3.06 0 2.62 0C2.18 0 1.77 0.17 1.46 0.47L0.48 1.46C-0.17 2.1 -0.17 3.14 0.48 3.78L11.69 15L0.48 26.21C0.17 26.52 0 26.93 0 27.37C0 27.81 0.17 28.22 0.48 28.53L1.46 29.52C1.77 29.82 2.18 29.99 2.62 29.99C3.06 29.99 3.47 29.82 3.78 29.52L15 18.3L26.21 29.52C26.52 29.82 26.93 29.99 27.37 29.99L27.37 29.99C27.81 29.99 28.22 29.82 28.53 29.52L29.51 28.53C29.82 28.22 30 27.81 30 27.37C30 26.93 29.82 26.52 29.51 26.21L18.3 15Z" fill-opacity="0.600000" fill-rule="nonzero"/>
    </g>
</symbol><symbol viewBox="0 0 16 15" id="compration-icon" xmlns="http://www.w3.org/2000/svg">
    <defs/>
    <path id="agVector" d="M15.93 8.76L13.23 4.27L15.65 3.6C15.9 3.53 16.05 3.27 15.98 3.02C15.91 2.77 15.65 2.62 15.4 2.69L12.39 3.53C12.39 3.53 12.39 3.53 12.39 3.53L8.46 4.62L8.46 -0.54C8.46 -0.79 8.25 -1 8 -1C7.74 -1 7.53 -0.79 7.53 -0.54L7.53 4.88L3.36 6.04C3.36 6.04 3.36 6.04 3.36 6.04L0.34 6.88C0.09 6.95 -0.06 7.21 0.01 7.45C0.07 7.66 0.26 7.8 0.46 7.8C0.51 7.8 0.55 7.79 0.59 7.78L2.47 7.26L0.06 11.27C0.02 11.35 0 11.43 0 11.51C0 13.43 1.56 15 3.48 15C5.4 15 6.96 13.43 6.96 11.51C6.96 11.43 6.93 11.35 6.89 11.27L4.2 6.78L11.51 4.75L9.1 8.76C9.06 8.84 9.03 8.92 9.03 9C9.03 10.92 10.59 12.48 12.51 12.48C13.44 12.48 14.32 12.12 14.98 11.47C15.63 10.81 16 9.93 16 9C16 8.92 15.97 8.84 15.93 8.76ZM3.48 14.06C2.23 14.06 1.2 13.16 0.98 11.98L5.98 11.98C5.76 13.16 4.72 14.06 3.48 14.06ZM5.66 11.05L1.29 11.05L3.48 7.4L5.66 11.05ZM12.51 4.89L14.7 8.53L10.33 8.53L12.51 4.89ZM12.51 11.55C11.27 11.55 10.23 10.65 10.01 9.47L15.01 9.47C14.79 10.65 13.76 11.55 12.51 11.55Z" fill-opacity="1.000000" fill-rule="nonzero"/>
</symbol><symbol id="cursor" viewBox="0 0 512 512" xml:space="preserve" xmlns="http://www.w3.org/2000/svg">
    <polygon style="fill:green" points="67.918,15.569 414.833,179.038 319.063,247.895 442.28,419.274 331.387,499.003   208.169,327.623 112.399,396.48 "/>
    <polygon style="fill:green" points="112.399,396.48 208.169,327.623 331.387,499.003 386.833,459.138 67.918,15.569 "/>
    <path d="M329.263,512L206.046,340.621l-101.06,72.66L56.724,0l376.394,177.359l-101.06,72.66l123.217,171.379L329.263,512z   M210.294,314.626L333.51,486.005l95.772-68.857L306.065,245.769l90.481-65.054L79.112,31.138l40.701,348.543L210.294,314.626z"/>
</symbol><symbol viewBox="0 0 16 16" id="email-icon" xmlns="http://www.w3.org/2000/svg">
    <defs>
        <clipPath id="aiclip25_508">
            <rect id="aiemail (29) 1" width="16.000000" height="16.000000" fill-opacity="0"/>
        </clipPath>
    </defs>
    <rect id="aiemail (29) 1" width="16.000000" height="16.000000" fill-opacity="0"/>
    <g clip-path="url(#aiclip25_508)">
        <path id="aiVector" d="M0 2.37L0 13.62L16 13.62L16 2.37L0 2.37ZM14.39 3.31L8 9.68L1.6 3.31L14.39 3.31ZM0.93 12.68L0.93 3.97L8 11L15.06 3.97L15.06 12.68L0.93 12.68Z" fill-opacity="1.000000" fill-rule="nonzero"/>
    </g>
</symbol><symbol viewBox="0 0 17 17" id="entrance-icon" xmlns="http://www.w3.org/2000/svg">
    <defs/>
    <path id="ajVector" d="M1.33 11.33L1.33 13C1.33 14.84 2.82 16.33 4.66 16.33L12.99 16.33C14.84 16.33 16.33 14.84 16.33 13C16.33 10.22 16.33 5.77 16.33 3C16.33 1.15 14.84 -0.34 12.99 -0.34C10.61 -0.34 7.04 -0.34 4.66 -0.34C2.82 -0.34 1.33 1.15 1.33 3L1.33 4.66C1.33 5.12 1.7 5.5 2.16 5.5C2.62 5.5 2.99 5.12 2.99 4.66C2.99 4.66 2.99 3.88 2.99 3C2.99 2.07 3.74 1.33 4.66 1.33L12.99 1.33C13.91 1.33 14.66 2.07 14.66 3L14.66 13C14.66 13.92 13.91 14.66 12.99 14.66C10.61 14.66 7.04 14.66 4.66 14.66C3.74 14.66 2.99 13.92 2.99 13C2.99 12.11 2.99 11.33 2.99 11.33C2.99 10.87 2.62 10.5 2.16 10.5C1.7 10.5 1.33 10.87 1.33 11.33ZM7.65 7.16L6.57 6.09C6.25 5.76 6.25 5.23 6.57 4.91C6.9 4.58 7.43 4.58 7.75 4.91L10.25 7.41C10.58 7.73 10.58 8.26 10.25 8.59L7.75 11.09C7.43 11.41 6.9 11.41 6.57 11.09C6.25 10.76 6.25 10.23 6.57 9.91L7.65 8.83L0.49 8.83C0.03 8.83 -0.34 8.45 -0.34 8C-0.34 7.54 0.03 7.16 0.49 7.16L7.65 7.16Z" fill-opacity="1.000000" fill-rule="evenodd"/>
</symbol><symbol id="fertilizer-icon" viewBox="0 0 24 24" xmlns="http://www.w3.org/2000/svg">
    <g clip-path="url(#akclip0_25_1128)">
        <path d="M18.6447 21.1181H18.5447C18.5447 21.2317 18.5898 21.3406 18.6701 21.4209C18.7504 21.5011 18.8593 21.5463 18.9728 21.5463C19.0863 21.5463 19.1952 21.5011 19.2755 21.4209C19.3558 21.3406 19.4009 21.2317 19.4009 21.1181L19.4009 21.118C19.4004 20.7115 19.2388 20.3219 18.9514 20.0344C18.6639 19.747 18.2743 19.5854 17.8678 19.5849H17.8677C17.7541 19.5849 17.6452 19.63 17.5649 19.7103C17.4847 19.7906 17.4396 19.8995 17.4396 20.013C17.4396 20.1265 17.4847 20.2354 17.5649 20.3157C17.6452 20.396 17.7541 20.4411 17.8677 20.4411V20.3411M18.6447 21.1181L18.5447 21.1182C18.5445 20.9387 18.473 20.7666 18.3461 20.6397C18.2192 20.5128 18.0471 20.4413 17.8676 20.4411L17.8677 20.3411M18.6447 21.1181C18.6444 20.9121 18.5625 20.7146 18.4168 20.569C18.2712 20.4233 18.0737 20.3414 17.8677 20.3411M18.6447 21.1181C18.6447 21.2052 18.6792 21.2886 18.7408 21.3501C18.8023 21.4117 18.8858 21.4463 18.9728 21.4463C19.0598 21.4463 19.1433 21.4117 19.2048 21.3501C19.2664 21.2886 19.3009 21.2052 19.3009 21.1181C19.3005 20.7381 19.1493 20.3738 18.8806 20.1052C18.612 19.8365 18.2477 19.6853 17.8677 19.6849C17.7807 19.6849 17.6972 19.7194 17.6357 19.781C17.5741 19.8425 17.5396 19.926 17.5396 20.013C17.5396 20.1 17.5741 20.1835 17.6357 20.245C17.6972 20.3066 17.7807 20.3411 17.8677 20.3411" stroke-width="0.2"/>
        <path d="M15.9576 18.7978V18.8978C16.0712 18.8978 16.1801 18.8527 16.2604 18.7724C16.3407 18.6921 16.3858 18.5832 16.3858 18.4697C16.3858 18.3561 16.3407 18.2472 16.2604 18.1669C16.1801 18.0866 16.0712 18.0415 15.9576 18.0415L15.9575 18.0415L15.166 19.5896L15.266 19.5897C15.266 19.5897 15.266 19.5897 15.266 19.5897C15.2662 19.4062 15.3391 19.2304 15.4688 19.1007C15.5985 18.971 15.7743 18.898 15.9578 18.8978L15.9576 18.7978ZM15.9576 18.7978C16.0447 18.7978 16.1281 18.7632 16.1897 18.7017C16.2512 18.6402 16.2858 18.5567 16.2858 18.4697C16.2858 18.3826 16.2512 18.2992 16.1897 18.2376C16.1281 18.1761 16.0447 18.1415 15.9576 18.1415V18.7978Z" stroke-width="0.2"/>
        <path d="M12.1339 12.0266V12.0264C12.1339 11.9129 12.0888 11.804 12.0085 11.7237C11.9282 11.6434 11.8193 11.5983 11.7058 11.5983L11.7057 11.5983C11.3249 11.5986 10.9485 11.6798 10.6014 11.8365C10.3309 11.9587 10.0831 12.1246 9.86759 12.327V12.0192C10.3115 11.5109 10.5484 10.8537 10.5302 10.1781C10.5117 9.48968 10.2296 8.83459 9.74225 8.34797C9.66194 8.26775 9.55307 8.22269 9.43956 8.22269C9.32604 8.22269 9.21716 8.26776 9.13685 8.34799L9.1367 8.34813C8.65087 8.8355 8.36987 9.49025 8.35129 10.1782C8.33307 10.8532 8.56892 11.51 9.01134 12.019V12.3269C8.79593 12.1245 8.54814 11.9586 8.27768 11.8364C7.93063 11.6796 7.5542 11.5985 7.17339 11.5983H7.17334C7.05979 11.5983 6.9509 11.6434 6.87061 11.7237C6.79032 11.804 6.74521 11.9129 6.74521 12.0264L6.74521 12.0266C6.74628 12.6815 6.98571 13.3137 7.41879 13.8051C7.8324 14.2743 8.39563 14.5845 9.01134 14.684V15.3493C9.01134 15.4628 9.05645 15.5717 9.13673 15.652C9.21702 15.7323 9.32592 15.7774 9.43946 15.7774C9.55301 15.7774 9.66191 15.7323 9.74219 15.652C9.82248 15.5717 9.86759 15.4628 9.86759 15.3493V14.684C10.4833 14.5845 11.0466 14.2744 11.4603 13.8051C11.8934 13.3138 12.1328 12.6816 12.1339 12.0266ZM9.20753 8.41873C8.73972 8.88802 8.46914 9.51848 8.45126 10.1809C8.43337 10.8432 8.66954 11.4874 9.11134 11.9812L9.20753 8.41873ZM9.20448 10.2535C9.20445 9.93721 9.28581 9.62712 9.43953 9.35266C9.59366 9.62715 9.67526 9.93744 9.67526 10.254C9.67526 10.5703 9.59378 10.8804 9.43987 11.1547C9.28598 10.8802 9.2045 10.57 9.20448 10.2535ZM10.4065 12.9936C10.6301 12.7699 10.9068 12.6082 11.2095 12.5228C11.1242 12.8255 10.9625 13.1023 10.7389 13.3259C10.5154 13.5496 10.2386 13.7113 9.93594 13.7968C10.0213 13.494 10.1829 13.2173 10.4065 12.9936ZM8.47254 12.9941C8.69606 13.2176 8.8577 13.4942 8.9431 13.7967C8.64056 13.7113 8.36397 13.5497 8.14045 13.3262C7.91693 13.1027 7.75529 12.8261 7.66989 12.5235C7.97243 12.6089 8.24902 12.7706 8.47254 12.9941Z" stroke-width="0.2"/>
        <path d="M4.29209 11.9999L4.29209 12C4.29205 13.0181 4.59393 14.0134 5.15955 14.86C5.72517 15.7065 6.52913 16.3664 7.46975 16.756C8.41038 17.1456 9.44542 17.2476 10.444 17.049C11.4426 16.8504 12.3598 16.3601 13.0797 15.6402C13.7997 14.9202 14.2899 14.003 14.4886 13.0044C14.6872 12.0058 14.5852 10.9708 14.1956 10.0302C13.8059 9.08955 13.1461 8.2856 12.2996 7.71998C11.453 7.15436 10.4577 6.85248 9.43959 6.85251L9.43947 6.85251C8.07478 6.85408 6.76644 7.3969 5.80146 8.36188C4.83647 9.32686 4.29366 10.6352 4.29209 11.9999ZM9.43965 7.70876C10.2884 7.70878 11.118 7.96045 11.8237 8.43197C12.5294 8.9035 13.0794 9.5737 13.4042 10.3578C13.729 11.1419 13.814 12.0048 13.6484 12.8372C13.4828 13.6696 13.0741 14.4342 12.474 15.0344C11.8738 15.6345 11.1092 16.0432 10.2768 16.2088C9.44435 16.3744 8.58152 16.2894 7.7974 15.9646C7.01328 15.6398 6.34307 15.0898 5.87155 14.3841C5.40003 13.6784 5.14835 12.8488 5.14834 12.0001C5.14966 10.8624 5.60221 9.77161 6.4067 8.96712C7.21119 8.16263 8.30193 7.71009 9.43965 7.70876Z" stroke-width="0.2"/>
        <mask id="akpath-5-outside-1_25_1128" maskUnits="userSpaceOnUse" x="-0.145508" y="-0.145569" width="24" height="24">
            <rect x="-0.145508" y="-0.145569" width="24" height="24"/>
            <path d="M21.874 20.9812C21.8387 20.5399 21.666 20.1208 21.3801 19.7828C21.0942 19.4447 20.7096 19.2049 20.2802 19.0969C20.2802 19.0804 20.2802 19.0639 20.2802 19.0476C20.2795 18.5183 20.0794 18.0087 19.7198 17.6203C19.3602 17.2319 18.8675 16.9933 18.3398 16.9519C18.3229 16.8782 18.3023 16.8067 18.2779 16.7362C18.4828 15.1914 18.5921 13.6354 18.6053 12.0771V11.9229C18.6053 7.98131 17.6783 3.51749 17.5887 3.09543V1.18256C17.5887 1.09553 17.5541 1.01207 17.4926 0.950537C17.431 0.889001 17.3476 0.854431 17.2606 0.854431H2.19924C2.15615 0.854407 2.11347 0.862877 2.07365 0.879358C2.03382 0.895839 1.99764 0.920008 1.96717 0.950482C1.93669 0.980956 1.91253 1.01714 1.89604 1.05696C1.87956 1.09678 1.87109 1.13946 1.87112 1.18256V3.09506C1.7813 3.51806 0.854492 7.98149 0.854492 11.9229V12.0771C0.854492 16.0185 1.7813 20.4819 1.87112 20.9046V22.8171C1.87109 22.8602 1.87956 22.9028 1.89604 22.9427C1.91253 22.9825 1.93669 23.0187 1.96717 23.0491C1.99764 23.0796 2.03382 23.1038 2.07365 23.1203C2.11347 23.1367 2.15615 23.1452 2.19924 23.1452H22.8175C22.8606 23.1452 22.9033 23.1367 22.9431 23.1203C22.9829 23.1038 23.0191 23.0796 23.0496 23.0491C23.08 23.0187 23.1042 22.9825 23.1207 22.9427C23.1372 22.9028 23.1456 22.8602 23.1456 22.8171C23.1475 22.4176 23.0265 22.0272 22.799 21.6988C22.5715 21.3704 22.2486 21.1199 21.874 20.9812ZM2.52737 1.51068H16.9324V2.80199H2.52737V1.51068ZM1.51074 11.9229C1.51074 8.41987 2.25793 4.48574 2.46699 3.45824H16.9934C17.2015 4.48574 17.9496 8.41987 17.9496 11.9229V12.0771C17.9412 13.3365 17.8651 14.5945 17.7218 15.8458C17.4337 15.5633 17.0757 15.3625 16.6844 15.2641C16.2931 15.1657 15.8826 15.1732 15.4952 15.2858C15.1077 15.3984 14.7572 15.6121 14.4796 15.9049C14.202 16.1977 14.0073 16.5591 13.9156 16.9521C13.3882 16.9941 12.896 17.2331 12.5369 17.6215C12.1778 18.0099 11.978 18.5193 11.9774 19.0483C11.9774 19.0646 11.9774 19.0811 11.9774 19.0976C11.6223 19.1873 11.2965 19.3675 11.0318 19.6205C10.767 19.8735 10.5722 20.1908 10.4665 20.5414H2.46624C2.25793 19.5139 1.50999 15.5797 1.50999 12.0767L1.51074 11.9229ZM2.52737 21.198H9.96531C9.74722 21.346 9.56151 21.5367 9.41945 21.7587C9.2774 21.9807 9.18198 22.2293 9.13899 22.4893H2.52737V21.198ZM13.4091 22.4893C13.4746 22.3249 13.5879 22.1839 13.7343 22.0844C13.8807 21.9849 14.0536 21.9316 14.2306 21.9313C14.3176 21.9313 14.401 21.8967 14.4626 21.8352C14.5241 21.7737 14.5587 21.6902 14.5587 21.6032C14.5587 21.5162 14.5241 21.4327 14.4626 21.3712C14.401 21.3096 14.3176 21.2751 14.2306 21.2751C13.8787 21.2756 13.5376 21.3963 13.2637 21.6171C12.9897 21.8379 12.7994 22.1456 12.7242 22.4893H9.80856C9.86803 22.2576 9.99049 22.0468 10.1624 21.8804C10.3343 21.7139 10.5489 21.5983 10.7824 21.5464C10.8577 21.5293 10.9245 21.4862 10.9712 21.4247C11.0179 21.3632 11.0414 21.2873 11.0376 21.2102L11.0354 21.174C11.0354 21.162 11.0335 21.1498 11.0335 21.1376C11.0352 20.7752 11.1724 20.4264 11.4182 20.16C11.6639 19.8935 12.0004 19.7286 12.3616 19.6976C12.4073 19.6939 12.4518 19.6807 12.4921 19.6588C12.5324 19.6368 12.5677 19.6067 12.5956 19.5703C12.6236 19.5338 12.6436 19.492 12.6543 19.4473C12.665 19.4027 12.6663 19.3563 12.658 19.3112C12.6415 19.2246 12.633 19.1368 12.6327 19.0487C12.6331 18.6652 12.7856 18.2975 13.0568 18.0264C13.3279 17.7552 13.6956 17.6027 14.0791 17.6023C14.1012 17.6023 14.1229 17.604 14.1447 17.6055L14.173 17.6074C14.258 17.6127 14.3417 17.5847 14.4065 17.5294C14.4712 17.4742 14.512 17.3959 14.5201 17.3111C14.5587 16.9117 14.7447 16.541 15.0418 16.2712C15.3389 16.0014 15.7258 15.852 16.1271 15.852C16.5284 15.852 16.9153 16.0014 17.2124 16.2712C17.5095 16.541 17.6955 16.9117 17.7342 17.3111C17.7422 17.3961 17.783 17.4747 17.848 17.53C17.9131 17.5854 17.9972 17.6131 18.0824 17.6074L18.1067 17.6057C18.1304 17.604 18.154 17.6021 18.178 17.6021C18.3904 17.6012 18.6004 17.6474 18.793 17.7372C18.9855 17.827 19.1558 17.9583 19.2916 18.1216C19.4274 18.285 19.5254 18.4764 19.5786 18.6821C19.6317 18.8878 19.6387 19.1027 19.5991 19.3114C19.5907 19.3565 19.592 19.4029 19.6027 19.4475C19.6134 19.4921 19.6334 19.534 19.6613 19.5704C19.6892 19.6069 19.7245 19.637 19.7648 19.659C19.8051 19.6809 19.8496 19.6941 19.8953 19.6978C20.2565 19.7288 20.593 19.8937 20.8388 20.1601C21.0845 20.4266 21.2218 20.7753 21.2236 21.1378C21.2236 21.1498 21.2236 21.1614 21.2219 21.1732L21.2194 21.2107C21.2157 21.2878 21.2391 21.3638 21.2858 21.4252C21.3324 21.4867 21.3992 21.5298 21.4744 21.5469C21.708 21.5989 21.9226 21.7145 22.0945 21.8809C22.2664 22.0473 22.3889 22.2581 22.4483 22.4899L13.4091 22.4893Z"/>
        </mask>
        <path d="M21.874 20.9812C21.8387 20.5399 21.666 20.1208 21.3801 19.7828C21.0942 19.4447 20.7096 19.2049 20.2802 19.0969C20.2802 19.0804 20.2802 19.0639 20.2802 19.0476C20.2795 18.5183 20.0794 18.0087 19.7198 17.6203C19.3602 17.2319 18.8675 16.9933 18.3398 16.9519C18.3229 16.8782 18.3023 16.8067 18.2779 16.7362C18.4828 15.1914 18.5921 13.6354 18.6053 12.0771V11.9229C18.6053 7.98131 17.6783 3.51749 17.5887 3.09543V1.18256C17.5887 1.09553 17.5541 1.01207 17.4926 0.950537C17.431 0.889001 17.3476 0.854431 17.2606 0.854431H2.19924C2.15615 0.854407 2.11347 0.862877 2.07365 0.879358C2.03382 0.895839 1.99764 0.920008 1.96717 0.950482C1.93669 0.980956 1.91253 1.01714 1.89604 1.05696C1.87956 1.09678 1.87109 1.13946 1.87112 1.18256V3.09506C1.7813 3.51806 0.854492 7.98149 0.854492 11.9229V12.0771C0.854492 16.0185 1.7813 20.4819 1.87112 20.9046V22.8171C1.87109 22.8602 1.87956 22.9028 1.89604 22.9427C1.91253 22.9825 1.93669 23.0187 1.96717 23.0491C1.99764 23.0796 2.03382 23.1038 2.07365 23.1203C2.11347 23.1367 2.15615 23.1452 2.19924 23.1452H22.8175C22.8606 23.1452 22.9033 23.1367 22.9431 23.1203C22.9829 23.1038 23.0191 23.0796 23.0496 23.0491C23.08 23.0187 23.1042 22.9825 23.1207 22.9427C23.1372 22.9028 23.1456 22.8602 23.1456 22.8171C23.1475 22.4176 23.0265 22.0272 22.799 21.6988C22.5715 21.3704 22.2486 21.1199 21.874 20.9812ZM2.52737 1.51068H16.9324V2.80199H2.52737V1.51068ZM1.51074 11.9229C1.51074 8.41987 2.25793 4.48574 2.46699 3.45824H16.9934C17.2015 4.48574 17.9496 8.41987 17.9496 11.9229V12.0771C17.9412 13.3365 17.8651 14.5945 17.7218 15.8458C17.4337 15.5633 17.0757 15.3625 16.6844 15.2641C16.2931 15.1657 15.8826 15.1732 15.4952 15.2858C15.1077 15.3984 14.7572 15.6121 14.4796 15.9049C14.202 16.1977 14.0073 16.5591 13.9156 16.9521C13.3882 16.9941 12.896 17.2331 12.5369 17.6215C12.1778 18.0099 11.978 18.5193 11.9774 19.0483C11.9774 19.0646 11.9774 19.0811 11.9774 19.0976C11.6223 19.1873 11.2965 19.3675 11.0318 19.6205C10.767 19.8735 10.5722 20.1908 10.4665 20.5414H2.46624C2.25793 19.5139 1.50999 15.5797 1.50999 12.0767L1.51074 11.9229ZM2.52737 21.198H9.96531C9.74722 21.346 9.56151 21.5367 9.41945 21.7587C9.2774 21.9807 9.18198 22.2293 9.13899 22.4893H2.52737V21.198ZM13.4091 22.4893C13.4746 22.3249 13.5879 22.1839 13.7343 22.0844C13.8807 21.9849 14.0536 21.9316 14.2306 21.9313C14.3176 21.9313 14.401 21.8967 14.4626 21.8352C14.5241 21.7737 14.5587 21.6902 14.5587 21.6032C14.5587 21.5162 14.5241 21.4327 14.4626 21.3712C14.401 21.3096 14.3176 21.2751 14.2306 21.2751C13.8787 21.2756 13.5376 21.3963 13.2637 21.6171C12.9897 21.8379 12.7994 22.1456 12.7242 22.4893H9.80856C9.86803 22.2576 9.99049 22.0468 10.1624 21.8804C10.3343 21.7139 10.5489 21.5983 10.7824 21.5464C10.8577 21.5293 10.9245 21.4862 10.9712 21.4247C11.0179 21.3632 11.0414 21.2873 11.0376 21.2102L11.0354 21.174C11.0354 21.162 11.0335 21.1498 11.0335 21.1376C11.0352 20.7752 11.1724 20.4264 11.4182 20.16C11.6639 19.8935 12.0004 19.7286 12.3616 19.6976C12.4073 19.6939 12.4518 19.6807 12.4921 19.6588C12.5324 19.6368 12.5677 19.6067 12.5956 19.5703C12.6236 19.5338 12.6436 19.492 12.6543 19.4473C12.665 19.4027 12.6663 19.3563 12.658 19.3112C12.6415 19.2246 12.633 19.1368 12.6327 19.0487C12.6331 18.6652 12.7856 18.2975 13.0568 18.0264C13.3279 17.7552 13.6956 17.6027 14.0791 17.6023C14.1012 17.6023 14.1229 17.604 14.1447 17.6055L14.173 17.6074C14.258 17.6127 14.3417 17.5847 14.4065 17.5294C14.4712 17.4742 14.512 17.3959 14.5201 17.3111C14.5587 16.9117 14.7447 16.541 15.0418 16.2712C15.3389 16.0014 15.7258 15.852 16.1271 15.852C16.5284 15.852 16.9153 16.0014 17.2124 16.2712C17.5095 16.541 17.6955 16.9117 17.7342 17.3111C17.7422 17.3961 17.783 17.4747 17.848 17.53C17.9131 17.5854 17.9972 17.6131 18.0824 17.6074L18.1067 17.6057C18.1304 17.604 18.154 17.6021 18.178 17.6021C18.3904 17.6012 18.6004 17.6474 18.793 17.7372C18.9855 17.827 19.1558 17.9583 19.2916 18.1216C19.4274 18.285 19.5254 18.4764 19.5786 18.6821C19.6317 18.8878 19.6387 19.1027 19.5991 19.3114C19.5907 19.3565 19.592 19.4029 19.6027 19.4475C19.6134 19.4921 19.6334 19.534 19.6613 19.5704C19.6892 19.6069 19.7245 19.637 19.7648 19.659C19.8051 19.6809 19.8496 19.6941 19.8953 19.6978C20.2565 19.7288 20.593 19.8937 20.8388 20.1601C21.0845 20.4266 21.2218 20.7753 21.2236 21.1378C21.2236 21.1498 21.2236 21.1614 21.2219 21.1732L21.2194 21.2107C21.2157 21.2878 21.2391 21.3638 21.2858 21.4252C21.3324 21.4867 21.3992 21.5298 21.4744 21.5469C21.708 21.5989 21.9226 21.7145 22.0945 21.8809C22.2664 22.0473 22.3889 22.2581 22.4483 22.4899L13.4091 22.4893Z"/>
        <path d="M21.874 20.9812C21.8387 20.5399 21.666 20.1208 21.3801 19.7828C21.0942 19.4447 20.7096 19.2049 20.2802 19.0969C20.2802 19.0804 20.2802 19.0639 20.2802 19.0476C20.2795 18.5183 20.0794 18.0087 19.7198 17.6203C19.3602 17.2319 18.8675 16.9933 18.3398 16.9519C18.3229 16.8782 18.3023 16.8067 18.2779 16.7362C18.4828 15.1914 18.5921 13.6354 18.6053 12.0771V11.9229C18.6053 7.98131 17.6783 3.51749 17.5887 3.09543V1.18256C17.5887 1.09553 17.5541 1.01207 17.4926 0.950537C17.431 0.889001 17.3476 0.854431 17.2606 0.854431H2.19924C2.15615 0.854407 2.11347 0.862877 2.07365 0.879358C2.03382 0.895839 1.99764 0.920008 1.96717 0.950482C1.93669 0.980956 1.91253 1.01714 1.89604 1.05696C1.87956 1.09678 1.87109 1.13946 1.87112 1.18256V3.09506C1.7813 3.51806 0.854492 7.98149 0.854492 11.9229V12.0771C0.854492 16.0185 1.7813 20.4819 1.87112 20.9046V22.8171C1.87109 22.8602 1.87956 22.9028 1.89604 22.9427C1.91253 22.9825 1.93669 23.0187 1.96717 23.0491C1.99764 23.0796 2.03382 23.1038 2.07365 23.1203C2.11347 23.1367 2.15615 23.1452 2.19924 23.1452H22.8175C22.8606 23.1452 22.9033 23.1367 22.9431 23.1203C22.9829 23.1038 23.0191 23.0796 23.0496 23.0491C23.08 23.0187 23.1042 22.9825 23.1207 22.9427C23.1372 22.9028 23.1456 22.8602 23.1456 22.8171C23.1475 22.4176 23.0265 22.0272 22.799 21.6988C22.5715 21.3704 22.2486 21.1199 21.874 20.9812ZM2.52737 1.51068H16.9324V2.80199H2.52737V1.51068ZM1.51074 11.9229C1.51074 8.41987 2.25793 4.48574 2.46699 3.45824H16.9934C17.2015 4.48574 17.9496 8.41987 17.9496 11.9229V12.0771C17.9412 13.3365 17.8651 14.5945 17.7218 15.8458C17.4337 15.5633 17.0757 15.3625 16.6844 15.2641C16.2931 15.1657 15.8826 15.1732 15.4952 15.2858C15.1077 15.3984 14.7572 15.6121 14.4796 15.9049C14.202 16.1977 14.0073 16.5591 13.9156 16.9521C13.3882 16.9941 12.896 17.2331 12.5369 17.6215C12.1778 18.0099 11.978 18.5193 11.9774 19.0483C11.9774 19.0646 11.9774 19.0811 11.9774 19.0976C11.6223 19.1873 11.2965 19.3675 11.0318 19.6205C10.767 19.8735 10.5722 20.1908 10.4665 20.5414H2.46624C2.25793 19.5139 1.50999 15.5797 1.50999 12.0767L1.51074 11.9229ZM2.52737 21.198H9.96531C9.74722 21.346 9.56151 21.5367 9.41945 21.7587C9.2774 21.9807 9.18198 22.2293 9.13899 22.4893H2.52737V21.198ZM13.4091 22.4893C13.4746 22.3249 13.5879 22.1839 13.7343 22.0844C13.8807 21.9849 14.0536 21.9316 14.2306 21.9313C14.3176 21.9313 14.401 21.8967 14.4626 21.8352C14.5241 21.7737 14.5587 21.6902 14.5587 21.6032C14.5587 21.5162 14.5241 21.4327 14.4626 21.3712C14.401 21.3096 14.3176 21.2751 14.2306 21.2751C13.8787 21.2756 13.5376 21.3963 13.2637 21.6171C12.9897 21.8379 12.7994 22.1456 12.7242 22.4893H9.80856C9.86803 22.2576 9.99049 22.0468 10.1624 21.8804C10.3343 21.7139 10.5489 21.5983 10.7824 21.5464C10.8577 21.5293 10.9245 21.4862 10.9712 21.4247C11.0179 21.3632 11.0414 21.2873 11.0376 21.2102L11.0354 21.174C11.0354 21.162 11.0335 21.1498 11.0335 21.1376C11.0352 20.7752 11.1724 20.4264 11.4182 20.16C11.6639 19.8935 12.0004 19.7286 12.3616 19.6976C12.4073 19.6939 12.4518 19.6807 12.4921 19.6588C12.5324 19.6368 12.5677 19.6067 12.5956 19.5703C12.6236 19.5338 12.6436 19.492 12.6543 19.4473C12.665 19.4027 12.6663 19.3563 12.658 19.3112C12.6415 19.2246 12.633 19.1368 12.6327 19.0487C12.6331 18.6652 12.7856 18.2975 13.0568 18.0264C13.3279 17.7552 13.6956 17.6027 14.0791 17.6023C14.1012 17.6023 14.1229 17.604 14.1447 17.6055L14.173 17.6074C14.258 17.6127 14.3417 17.5847 14.4065 17.5294C14.4712 17.4742 14.512 17.3959 14.5201 17.3111C14.5587 16.9117 14.7447 16.541 15.0418 16.2712C15.3389 16.0014 15.7258 15.852 16.1271 15.852C16.5284 15.852 16.9153 16.0014 17.2124 16.2712C17.5095 16.541 17.6955 16.9117 17.7342 17.3111C17.7422 17.3961 17.783 17.4747 17.848 17.53C17.9131 17.5854 17.9972 17.6131 18.0824 17.6074L18.1067 17.6057C18.1304 17.604 18.154 17.6021 18.178 17.6021C18.3904 17.6012 18.6004 17.6474 18.793 17.7372C18.9855 17.827 19.1558 17.9583 19.2916 18.1216C19.4274 18.285 19.5254 18.4764 19.5786 18.6821C19.6317 18.8878 19.6387 19.1027 19.5991 19.3114C19.5907 19.3565 19.592 19.4029 19.6027 19.4475C19.6134 19.4921 19.6334 19.534 19.6613 19.5704C19.6892 19.6069 19.7245 19.637 19.7648 19.659C19.8051 19.6809 19.8496 19.6941 19.8953 19.6978C20.2565 19.7288 20.593 19.8937 20.8388 20.1601C21.0845 20.4266 21.2218 20.7753 21.2236 21.1378C21.2236 21.1498 21.2236 21.1614 21.2219 21.1732L21.2194 21.2107C21.2157 21.2878 21.2391 21.3638 21.2858 21.4252C21.3324 21.4867 21.3992 21.5298 21.4744 21.5469C21.708 21.5989 21.9226 21.7145 22.0945 21.8809C22.2664 22.0473 22.3889 22.2581 22.4483 22.4899L13.4091 22.4893Z" stroke-width="0.4" mask="url(#akpath-5-outside-1_25_1128)"/>
        <path d="M3.83398 5.14376H6.56267C6.67622 5.14376 6.78511 5.09866 6.8654 5.01837C6.94569 4.93808 6.9908 4.82918 6.9908 4.71564C6.9908 4.60209 6.94569 4.4932 6.8654 4.41291C6.78511 4.33262 6.67622 4.28751 6.56267 4.28751H3.83398C3.72044 4.28751 3.61154 4.33262 3.53125 4.41291C3.45096 4.4932 3.40586 4.60209 3.40586 4.71564C3.40586 4.82918 3.45096 4.93808 3.53125 5.01837C3.61154 5.09866 3.72044 5.14376 3.83398 5.14376Z" stroke-width="0.2"/>
        <path d="M7.87891 5.14376H8.62497C8.73851 5.14376 8.84741 5.09866 8.9277 5.01837C9.00799 4.93808 9.05309 4.82918 9.05309 4.71564C9.05309 4.60209 9.00799 4.4932 8.9277 4.41291C8.84741 4.33262 8.73851 4.28751 8.62497 4.28751H7.87891C7.76536 4.28751 7.65646 4.33262 7.57618 4.41291C7.49589 4.4932 7.45078 4.60209 7.45078 4.71564C7.45078 4.82918 7.49589 4.93808 7.57618 5.01837C7.65647 5.09866 7.76536 5.14376 7.87891 5.14376Z" stroke-width="0.2"/>
    </g>
    <defs>
        <clipPath id="akclip0_25_1128">
            <rect width="24" height="24"/>
        </clipPath>
    </defs>
</symbol><symbol viewBox="0 0 24 24" id="forage-plant-group-icon" xmlns="http://www.w3.org/2000/svg">
    <g clip-path="url(#alclip0_89_2932)">
        <path d="M18.9999 20.35V17C20.0813 16.9011 21.1093 16.4844 21.9542 15.8022C22.7991 15.12 23.4231 14.203 23.7477 13.1668C24.0723 12.1305 24.0828 11.0213 23.778 9.97908C23.4732 8.93682 22.8667 8.00812 22.0349 7.31001C22.5577 6.6464 22.883 5.84905 22.9738 5.00918C23.0647 4.16931 22.9172 3.32084 22.5484 2.56083C22.1796 1.80082 21.6043 1.15998 20.8883 0.711609C20.1724 0.263238 19.3447 0.0254517 18.4999 0.0254517C17.6552 0.0254517 16.8274 0.263238 16.1115 0.711609C15.3955 1.15998 14.8202 1.80082 14.4514 2.56083C14.0826 3.32084 13.9352 4.16931 14.026 5.00918C14.1168 5.84905 14.4422 6.6464 14.9649 7.31001C14.1331 8.00812 13.5266 8.93682 13.2218 9.97908C12.917 11.0213 12.9276 12.1305 13.2521 13.1668C13.5767 14.203 14.2008 15.12 15.0457 15.8022C15.8906 16.4844 16.9185 16.9011 17.9999 17V20C14.1039 18.7101 9.89593 18.7101 5.99992 20V17C7.08132 16.9011 8.10925 16.4844 8.95416 15.8022C9.79906 15.12 10.4231 14.203 10.7477 13.1668C11.0723 12.1305 11.0828 11.0213 10.778 9.97908C10.4732 8.93682 9.8667 8.00812 9.03492 7.31001C9.47824 6.74718 9.78077 6.08664 9.91734 5.38332C10.0539 4.68 10.0206 3.95423 9.8201 3.2664C9.61962 2.57856 9.25781 1.94853 8.76476 1.42871C8.2717 0.908898 7.66166 0.514323 6.98536 0.27781C6.30907 0.0412972 5.58608 -0.0303179 4.87653 0.068922C4.16698 0.168162 3.49138 0.435388 2.90593 0.848373C2.32048 1.26136 1.8421 1.80816 1.51058 2.4433C1.17906 3.07845 1.00399 3.78357 0.99992 4.50001C0.997074 5.51081 1.33729 6.49267 1.96492 7.28501C1.12459 7.98116 0.510325 8.91155 0.200289 9.95781C-0.109748 11.0041 -0.101547 12.1189 0.223849 13.1605C0.549244 14.2021 1.17713 15.1233 2.02761 15.807C2.8781 16.4908 3.91274 16.906 4.99992 17V20.35C3.27241 21.0322 1.65238 21.9601 0.18992 23.105C0.107336 23.1691 0.0469141 23.2575 0.0171519 23.3577C-0.0126104 23.4579 -0.0102165 23.5649 0.0239968 23.6637C0.0582101 23.7624 0.122522 23.848 0.20789 23.9083C0.293258 23.9687 0.395388 24.0007 0.49992 24H23.4999C23.6045 24.0007 23.7066 23.9687 23.792 23.9083C23.8773 23.848 23.9416 23.7624 23.9758 23.6637C24.0101 23.5649 24.0125 23.4579 23.9827 23.3577C23.9529 23.2575 23.8925 23.1691 23.8099 23.105C22.3475 21.9601 20.7274 21.0322 18.9999 20.35ZM13.9999 11.5C14.0018 10.7619 14.1853 10.0357 14.534 9.38521C14.8828 8.73474 15.3862 8.18005 15.9999 7.77001C16.0597 7.72689 16.1093 7.67106 16.145 7.60654C16.1807 7.54202 16.2017 7.4704 16.2065 7.3968C16.2113 7.32321 16.1997 7.24947 16.1726 7.18087C16.1456 7.11227 16.1037 7.05051 16.0499 7.00001C15.5534 6.51336 15.2131 5.88988 15.0724 5.20906C14.9317 4.52823 14.9969 3.82092 15.2597 3.17731C15.5225 2.53369 15.9711 1.98292 16.5482 1.59524C17.1252 1.20755 17.8047 1.00051 18.4999 1.00051C19.1951 1.00051 19.8746 1.20755 20.4517 1.59524C21.0288 1.98292 21.4773 2.53369 21.7402 3.17731C22.003 3.82092 22.0682 4.52823 21.9275 5.20906C21.7867 5.88988 21.4464 6.51336 20.9499 7.00001C20.8962 7.05051 20.8543 7.11227 20.8272 7.18087C20.8001 7.24947 20.7886 7.32321 20.7933 7.3968C20.7981 7.4704 20.8191 7.54202 20.8548 7.60654C20.8906 7.67106 20.9401 7.72689 20.9999 7.77001C21.6468 8.2022 22.1705 8.79469 22.52 9.48966C22.8696 10.1846 23.033 10.9584 22.9943 11.7353C22.9557 12.5123 22.7162 13.266 22.2994 13.9228C21.8826 14.5796 21.3026 15.1172 20.6161 15.483C19.9295 15.8489 19.1599 16.0305 18.3822 16.0101C17.6046 15.9898 16.8454 15.7682 16.179 15.3669C15.5125 14.9657 14.9614 14.3986 14.5795 13.7208C14.1976 13.0431 13.9979 12.2779 13.9999 11.5ZM0.99992 11.5C1.00183 10.7619 1.18526 10.0357 1.53404 9.38521C1.88281 8.73474 2.38623 8.18005 2.99992 7.77001C3.05975 7.72689 3.10929 7.67106 3.145 7.60654C3.18072 7.54202 3.20172 7.4704 3.2065 7.3968C3.21128 7.32321 3.19972 7.24947 3.17265 7.18087C3.14558 7.11227 3.10367 7.05051 3.04992 7.00001C2.55344 6.51336 2.21313 5.88988 2.07239 5.20906C1.93165 4.52823 1.99685 3.82092 2.25969 3.17731C2.52252 2.53369 2.97107 1.98292 3.54815 1.59524C4.12524 1.20755 4.8047 1.00051 5.49992 1.00051C6.19514 1.00051 6.8746 1.20755 7.45169 1.59524C8.02877 1.98292 8.47732 2.53369 8.74016 3.17731C9.00299 3.82092 9.06819 4.52823 8.92745 5.20906C8.78671 5.88988 8.4464 6.51336 7.94992 7.00001C7.89617 7.05051 7.85426 7.11227 7.82719 7.18087C7.80012 7.24947 7.78857 7.32321 7.79334 7.3968C7.79812 7.4704 7.81912 7.54202 7.85484 7.60654C7.89055 7.67106 7.9401 7.72689 7.99992 7.77001C8.64675 8.2022 9.1705 8.79469 9.52005 9.48966C9.86959 10.1846 10.033 10.9584 9.99434 11.7353C9.95568 12.5123 9.71625 13.266 9.29943 13.9228C8.88261 14.5796 8.30262 15.1172 7.61608 15.483C6.92954 15.8489 6.15988 16.0305 5.38222 16.0101C4.60455 15.9898 3.84544 15.7682 3.17897 15.3669C2.51249 14.9657 1.96141 14.3986 1.5795 13.7208C1.1976 13.0431 0.997907 12.2779 0.99992 11.5ZM2.05492 23C5.00891 21.0575 8.46699 20.0224 12.0024 20.0224C15.5379 20.0224 18.9959 21.0575 21.9499 23H2.05492Z"/>
        <path d="M5.14509 7.35497C5.19157 7.40183 5.24687 7.43903 5.3078 7.46442C5.36873 7.4898 5.43409 7.50287 5.50009 7.50287C5.5661 7.50287 5.63145 7.4898 5.69238 7.46442C5.75331 7.43903 5.80861 7.40183 5.85509 7.35497L7.35509 5.85497C7.44924 5.76082 7.50214 5.63312 7.50214 5.49997C7.50214 5.36682 7.44924 5.23912 7.35509 5.14497C7.26094 5.05082 7.13324 4.99792 7.00009 4.99792C6.86694 4.99792 6.73924 5.05082 6.64509 5.14497L5.50009 6.29497L4.35509 5.14497C4.26094 5.05082 4.13324 4.99792 4.00009 4.99792C3.86694 4.99792 3.73924 5.05082 3.64509 5.14497C3.55094 5.23912 3.49805 5.36682 3.49805 5.49997C3.49805 5.63312 3.55094 5.76082 3.64509 5.85497L5.14509 7.35497Z"/>
        <path d="M5.14509 10.855C5.19157 10.9018 5.24687 10.939 5.3078 10.9644C5.36873 10.9898 5.43409 11.0029 5.50009 11.0029C5.5661 11.0029 5.63145 10.9898 5.69238 10.9644C5.75331 10.939 5.80861 10.9018 5.85509 10.855L7.35509 9.35497C7.40171 9.30835 7.43869 9.25301 7.46392 9.19209C7.48915 9.13118 7.50214 9.0659 7.50214 8.99997C7.50214 8.93404 7.48915 8.86876 7.46392 8.80785C7.43869 8.74694 7.40171 8.69159 7.35509 8.64497C7.30847 8.59835 7.25313 8.56137 7.19222 8.53614C7.13131 8.51091 7.06602 8.49792 7.00009 8.49792C6.93416 8.49792 6.86888 8.51091 6.80797 8.53614C6.74706 8.56137 6.69171 8.59835 6.64509 8.64497L5.50009 9.79497L4.35509 8.64497C4.30847 8.59835 4.25313 8.56137 4.19222 8.53614C4.13131 8.51091 4.06602 8.49792 4.00009 8.49792C3.93416 8.49792 3.86888 8.51091 3.80797 8.53614C3.74706 8.56137 3.69171 8.59835 3.64509 8.64497C3.59847 8.69159 3.56149 8.74694 3.53626 8.80785C3.51103 8.86876 3.49805 8.93404 3.49805 8.99997C3.49805 9.0659 3.51103 9.13118 3.53626 9.19209C3.56149 9.25301 3.59847 9.30835 3.64509 9.35497L5.14509 10.855Z"/>
        <path d="M5.85509 14.355L7.35509 12.855C7.44924 12.7608 7.50214 12.6331 7.50214 12.5C7.50214 12.3668 7.44924 12.2391 7.35509 12.145C7.26094 12.0508 7.13324 11.9979 7.00009 11.9979C6.86694 11.9979 6.73924 12.0508 6.64509 12.145L5.50009 13.295L4.35509 12.145C4.30847 12.0984 4.25313 12.0614 4.19222 12.0361C4.13131 12.0109 4.06602 11.9979 4.00009 11.9979C3.93416 11.9979 3.86888 12.0109 3.80797 12.0361C3.74706 12.0614 3.69171 12.0984 3.64509 12.145C3.59847 12.1916 3.56149 12.2469 3.53626 12.3078C3.51103 12.3688 3.49805 12.434 3.49805 12.5C3.49805 12.5659 3.51103 12.6312 3.53626 12.6921C3.56149 12.753 3.59847 12.8084 3.64509 12.855L5.14509 14.355C5.19157 14.4018 5.24687 14.439 5.3078 14.4644C5.36873 14.4898 5.43409 14.5029 5.50009 14.5029C5.5661 14.5029 5.63145 14.4898 5.69238 14.4644C5.75331 14.439 5.80861 14.4018 5.85509 14.355Z"/>
        <path d="M18.1451 7.35497C18.1916 7.40183 18.2469 7.43903 18.3078 7.46442C18.3687 7.4898 18.4341 7.50287 18.5001 7.50287C18.5661 7.50287 18.6315 7.4898 18.6924 7.46442C18.7533 7.43903 18.8086 7.40183 18.8551 7.35497L20.3551 5.85497C20.4492 5.76082 20.5021 5.63312 20.5021 5.49997C20.5021 5.36682 20.4492 5.23912 20.3551 5.14497C20.2609 5.05082 20.1332 4.99792 20.0001 4.99792C19.8669 4.99792 19.7392 5.05082 19.6451 5.14497L18.5001 6.29497L17.3551 5.14497C17.2609 5.05082 17.1332 4.99792 17.0001 4.99792C16.8669 4.99792 16.7392 5.05082 16.6451 5.14497C16.5509 5.23912 16.498 5.36682 16.498 5.49997C16.498 5.63312 16.5509 5.76082 16.6451 5.85497L18.1451 7.35497Z"/>
        <path d="M18.1451 10.855C18.1916 10.9018 18.2469 10.939 18.3078 10.9644C18.3687 10.9898 18.4341 11.0029 18.5001 11.0029C18.5661 11.0029 18.6315 10.9898 18.6924 10.9644C18.7533 10.939 18.8086 10.9018 18.8551 10.855L20.3551 9.35497C20.4492 9.26082 20.5021 9.13312 20.5021 8.99997C20.5021 8.86682 20.4492 8.73912 20.3551 8.64497C20.2609 8.55082 20.1332 8.49792 20.0001 8.49792C19.8669 8.49792 19.7392 8.55082 19.6451 8.64497L18.5001 9.79497L17.3551 8.64497C17.2609 8.55082 17.1332 8.49792 17.0001 8.49792C16.8669 8.49792 16.7392 8.55082 16.6451 8.64497C16.5509 8.73912 16.498 8.86682 16.498 8.99997C16.498 9.13312 16.5509 9.26082 16.6451 9.35497L18.1451 10.855Z"/>
        <path d="M18.8551 14.355L20.3551 12.855C20.4492 12.7608 20.5021 12.6331 20.5021 12.5C20.5021 12.3668 20.4492 12.2391 20.3551 12.145C20.2609 12.0508 20.1332 11.9979 20.0001 11.9979C19.8669 11.9979 19.7392 12.0508 19.6451 12.145L18.5001 13.295L17.3551 12.145C17.2609 12.0508 17.1332 11.9979 17.0001 11.9979C16.8669 11.9979 16.7392 12.0508 16.6451 12.145C16.5509 12.2391 16.498 12.3668 16.498 12.5C16.498 12.6331 16.5509 12.7608 16.6451 12.855L18.1451 14.355C18.1916 14.4018 18.2469 14.439 18.3078 14.4644C18.3687 14.4898 18.4341 14.5029 18.5001 14.5029C18.5661 14.5029 18.6315 14.4898 18.6924 14.4644C18.7533 14.439 18.8086 14.4018 18.8551 14.355Z"/>
    </g>
    <defs>
        <clipPath id="alclip0_89_2932">
            <rect width="24" height="24"/>
        </clipPath>
    </defs>
</symbol><symbol id="heart" viewBox="0 0 24 24" xmlns="http://www.w3.org/2000/svg">
    <path fill-rule="evenodd" clip-rule="evenodd" d="M12 6.00019C10.2006 3.90317 7.19377 3.2551 4.93923 5.17534C2.68468 7.09558 2.36727 10.3061 4.13778 12.5772C5.60984 14.4654 10.0648 18.4479 11.5249 19.7369C11.6882 19.8811 11.7699 19.9532 11.8652 19.9815C11.9483 20.0062 12.0393 20.0062 12.1225 19.9815C12.2178 19.9532 12.2994 19.8811 12.4628 19.7369C13.9229 18.4479 18.3778 14.4654 19.8499 12.5772C21.6204 10.3061 21.3417 7.07538 19.0484 5.17534C16.7551 3.2753 13.7994 3.90317 12 6.00019Z" stroke-width="2" stroke-linecap="round" stroke-linejoin="round"/>
</symbol><symbol viewBox="0 0 67 54" id="leaf" xmlns="http://www.w3.org/2000/svg">
    <path id="anVector" d="M66.5811 0.0736491C66.3696 0 66.1581 0 65.9114 0L48.3585 0V0.0368245L37.7492 0.0368245C27.8097 0.40507 20.3021 2.98279 15.2971 7.69633C15.0504 7.91727 14.8389 8.13822 14.5921 8.35917C11.7724 11.2683 9.83384 14.9139 8.70594 19.2961L0 53.9848H18.2931H28.9023C38.8066 53.6165 46.2789 51.0756 51.284 46.3621C51.5307 46.1411 51.7422 45.9202 51.9889 45.6992C54.8439 42.7901 56.8177 39.1076 57.9104 34.6887L66.6516 0.0368245C66.6163 0.0736491 66.6163 0.0736491 66.5811 0.0736491ZM40.6395 30.0488C40.005 32.5529 38.8419 34.6519 37.1853 36.309C36.9738 36.5299 36.7271 36.7877 36.4804 36.9718C36.3394 37.0823 36.1984 37.1928 36.0574 37.3032C34.1188 38.8499 31.863 39.7337 29.3253 39.9546H21.8177L26.0121 24.0096C26.6465 21.5423 27.7744 19.4802 29.3958 17.8231C29.6072 17.6021 29.854 17.3444 30.1007 17.1602C30.2417 17.0129 30.4179 16.8656 30.5942 16.7552C32.5327 15.2085 34.7885 14.3247 37.3263 14.1038H44.8691L40.6395 30.0488Z"/>
</symbol><symbol viewBox="0 0 20 20" id="location-icon" xmlns="http://www.w3.org/2000/svg">
    <defs>
        <clipPath id="aoclip114_6265">
            <rect id="aopin (5) 1" width="20.000000" height="20.000000" fill-opacity="0"/>
        </clipPath>
    </defs>
    <rect id="aopin (5) 1" width="20.000000" height="20.000000" fill-opacity="0"/>
    <g clip-path="url(#aoclip114_6265)">
        <path id="aoVector" d="M9.99 0C5.79 0 2.37 3.45 2.37 7.65C2.37 9.31 2.9 10.89 3.9 12.23L9.35 19.18L9.99 20L10.62 19.18L16.08 12.22C17.08 10.89 17.6 9.31 17.6 7.65C17.6 3.45 14.19 0 9.99 0ZM9.99 18.37L15.3 11.6Q15.59 11.21 15.82 10.78Q16.09 10.29 16.27 9.75Q16.37 9.43 16.44 9.11Q16.6 8.4 16.6 7.65Q16.6 6.94 16.46 6.27Q16.33 5.66 16.08 5.07Q15.85 4.52 15.53 4.02Q15.16 3.45 14.66 2.95Q14.14 2.43 13.53 2.03Q13.07 1.74 12.56 1.52Q11.98 1.27 11.37 1.14Q10.69 1 9.99 1Q9.28 1 8.6 1.14Q8 1.27 7.42 1.52Q6.91 1.74 6.44 2.03Q5.83 2.43 5.31 2.95Q4.82 3.45 4.45 4.02Q4.12 4.52 3.89 5.07Q3.64 5.66 3.51 6.27Q3.37 6.94 3.37 7.65Q3.37 8.4 3.53 9.11Q3.6 9.43 3.71 9.75Q3.81 10.05 3.94 10.34Q4.24 11.02 4.7 11.63L9.99 18.37ZM5 6.57Q4.89 7.1 4.89 7.65Q4.89 8.2 5 8.73Q5.1 9.19 5.29 9.64Q5.47 10.07 5.72 10.45Q6.01 10.88 6.38 11.26Q6.76 11.63 7.19 11.92Q7.57 12.17 8 12.35Q8.44 12.54 8.91 12.64Q9.44 12.75 9.99 12.75Q10.54 12.75 11.07 12.64Q11.53 12.54 11.97 12.35Q12.4 12.17 12.79 11.92Q13.22 11.63 13.59 11.26Q13.97 10.88 14.25 10.45Q14.5 10.07 14.69 9.64Q14.87 9.19 14.98 8.73Q15.09 8.2 15.09 7.65Q15.09 7.1 14.98 6.57Q14.87 6.11 14.69 5.67Q14.5 5.24 14.25 4.85Q13.97 4.42 13.59 4.05Q13.22 3.67 12.79 3.39Q12.4 3.13 11.97 2.95Q11.53 2.76 11.07 2.66Q10.54 2.55 9.99 2.55Q9.44 2.55 8.91 2.66Q8.44 2.76 8 2.95Q7.57 3.13 7.19 3.39Q6.76 3.67 6.38 4.05Q6.01 4.42 5.72 4.85Q5.47 5.24 5.29 5.67Q5.1 6.11 5 6.57ZM9.99 11.75C7.73 11.75 5.89 9.91 5.89 7.65C5.89 5.39 7.73 3.55 9.99 3.55C12.25 3.55 14.09 5.39 14.09 7.65C14.09 9.91 12.25 11.75 9.99 11.75Z" fill-opacity="1.000000" fill-rule="evenodd"/>
        <path id="aoVector" d="M7.06 7.65C7.06 6.04 8.37 4.72 9.99 4.72C11.6 4.72 12.92 6.04 12.92 7.65C12.92 9.27 11.6 10.58 9.99 10.58C8.37 10.58 7.06 9.27 7.06 7.65ZM8.1 8.08Q8.06 7.87 8.06 7.65Q8.06 7.43 8.1 7.22Q8.14 7.06 8.21 6.9Q8.27 6.75 8.36 6.61Q8.48 6.44 8.62 6.29Q8.77 6.14 8.95 6.03Q9.08 5.94 9.24 5.87Q9.39 5.81 9.56 5.77Q9.77 5.72 9.99 5.72Q10.21 5.72 10.42 5.77Q10.58 5.81 10.74 5.87Q10.89 5.94 11.03 6.03Q11.2 6.14 11.35 6.29Q11.5 6.44 11.61 6.61Q11.7 6.75 11.76 6.9Q11.83 7.06 11.87 7.22Q11.92 7.43 11.92 7.65Q11.92 7.87 11.87 8.08Q11.83 8.24 11.76 8.4Q11.7 8.55 11.61 8.69Q11.5 8.87 11.35 9.01Q11.2 9.16 11.03 9.28Q10.89 9.36 10.74 9.43Q10.58 9.5 10.42 9.53Q10.21 9.58 9.99 9.58Q9.77 9.58 9.56 9.53Q9.39 9.5 9.24 9.43Q9.08 9.36 8.95 9.28Q8.77 9.16 8.62 9.01Q8.48 8.87 8.36 8.69Q8.27 8.55 8.21 8.4Q8.14 8.24 8.1 8.08Z" fill-opacity="1.000000" fill-rule="evenodd"/>
    </g>
</symbol><symbol viewBox="0 0 15 20" id="location-icon2" xmlns="http://www.w3.org/2000/svg">
    <defs/>
    <path id="apVector" d="M7 0C2.93 0 -0.37 3.3 -0.37 7.36C-0.37 8.42 -0.15 9.43 0.28 10.36C2.12 14.39 5.65 18.65 6.68 19.85C6.76 19.94 6.88 19.99 7 19.99C7.11 19.99 7.23 19.94 7.31 19.85C8.34 18.65 11.87 14.39 13.71 10.36C14.14 9.43 14.36 8.42 14.36 7.36C14.36 3.3 11.05 0 7 0ZM7 11.18C4.89 11.18 3.17 9.47 3.17 7.36C3.17 5.25 4.89 3.53 7 3.53C9.1 3.53 10.82 5.25 10.82 7.36C10.82 9.47 9.1 11.18 7 11.18Z" fill-opacity="1.000000" fill-rule="nonzero"/>
</symbol><symbol viewBox="0 0 24 24" id="payment-mastercard" xmlns="http://www.w3.org/2000/svg">
    <g id="aqSVGRepo_bgCarrier" stroke-width="0"/>
    <g id="aqSVGRepo_tracerCarrier" stroke-linecap="round" stroke-linejoin="round"/>
    <g id="aqSVGRepo_iconCarrier">
        <g fill-rule="evenodd">
            <circle cx="7" cy="12" r="7"/>
            <circle cx="17" cy="12" r="7" fill-opacity=".8"/>
        </g>
    </g>
</symbol><symbol viewBox="0 0 12 12" id="payment-money" xmlns="http://www.w3.org/2000/svg">
    <defs>
        <clipPath id="arclip48_2702">
            <rect id="armoney (4) 1" width="12.000000" height="12.000000" fill-opacity="0"/>
        </clipPath>
    </defs>
    <rect id="armoney (4) 1" width="12.000000" height="12.000000" fill-opacity="0"/>
    <g clip-path="url(#arclip48_2702)">
        <path id="arVector" d="M11.98 3.37C11.96 3.22 11.89 3.08 11.77 2.98L8.09 0.12C7.84 -0.08 7.48 -0.03 7.29 0.22L3.73 4.75L1.37 6.33C1.37 6.33 1.37 6.33 1.37 6.33L0.71 6.77L0.26 7.07C0.25 7.08 0.24 7.09 0.23 7.09C0.12 7.18 0.04 7.3 0.01 7.44C-0.02 7.59 0.01 7.75 0.1 7.87L0.1 7.87C0.1 7.87 0.1 7.87 0.1 7.87L0.65 8.69L0.84 8.98L1.95 10.64C1.95 10.64 1.95 10.64 1.95 10.64L2.14 10.91L2.7 11.74C2.81 11.91 2.99 12 3.17 12C3.28 12 3.4 11.96 3.49 11.9L3.49 11.9C3.49 11.9 3.49 11.9 3.49 11.9L4.58 11.17L5.05 11.55C5.16 11.63 5.28 11.67 5.41 11.67C5.58 11.67 5.75 11.59 5.86 11.45L7.73 9.06L10.47 7.23C10.47 7.23 10.47 7.23 10.48 7.22L11.58 6.48C11.71 6.4 11.8 6.27 11.83 6.12C11.86 5.96 11.83 5.81 11.74 5.68L11.74 5.68C11.74 5.68 11.74 5.68 11.74 5.68L11.11 4.75L11.86 3.79C11.96 3.67 12 3.52 11.98 3.37ZM1.55 7.74C1.48 8.09 1.3 8.4 1.03 8.63L0.47 7.8L0.39 7.68C0.36 7.63 0.35 7.57 0.36 7.51C0.37 7.46 0.4 7.41 0.44 7.38C0.44 7.38 0.45 7.37 0.45 7.37L0.77 7.16L1.41 6.73C1.57 7.04 1.62 7.39 1.55 7.74ZM3.3 11.61C3.2 11.67 3.06 11.65 2.99 11.54L2.98 11.53L2.35 10.6C2.99 10.26 3.79 10.42 4.25 10.97L3.3 11.61ZM5.58 11.23C5.51 11.33 5.37 11.35 5.27 11.27L4.88 10.97L6.79 9.69L5.58 11.23ZM10.29 5.81C10.36 5.46 10.54 5.15 10.81 4.93L11.45 5.88C11.48 5.93 11.49 5.99 11.48 6.05C11.47 6.11 11.44 6.16 11.39 6.19L10.43 6.83C10.27 6.52 10.22 6.16 10.29 5.81ZM11.59 3.58L10.91 4.44L9.15 1.82C8.97 1.55 8.61 1.48 8.35 1.66L6.79 2.7C6.6 2.83 6.8 3.12 6.99 2.99L7.29 2.79C7.66 3.24 8.21 3.49 8.77 3.49C9.09 3.49 9.4 3.41 9.69 3.26L10.61 4.63C10.27 4.91 10.03 5.3 9.95 5.74C9.86 6.19 9.93 6.63 10.14 7.02L7.51 8.78C7.51 8.78 7.51 8.78 7.51 8.78L4.55 10.77C3.97 10.06 2.96 9.86 2.15 10.3L1.23 8.92C1.57 8.64 1.81 8.25 1.9 7.81C1.98 7.37 1.91 6.92 1.7 6.53L6.17 3.54C6.36 3.41 6.16 3.12 5.97 3.25L4.67 4.12L7.56 0.43C7.64 0.34 7.78 0.32 7.88 0.39L11.55 3.26C11.6 3.3 11.63 3.35 11.63 3.41C11.64 3.47 11.62 3.53 11.59 3.58ZM8.54 1.95C8.65 1.88 8.79 1.91 8.85 2.01L9.18 2.49L9.49 2.96C8.85 3.3 8.05 3.14 7.59 2.59L8.54 1.95Z" fill-opacity="1.000000" fill-rule="nonzero"/>
        <path id="arVector" d="M4.63 4.86C4.12 5.2 3.77 5.73 3.65 6.33C3.54 6.94 3.66 7.55 4 8.06C4.35 8.58 4.87 8.92 5.48 9.04C5.7 9.08 5.77 8.74 5.55 8.7C5.03 8.6 4.59 8.3 4.29 7.87C4 7.43 3.9 6.91 4 6.4C4.1 5.89 4.4 5.44 4.83 5.15C5.73 4.55 6.95 4.79 7.55 5.69C7.84 6.12 7.94 6.64 7.84 7.16C7.74 7.67 7.45 8.11 7.01 8.4C6.84 8.52 6.65 8.6 6.46 8.66C6.24 8.72 6.34 9.06 6.55 9C6.79 8.93 7 8.83 7.21 8.69C7.72 8.35 8.07 7.83 8.19 7.22C8.31 6.62 8.18 6.01 7.84 5.49C7.13 4.44 5.69 4.15 4.63 4.86Z" fill-opacity="1.000000" fill-rule="nonzero"/>
        <path id="arVector" d="M8.6 5.16C8.63 5.16 8.66 5.15 8.7 5.13L9.52 4.58C9.6 4.52 9.62 4.41 9.57 4.33C9.52 4.25 9.41 4.23 9.33 4.29L8.5 4.84C8.42 4.89 8.4 5 8.45 5.08C8.49 5.13 8.54 5.16 8.6 5.16Z" fill-opacity="1.000000" fill-rule="nonzero"/>
        <path id="arVector" d="M3.15 8.42L2.32 8.98C2.24 9.03 2.22 9.14 2.27 9.22C2.3 9.27 2.36 9.3 2.42 9.3C2.45 9.3 2.48 9.29 2.51 9.27L3.34 8.72C3.42 8.66 3.44 8.55 3.39 8.47C3.34 8.39 3.23 8.37 3.15 8.42Z" fill-opacity="1.000000" fill-rule="nonzero"/>
        <path id="arVector" d="M6.54 8.05C6.68 8.25 6.96 8.04 6.84 7.85L6.74 7.71C7 7.45 7 7.09 6.89 6.83C6.7 6.41 6.31 6.38 5.91 6.47L5.51 5.88C5.61 5.84 5.69 5.85 5.7 5.85C5.92 5.89 5.97 5.54 5.75 5.51C5.74 5.5 5.54 5.48 5.31 5.58L5.23 5.46C5.11 5.27 4.81 5.47 4.94 5.66L5.02 5.78C4.84 5.98 4.79 6.27 4.89 6.52C5.05 6.88 5.4 6.92 5.75 6.86L6.26 7.63C6.16 7.68 6.08 7.7 5.92 7.7C5.7 7.7 5.71 8.06 5.93 8.05C6.17 8.05 6.31 8.01 6.46 7.92L6.54 8.05ZM5.4 6.54C5.33 6.53 5.26 6.47 5.22 6.38C5.18 6.3 5.17 6.19 5.23 6.09L5.53 6.54C5.48 6.54 5.44 6.54 5.4 6.54ZM6.13 6.78C6.42 6.7 6.54 6.91 6.57 6.98C6.62 7.1 6.63 7.27 6.54 7.41L6.12 6.78C6.12 6.78 6.12 6.78 6.13 6.78Z" fill-opacity="1.000000" fill-rule="nonzero"/>
    </g>
</symbol><symbol viewBox="0 0 32 32" id="payment-visa" xmlns="http://www.w3.org/2000/svg">
    <g id="asSVGRepo_bgCarrier" stroke-width="0"/>
    <g id="asSVGRepo_tracerCarrier" stroke-linecap="round" stroke-linejoin="round"/>
    <g id="asSVGRepo_iconCarrier">
        <title>visa</title>
        <path d="M15.854 11.329l-2.003 9.367h-2.424l2.006-9.367zM26.051 17.377l1.275-3.518 0.735 3.518zM28.754 20.696h2.242l-1.956-9.367h-2.069c-0.003-0-0.007-0-0.010-0-0.459 0-0.853 0.281-1.019 0.68l-0.003 0.007-3.635 8.68h2.544l0.506-1.4h3.109zM22.429 17.638c0.010-2.473-3.419-2.609-3.395-3.714 0.008-0.336 0.327-0.694 1.027-0.785 0.13-0.013 0.28-0.021 0.432-0.021 0.711 0 1.385 0.162 1.985 0.452l-0.027-0.012 0.425-1.987c-0.673-0.261-1.452-0.413-2.266-0.416h-0.001c-2.396 0-4.081 1.275-4.096 3.098-0.015 1.348 1.203 2.099 2.122 2.549 0.945 0.459 1.262 0.754 1.257 1.163-0.006 0.63-0.752 0.906-1.45 0.917-0.032 0.001-0.071 0.001-0.109 0.001-0.871 0-1.691-0.219-2.407-0.606l0.027 0.013-0.439 2.052c0.786 0.315 1.697 0.497 2.651 0.497 0.015 0 0.030-0 0.045-0h-0.002c2.546 0 4.211-1.257 4.22-3.204zM12.391 11.329l-3.926 9.367h-2.562l-1.932-7.477c-0.037-0.364-0.26-0.668-0.57-0.82l-0.006-0.003c-0.688-0.338-1.488-0.613-2.325-0.786l-0.066-0.011 0.058-0.271h4.124c0 0 0.001 0 0.001 0 0.562 0 1.028 0.411 1.115 0.948l0.001 0.006 1.021 5.421 2.522-6.376z"/>
    </g>
</symbol><symbol viewBox="0 0 16 16" id="phone-icon" xmlns="http://www.w3.org/2000/svg">
    <defs>
        <clipPath id="atclip16_2256">
            <rect id="atcall (32) 1" width="16.000000" height="16.000000" fill-opacity="0"/>
        </clipPath>
    </defs>
    <rect id="atcall (32) 1" width="16.000000" height="16.000000" fill-opacity="0"/>
    <g clip-path="url(#atclip16_2256)">
        <path id="atVector" d="M12.19 14.54L10 10.67C9.98 10.65 9.97 10.62 9.97 10.59C9.96 10.56 9.96 10.53 9.97 10.5C9.97 10.47 9.99 10.44 10 10.42C10.02 10.4 10.05 10.37 10.07 10.36C10.1 10.35 10.13 10.34 10.16 10.33C10.19 10.33 10.22 10.33 10.25 10.34C10.27 10.35 10.3 10.37 10.32 10.39C10.35 10.4 10.36 10.43 10.38 10.46L12.57 14.33L12.19 14.54Z" fill-opacity="1.000000" fill-rule="nonzero"/>
        <path id="atVector" d="M7.16 5.45C7.12 5.45 7.09 5.44 7.05 5.42C7.02 5.4 6.99 5.37 6.97 5.34L4.78 1.47L5.16 1.25L7.35 5.12C7.38 5.17 7.39 5.23 7.37 5.29C7.36 5.34 7.32 5.39 7.27 5.41C7.24 5.43 7.2 5.45 7.16 5.45Z" fill-opacity="1.000000" fill-rule="nonzero"/>
        <path id="atVector" d="M10.05 15.19C9.73 15.2 9.41 15.16 9.09 15.09C5.96 14.22 1.86 6.98 2.72 3.85C3.11 2.75 3.87 1.8 4.86 1.18C5.05 1.06 5.25 0.96 5.44 0.87C5.62 0.79 5.83 0.77 6.01 0.84C6.2 0.9 6.36 1.03 6.45 1.2L8.1 4.11C8.15 4.2 8.19 4.31 8.2 4.42C8.21 4.53 8.2 4.64 8.16 4.74C8.13 4.84 8.07 4.94 8 5.02C7.92 5.1 7.83 5.17 7.73 5.21C7.57 5.28 7.41 5.36 7.26 5.44C6.6 5.77 6.22 6.07 6.14 6.33C5.94 6.95 6.17 8 6.74 9.01C7.31 10.02 8.08 10.76 8.73 10.89C8.91 10.94 9.31 10.89 10.07 10.39C10.21 10.3 10.36 10.2 10.5 10.1C10.59 10.03 10.69 9.99 10.8 9.97C10.91 9.95 11.02 9.95 11.13 9.97C11.24 10 11.34 10.04 11.42 10.11C11.51 10.17 11.59 10.26 11.64 10.35L13.29 13.26C13.39 13.43 13.42 13.63 13.37 13.83C13.33 14.02 13.21 14.19 13.05 14.3C12.87 14.42 12.68 14.53 12.49 14.64C11.73 15.02 10.89 15.21 10.05 15.19ZM5.77 1.23C5.72 1.23 5.67 1.24 5.63 1.26C5.45 1.34 5.26 1.44 5.08 1.55C4.19 2.12 3.5 2.97 3.14 3.97C2.77 5.3 3.42 7.71 4.78 10.11C6.14 12.51 7.88 14.3 9.21 14.67C10.25 14.87 11.33 14.72 12.28 14.25C12.46 14.15 12.64 14.04 12.81 13.93C12.88 13.88 12.93 13.8 12.95 13.72C12.97 13.63 12.95 13.55 12.91 13.47L11.26 10.56C11.24 10.52 11.21 10.48 11.17 10.45C11.13 10.42 11.08 10.4 11.04 10.39C10.99 10.38 10.93 10.38 10.88 10.39C10.83 10.4 10.79 10.42 10.74 10.45C10.6 10.56 10.45 10.66 10.3 10.74C9.56 11.22 9.03 11.4 8.62 11.31C7.85 11.13 7 10.35 6.36 9.21C5.85 8.34 5.42 7.07 5.71 6.18C5.84 5.79 6.27 5.43 7.06 5.02C7.21 4.93 7.38 4.86 7.54 4.79C7.59 4.77 7.63 4.74 7.66 4.7C7.7 4.66 7.72 4.62 7.74 4.57C7.76 4.53 7.76 4.48 7.76 4.43C7.75 4.38 7.74 4.33 7.71 4.28L6.06 1.37C6.03 1.33 5.99 1.29 5.93 1.27C5.88 1.24 5.82 1.23 5.77 1.23L5.77 1.23Z" fill-opacity="1.000000" fill-rule="nonzero"/>
    </g>
</symbol><symbol viewBox="0 0 24 23" id="protection-seeds-icon" xmlns="http://www.w3.org/2000/svg">
    <defs/>
    <path id="auVector" d="M3.36 18.13L5.62 19.25L5.62 21.78C5.62 22.04 5.83 22.25 6.09 22.25L11.06 22.25C11.32 22.25 11.53 22.04 11.53 21.78L11.53 15.66C11.53 14.22 10.45 13.03 9.02 12.89C9.02 12.89 7.04 12.58 6.12 11.66L5.07 10.61C4.72 10.25 4.25 10.06 3.75 10.06L3.75 6.31C3.75 5.27 2.9 4.43 1.87 4.43C0.84 4.43 0 5.27 0 6.31L0 12.68C0 13.81 0.31 14.92 0.91 15.88C1.5 16.84 2.35 17.62 3.36 18.13ZM0.93 6.31C0.93 5.79 1.35 5.37 1.87 5.37C2.39 5.37 2.81 5.79 2.81 6.31L2.81 10.31C2.24 10.64 1.87 11.26 1.87 11.93C1.87 12.43 2.07 12.9 2.42 13.26L4.82 15.66C5 15.84 5.3 15.84 5.48 15.66C5.67 15.48 5.67 15.18 5.48 15L3.08 12.6C2.91 12.42 2.81 12.18 2.81 11.93C2.81 11.54 3.06 11.18 3.43 11.05C3.43 11.05 3.43 11.05 3.43 11.05L3.43 11.05C3.76 10.93 4.14 11 4.41 11.27L5.46 12.32C6.55 13.41 8.92 13.82 8.93 13.82C9.87 13.91 10.59 14.7 10.59 15.66L10.59 21.31L6.56 21.31L6.56 18.96C6.56 18.79 6.46 18.62 6.3 18.54L3.78 17.29C2.02 16.41 0.93 14.64 0.93 12.68L0.93 6.31Z" fill-opacity="1.000000" fill-rule="nonzero"/>
    <path id="auVector" d="M11.53 10.53C11.53 10.79 11.74 11 12 11C12.25 11 12.46 10.79 12.46 10.53L12.46 9.12L14.26 9.12C16.89 9.12 19.03 6.98 19.03 4.35L19.03 2.09C19.03 1.9 18.91 1.73 18.74 1.66C18.56 1.58 18.36 1.62 18.23 1.76C17.71 2.27 17.02 2.56 16.29 2.56C14.73 2.56 13.33 3.32 12.46 4.49L12.46 0.21C12.46 -0.05 12.25 -0.26 12 -0.26C11.74 -0.26 11.53 -0.05 11.53 0.21L11.53 2.61C10.66 1.44 9.26 0.68 7.7 0.68C6.97 0.68 6.28 0.4 5.76 -0.12C5.63 -0.25 5.43 -0.29 5.25 -0.22C5.08 -0.15 4.96 0.02 4.96 0.21L4.96 2.48C4.96 5.11 7.1 7.25 9.73 7.25L11.53 7.25L11.53 10.53ZM16.29 3.49C16.93 3.49 17.55 3.33 18.09 3.03L18.09 4.35C18.09 6.46 16.37 8.18 14.26 8.18L13.4 8.18L16.03 6.21C16.23 6.06 16.28 5.76 16.12 5.56C15.96 5.35 15.67 5.31 15.46 5.46L12.46 7.71L12.46 7.33C12.46 5.21 14.18 3.49 16.29 3.49ZM5.9 2.48L5.9 1.15C6.44 1.46 7.06 1.62 7.7 1.62C9.81 1.62 11.53 3.34 11.53 5.45L11.53 5.84L8.53 3.59C8.32 3.43 8.03 3.48 7.87 3.68C7.71 3.89 7.76 4.18 7.96 4.34L10.59 6.31L9.73 6.31C7.62 6.31 5.9 4.59 5.9 2.48Z" fill-opacity="1.000000" fill-rule="nonzero"/>
    <path id="auVector" d="M21.98 17C21.98 17.25 21.77 17.46 21.51 17.46C21.25 17.46 21.04 17.25 21.04 17C21.04 16.74 21.25 16.53 21.51 16.53C21.77 16.53 21.98 16.74 21.98 17Z" fill-opacity="1.000000" fill-rule="evenodd"/>
    <path id="auVector" d="M22.12 4.43C21.09 4.43 20.25 5.27 20.25 6.31L20.25 10.06C19.74 10.06 19.27 10.25 18.92 10.61L17.87 11.66C16.97 12.56 14.97 12.89 14.97 12.89C13.54 13.03 12.46 14.22 12.46 15.66L12.46 21.78C12.46 22.04 12.67 22.25 12.93 22.25L17.9 22.25C18.16 22.25 18.37 22.04 18.37 21.78L18.37 19.25L19.9 18.49C20.14 18.37 20.23 18.09 20.11 17.86C20 17.63 19.72 17.53 19.49 17.65L17.69 18.54C17.53 18.62 17.43 18.79 17.43 18.96L17.43 21.31L13.4 21.31L13.4 15.66C13.4 14.7 14.12 13.91 15.07 13.82C15.07 13.82 17.38 13.47 18.53 12.32L19.58 11.27C19.85 11 20.23 10.93 20.56 11.05L20.56 11.05C20.56 11.05 20.56 11.05 20.56 11.05C20.93 11.18 21.18 11.54 21.18 11.93C21.18 12.18 21.08 12.42 20.91 12.6L18.51 15C18.32 15.18 18.32 15.48 18.51 15.66C18.69 15.84 18.99 15.84 19.17 15.66L21.57 13.26C21.92 12.9 22.12 12.43 22.12 11.93C22.12 11.26 21.75 10.64 21.18 10.31L21.18 6.31C21.18 5.79 21.6 5.37 22.12 5.37C22.64 5.37 23.06 5.79 23.06 6.31L23.06 12.68C23.06 13.53 22.84 14.38 22.43 15.14C22.31 15.36 22.39 15.65 22.62 15.77C22.85 15.9 23.13 15.81 23.26 15.59C23.74 14.69 24 13.69 24 12.68L24 6.31C24 5.27 23.15 4.43 22.12 4.43Z" fill-opacity="1.000000" fill-rule="nonzero"/>
</symbol><symbol viewBox="0 0 20 20" id="schedule-icon" xmlns="http://www.w3.org/2000/svg">
    <defs>
        <clipPath id="avclip114_6281">
            <rect id="avback-in-time (2) 1" width="20.000000" height="20.000000" fill-opacity="0"/>
        </clipPath>
    </defs>
    <rect id="avback-in-time (2) 1" width="20.000000" height="20.000000" fill-opacity="0"/>
    <g clip-path="url(#avclip114_6281)">
        <path id="avXMLID_1030_" d="M17.86 3.82L18.48 3.82C18.69 3.82 18.87 3.65 18.87 3.43C18.87 3.21 18.69 3.04 18.48 3.04L17 3.04C16.78 3.04 16.6 3.21 16.6 3.43L16.6 4.91C16.6 5.13 16.78 5.3 17 5.3C17.21 5.3 17.39 5.13 17.39 4.91L17.39 4.48C18.57 6.07 19.21 7.99 19.21 10C19.21 15.08 15.08 19.21 10 19.21C4.91 19.21 0.78 15.08 0.78 10C0.78 4.91 4.91 0.78 10 0.78C10.37 0.78 10.75 0.8 11.12 0.84C11.33 0.87 11.53 0.72 11.55 0.5C11.58 0.29 11.43 0.09 11.21 0.07C10.81 0.02 10.4 0 10 0C7.32 0 4.81 1.04 2.92 2.92C1.03 4.81 0 7.32 0 10C0 12.67 1.03 15.18 2.92 17.07C4.81 18.95 7.32 20 10 20C12.67 20 15.18 18.95 17.07 17.07C18.96 15.18 20 12.67 20 10C20 7.74 19.24 5.58 17.86 3.82Z" fill-opacity="1.000000" fill-rule="nonzero"/>
        <path id="avXMLID_1029_" d="M4.23 5.89C4.05 5.77 3.8 5.83 3.69 6.01C2.8 7.42 2.41 9.11 2.58 10.78C2.76 12.47 3.52 14.06 4.72 15.27C6.17 16.72 8.08 17.45 10 17.45C11.9 17.45 13.81 16.72 15.26 15.27C18.17 12.36 18.17 7.63 15.26 4.72C14.06 3.52 12.47 2.76 10.78 2.58C9.12 2.4 7.43 2.8 6.02 3.68C5.84 3.8 5.78 4.04 5.9 4.22C6.01 4.4 6.26 4.46 6.44 4.34C9.09 2.67 12.5 3.05 14.71 5.27C17.32 7.88 17.32 12.11 14.71 14.72C12.11 17.32 7.88 17.32 5.27 14.72C3.08 12.53 2.69 9.04 4.35 6.43C4.46 6.25 4.41 6.01 4.23 5.89Z" fill-opacity="1.000000" fill-rule="nonzero"/>
        <path id="avXMLID_1028_" d="M15.07 10.39L15.55 10.39C15.76 10.39 15.94 10.22 15.94 10C15.94 9.79 15.76 9.61 15.55 9.61L15.07 9.61C14.85 9.61 14.68 9.79 14.68 10C14.68 10.22 14.85 10.39 15.07 10.39Z" fill-opacity="1.000000" fill-rule="nonzero"/>
        <path id="avXMLID_1004_" d="M4.05 9.99C4.05 10.2 4.23 10.38 4.44 10.38L4.92 10.38C5.14 10.38 5.31 10.2 5.31 9.99C5.31 9.77 5.14 9.6 4.92 9.6L4.44 9.6C4.23 9.6 4.05 9.77 4.05 9.99Z" fill-opacity="1.000000" fill-rule="nonzero"/>
        <path id="avXMLID_1001_" d="M10.39 4.92L10.39 4.44C10.39 4.22 10.22 4.05 10 4.05C9.79 4.05 9.61 4.22 9.61 4.44L9.61 4.92C9.61 5.14 9.79 5.31 10 5.31C10.22 5.31 10.39 5.14 10.39 4.92Z" fill-opacity="1.000000" fill-rule="nonzero"/>
        <path id="avXMLID_1415_" d="M9.6 15.07L9.6 15.55C9.6 15.77 9.77 15.94 9.99 15.94C10.2 15.94 10.38 15.77 10.38 15.55L10.38 15.07C10.38 14.85 10.2 14.68 9.99 14.68C9.77 14.68 9.6 14.85 9.6 15.07Z" fill-opacity="1.000000" fill-rule="nonzero"/>
        <path id="avXMLID_996_" d="M8.04 7.49C7.89 7.33 7.64 7.33 7.48 7.49C7.33 7.64 7.33 7.89 7.48 8.04L8.81 9.36C8.71 9.55 8.65 9.77 8.65 10C8.65 10.74 9.25 11.34 10 11.34C10.73 11.34 11.34 10.74 11.34 10C11.34 9.77 11.28 9.55 11.18 9.36L13.85 6.69C14 6.54 14 6.29 13.85 6.14C13.69 5.99 13.45 5.99 13.3 6.14L10.63 8.81C10.44 8.71 10.22 8.65 10 8.65C9.76 8.65 9.55 8.71 9.36 8.81L8.04 7.49ZM10.56 10C10.56 10.31 10.3 10.56 10 10.56C9.68 10.56 9.43 10.31 9.43 10C9.43 9.68 9.68 9.43 10 9.43C10.3 9.43 10.56 9.68 10.56 10Z" fill-opacity="1.000000" fill-rule="nonzero"/>
        <path id="avXMLID_980_" d="M5.28 5.27C5.35 5.2 5.39 5.1 5.39 5C5.39 4.9 5.35 4.8 5.28 4.72C5.2 4.65 5.1 4.61 5 4.61C4.9 4.61 4.8 4.65 4.72 4.72C4.65 4.8 4.61 4.9 4.61 5C4.61 5.1 4.65 5.2 4.72 5.27C4.8 5.35 4.9 5.39 5 5.39C5.1 5.39 5.2 5.35 5.28 5.27Z" fill-opacity="1.000000" fill-rule="nonzero"/>
        <path id="avXMLID_979_" d="M12.7 1.16C12.8 1.16 12.9 1.12 12.98 1.05C13.05 0.97 13.09 0.87 13.09 0.77C13.09 0.67 13.05 0.57 12.98 0.5C12.9 0.42 12.8 0.38 12.7 0.38C12.6 0.38 12.5 0.42 12.42 0.5C12.35 0.57 12.31 0.67 12.31 0.77C12.31 0.87 12.35 0.97 12.42 1.05C12.5 1.12 12.6 1.16 12.7 1.16Z" fill-opacity="1.000000" fill-rule="nonzero"/>
    </g>
</symbol><symbol viewBox="0 0 20 20" id="schedule-icon2" xmlns="http://www.w3.org/2000/svg">
    <defs/>
    <path id="awVector" d="M17.26 3.13L18.48 3.02L18.38 1.86L15.06 2.13L15.34 5.46L16.51 5.36L16.38 3.9C17.95 5.53 18.82 7.7 18.82 10C18.82 12.35 17.91 14.57 16.24 16.24C14.57 17.9 12.35 18.82 10 18.82C7.64 18.82 5.42 17.9 3.75 16.24C2.08 14.57 1.17 12.35 1.17 10C1.17 7.64 2.08 5.42 3.75 3.75C5.42 2.09 7.64 1.17 10 1.17L10 0C7.32 0 4.81 1.04 2.92 2.92C1.04 4.81 0 7.32 0 10C0 12.67 1.04 15.18 2.92 17.07C4.81 18.95 7.32 20 10 20C12.67 20 15.18 18.95 17.07 17.07C18.95 15.18 20 12.67 20 10C20 7.41 19.01 4.97 17.26 3.13Z" fill-opacity="1.000000" fill-rule="nonzero"/>
    <path id="awVector" d="M9.41 5.19L9.41 3.82C6.46 4.1 4.1 6.45 3.82 9.41L5.19 9.41L5.19 10.58L3.82 10.58C4.1 13.54 6.46 15.89 9.41 16.17L9.41 14.8L10.58 14.8L10.58 16.17C13.54 15.89 15.89 13.54 16.17 10.58L14.8 10.58L14.8 9.41L16.17 9.41C15.89 6.45 13.54 4.1 10.58 3.82L10.58 5.19L9.41 5.19ZM10.58 10.27L8.38 12.12L7.62 11.23L9.41 9.72L9.41 6.43L10.58 6.43L10.58 10.27Z" fill-opacity="1.000000" fill-rule="nonzero"/>
</symbol><symbol viewBox="0 0 15 15" id="search-icon" xmlns="http://www.w3.org/2000/svg">
    <g clip-path="url(#axclip0_25_1169)">
        <path d="M14.8167 13.9331L10.5511 9.66753C11.3774 8.64693 11.8749 7.35005 11.8749 5.93758C11.8749 2.66386 9.21114 0.00012207 5.93742 0.00012207C2.6637 0.00012207 0 2.66383 0 5.93755C0 9.21127 2.66373 11.875 5.93745 11.875C7.34993 11.875 8.6468 11.3775 9.66741 10.5513L13.933 14.8169C14.0549 14.9387 14.2149 15 14.3749 15C14.5349 15 14.6949 14.9387 14.8168 14.8169C15.0611 14.5725 15.0611 14.1775 14.8167 13.9331ZM5.93745 10.625C3.35247 10.625 1.25 8.52253 1.25 5.93755C1.25 3.35256 3.35247 1.25009 5.93745 1.25009C8.52244 1.25009 10.6249 3.35256 10.6249 5.93755C10.6249 8.52253 8.52241 10.625 5.93745 10.625Z"/>
    </g>
    <defs>
        <clipPath id="axclip0_25_1169">
            <rect width="15" height="15"/>
        </clipPath>
    </defs>
</symbol><symbol viewBox="0 0 24 24" id="seeds-icon" xmlns="http://www.w3.org/2000/svg">
    <defs>
        <clipPath id="ayclip91_3253">
            <rect id="ayseeds 2" width="24.000000" height="24.000000" fill-opacity="0"/>
        </clipPath>
    </defs>
    <rect id="ayseeds 2" width="24.000000" height="24.000000" fill-opacity="0"/>
    <g clip-path="url(#ayclip91_3253)">
        <path id="ayVector" d="M19.77 17.17C19.64 17.03 19.41 17.02 19.27 17.16C17.64 18.71 15.74 20.09 14.43 20.67C13.15 21.25 11.74 21.37 10.39 21.03C11.02 20.67 11.59 20.21 12.07 19.68C12.07 19.68 12.07 19.68 12.07 19.68C14.91 19.31 16.94 17.27 17.03 17.18C17.16 17.04 17.16 16.82 17.02 16.69C16.88 16.55 16.66 16.55 16.52 16.69C16.51 16.71 14.93 18.29 12.72 18.84C13.44 17.75 13.86 16.44 13.86 15.03C13.86 14.78 13.84 14.5 13.82 14.2C13.8 14 13.63 13.86 13.44 13.88C13.24 13.89 13.1 14.07 13.12 14.26C13.14 14.54 13.16 14.8 13.16 15.03C13.16 18.47 10.36 21.26 6.93 21.26C3.49 21.26 0.7 18.47 0.7 15.03C0.7 13.16 1.5 9.99 2.6 7.48C3.92 4.46 5.5 2.73 6.93 2.73C8.22 2.73 9.36 4.1 10.09 5.25C10.2 5.42 10.41 5.47 10.58 5.36C10.74 5.26 10.79 5.04 10.69 4.88C9.49 2.98 8.22 2.02 6.93 2.02C5.97 2.02 5.02 2.56 4.1 3.61C3.34 4.49 2.61 5.7 1.95 7.2C0.8 9.82 0 13.04 0 15.03C0 18.86 3.1 21.97 6.93 21.97C7.82 21.97 8.68 21.79 9.47 21.48C10.26 21.78 11.07 21.92 11.89 21.92C12.85 21.92 13.82 21.72 14.72 21.31C16.11 20.69 18.04 19.29 19.76 17.67C19.9 17.53 19.9 17.31 19.77 17.17Z" fill-opacity="1.000000" fill-rule="nonzero"/>
        <path id="ayVector" d="M19.32 16.89Q19.22 16.93 19.13 17.01L19.13 17.01Q17.92 18.17 16.61 19.11Q15.31 20.06 14.35 20.49Q13.77 20.75 13.16 20.88Q12.79 20.96 12.42 21Q11.98 21.03 11.54 21.01Q11.23 20.99 10.92 20.94Q11.15 20.79 11.36 20.61Q11.79 20.27 12.17 19.86Q13.14 19.73 14.11 19.33Q14.91 19 15.69 18.49Q16.25 18.13 16.74 17.71Q17.01 17.49 17.17 17.32Q17.25 17.24 17.29 17.14Q17.33 17.05 17.33 16.93Q17.33 16.82 17.28 16.72Q17.24 16.62 17.16 16.54Q17.08 16.46 16.98 16.42Q16.88 16.38 16.77 16.39Q16.66 16.39 16.56 16.43Q16.46 16.47 16.38 16.55Q16.29 16.64 16.1 16.81Q15.74 17.12 15.33 17.4Q14.26 18.15 13.16 18.51Q13.31 18.24 13.43 17.95Q13.62 17.55 13.75 17.11Q13.88 16.7 13.95 16.27Q14.06 15.66 14.06 15.03Q14.06 14.65 14.02 14.18Q14.01 14.06 13.96 13.97Q13.91 13.88 13.82 13.8Q13.73 13.73 13.63 13.7Q13.53 13.67 13.42 13.68Q13.3 13.69 13.21 13.74Q13.12 13.79 13.04 13.87Q12.97 13.96 12.94 14.06Q12.91 14.16 12.92 14.28Q12.96 14.7 12.96 15.03Q12.96 15.7 12.82 16.33Q12.7 16.87 12.48 17.38Q12.27 17.88 11.98 18.33Q11.64 18.85 11.19 19.3Q10.74 19.74 10.22 20.08Q9.77 20.38 9.27 20.59Q8.76 20.81 8.23 20.92Q7.59 21.06 6.93 21.06Q6.26 21.06 5.63 20.92Q5.09 20.81 4.58 20.59Q4.08 20.38 3.64 20.08Q3.12 19.74 2.67 19.3Q2.22 18.85 1.88 18.33Q1.58 17.88 1.37 17.38Q1.16 16.87 1.04 16.33Q0.9 15.7 0.9 15.03Q0.9 14.36 1.04 13.45Q1.17 12.56 1.43 11.54Q1.68 10.53 2.03 9.52Q2.38 8.48 2.78 7.56Q3.76 5.33 4.87 4.11Q5.41 3.52 5.93 3.22Q6.45 2.93 6.93 2.93Q7.73 2.93 8.59 3.71Q9.26 4.32 9.92 5.36Q9.98 5.46 10.07 5.52Q10.16 5.58 10.27 5.6Q10.38 5.63 10.48 5.61Q10.59 5.59 10.68 5.53Q10.78 5.47 10.84 5.39Q10.9 5.3 10.93 5.19Q10.95 5.08 10.93 4.97Q10.91 4.87 10.85 4.77Q9.08 1.96 7.12 1.83Q7.02 1.82 6.93 1.82Q6.85 1.82 6.77 1.83Q5.32 1.91 3.95 3.48Q2.78 4.82 1.77 7.12Q0.9 9.1 0.35 11.31Q0.08 12.37 -0.06 13.31Q-0.21 14.28 -0.21 15.03Q-0.21 15.82 -0.04 16.56Q0.1 17.2 0.36 17.81Q0.61 18.4 0.96 18.93Q1.36 19.55 1.89 20.07Q2.41 20.6 3.03 21.01Q3.56 21.35 4.15 21.6Q4.76 21.86 5.4 22Q6.14 22.17 6.93 22.17Q7.67 22.17 8.38 22.02Q8.94 21.9 9.47 21.7Q10.18 21.95 10.91 22.06Q11.4 22.12 11.89 22.12Q12.53 22.12 13.16 22.01Q14 21.86 14.8 21.5Q15.87 21.02 17.24 20.03Q18.6 19.04 19.89 17.81Q19.98 17.73 20.02 17.64Q20.06 17.54 20.07 17.42Q20.07 17.31 20.03 17.21Q19.99 17.11 19.91 17.03Q19.84 16.95 19.74 16.9Q19.64 16.86 19.53 16.86Q19.41 16.86 19.32 16.89ZM9.47 21.48C10.26 21.78 11.07 21.92 11.89 21.92C12.85 21.92 13.82 21.72 14.72 21.31C16.11 20.69 18.04 19.29 19.76 17.67C19.9 17.53 19.9 17.31 19.77 17.17C19.64 17.03 19.41 17.02 19.27 17.16C17.64 18.71 15.74 20.09 14.43 20.67C13.24 21.21 11.94 21.35 10.68 21.1C10.58 21.08 10.49 21.06 10.39 21.03C10.48 20.99 10.56 20.94 10.64 20.89C11.17 20.55 11.65 20.14 12.07 19.68L12.07 19.68C14.91 19.31 16.94 17.27 17.03 17.18C17.16 17.04 17.16 16.82 17.02 16.69C16.88 16.55 16.66 16.55 16.52 16.69C16.51 16.71 15.07 18.15 13 18.76C12.91 18.79 12.81 18.82 12.72 18.84C12.77 18.76 12.82 18.68 12.87 18.59C13.5 17.55 13.86 16.33 13.86 15.03C13.86 14.78 13.84 14.5 13.82 14.2C13.8 14 13.63 13.86 13.44 13.88C13.24 13.89 13.1 14.07 13.12 14.26C13.14 14.54 13.16 14.8 13.16 15.03C13.16 18.47 10.36 21.26 6.93 21.26C3.49 21.26 0.7 18.47 0.7 15.03C0.7 13.16 1.5 9.99 2.6 7.48C3.92 4.46 5.5 2.73 6.93 2.73C8.22 2.73 9.36 4.1 10.09 5.25C10.2 5.42 10.41 5.47 10.58 5.36C10.74 5.26 10.79 5.04 10.69 4.88C9.49 2.98 8.22 2.02 6.93 2.02C5.97 2.02 5.02 2.56 4.1 3.61C3.34 4.49 2.61 5.7 1.95 7.2C0.8 9.82 0 13.04 0 15.03C0 18.86 3.1 21.97 6.93 21.97C7.82 21.97 8.68 21.79 9.47 21.48Z" fill-opacity="1.000000" fill-rule="evenodd"/>
        <path id="ayVector" d="M23.76 9.67C23.18 8.36 21.47 7.55 18.83 7.31C16.86 7.14 14.38 7.3 12.13 7.75C11.92 7.22 11.69 6.71 11.45 6.23C11.36 6.06 11.15 5.99 10.98 6.08C10.8 6.17 10.73 6.38 10.82 6.55C11.74 8.38 12.52 10.72 12.91 12.83C12.94 13 13.09 13.11 13.26 13.11C13.28 13.11 13.3 13.11 13.32 13.11C13.51 13.07 13.64 12.89 13.6 12.7C13.48 12.05 13.33 11.39 13.14 10.72C16.95 9.37 19.8 10 19.83 10.01C20.02 10.05 20.21 9.94 20.25 9.75C20.3 9.56 20.18 9.37 19.99 9.33C19.87 9.3 16.94 8.63 12.95 10.04C12.78 9.49 12.59 8.95 12.4 8.42C14.54 8 16.89 7.85 18.77 8.01C20.42 8.16 22.52 8.62 23.12 9.95C23.73 11.31 22.7 13.56 20.29 16.13C20.16 16.27 20.17 16.5 20.31 16.63C20.38 16.69 20.46 16.72 20.55 16.72C20.64 16.72 20.74 16.69 20.8 16.61C22.34 14.98 24.76 11.9 23.76 9.67Z" fill-opacity="1.000000" fill-rule="nonzero"/>
        <path id="ayVector" d="M22.15 7.91Q20.86 7.29 18.85 7.11Q17.35 6.98 15.57 7.1Q13.88 7.21 12.26 7.52Q11.95 6.79 11.63 6.14Q11.58 6.04 11.5 5.97Q11.41 5.9 11.31 5.87Q11.2 5.83 11.09 5.84Q10.99 5.85 10.89 5.9Q10.78 5.95 10.71 6.03Q10.65 6.11 10.61 6.22Q10.57 6.33 10.58 6.43Q10.59 6.54 10.64 6.64Q11.32 8 11.87 9.65Q12.42 11.3 12.72 12.86Q12.74 12.96 12.78 13.04Q12.83 13.13 12.91 13.19Q12.99 13.25 13.08 13.28Q13.16 13.31 13.26 13.31Q13.29 13.31 13.32 13.31Q13.34 13.31 13.36 13.3Q13.47 13.28 13.56 13.23Q13.65 13.17 13.71 13.07Q13.78 12.98 13.8 12.88Q13.82 12.77 13.8 12.66Q13.64 11.78 13.39 10.85Q14.59 10.43 15.82 10.23Q16.88 10.06 17.91 10.05Q18.64 10.05 19.29 10.13Q19.62 10.17 19.79 10.2Q19.9 10.23 20 10.21Q20.1 10.2 20.2 10.14Q20.3 10.08 20.36 9.99Q20.42 9.91 20.45 9.79Q20.48 9.68 20.46 9.58Q20.44 9.47 20.38 9.38Q20.32 9.28 20.24 9.22Q20.15 9.16 20.04 9.13Q19.81 9.08 19.43 9.03Q18.72 8.94 17.92 8.94Q16.82 8.95 15.68 9.14Q14.37 9.35 13.08 9.79Q12.88 9.17 12.66 8.57Q14.15 8.29 15.7 8.2Q17.36 8.09 18.75 8.21Q20.25 8.35 21.27 8.72Q22.56 9.21 22.94 10.04Q23.14 10.49 23.07 11.11Q23 11.74 22.65 12.51Q21.93 14.09 20.15 16Q20.07 16.08 20.03 16.18Q19.99 16.28 20 16.39Q20 16.5 20.04 16.6Q20.09 16.7 20.17 16.77Q20.25 16.85 20.35 16.89Q20.44 16.92 20.55 16.92Q20.67 16.92 20.77 16.88Q20.87 16.84 20.95 16.75Q22.57 15.02 23.41 13.46Q24.59 11.26 24.01 9.74Q23.98 9.66 23.94 9.59Q23.93 9.55 23.91 9.51Q23.42 8.51 22.15 7.91ZM12.47 8.61C12.44 8.54 12.42 8.48 12.4 8.42C12.46 8.4 12.53 8.39 12.59 8.38C14.69 7.99 16.95 7.85 18.77 8.01C20.42 8.16 22.52 8.62 23.12 9.95C23.73 11.31 22.7 13.56 20.29 16.13C20.16 16.27 20.17 16.5 20.31 16.63C20.38 16.69 20.46 16.72 20.55 16.72C20.64 16.72 20.74 16.69 20.8 16.61C22.34 14.98 24.76 11.9 23.76 9.67C23.18 8.36 21.47 7.55 18.83 7.31C16.86 7.14 14.38 7.3 12.13 7.75C11.92 7.22 11.69 6.71 11.45 6.23C11.36 6.06 11.15 5.99 10.98 6.08C10.8 6.17 10.73 6.38 10.82 6.55C11.74 8.38 12.52 10.72 12.91 12.83C12.94 13 13.09 13.11 13.26 13.11C13.28 13.11 13.3 13.11 13.32 13.11C13.51 13.07 13.64 12.89 13.6 12.7C13.48 12.05 13.33 11.39 13.14 10.72C16.95 9.37 19.8 10 19.83 10.01C20.02 10.05 20.21 9.94 20.25 9.75C20.3 9.56 20.18 9.37 19.99 9.33C19.87 9.3 17.03 8.65 13.14 9.98C13.07 10 13.01 10.02 12.95 10.04C12.93 9.98 12.91 9.92 12.89 9.85C12.76 9.43 12.62 9.02 12.47 8.61Z" fill-opacity="1.000000" fill-rule="evenodd"/>
        <path id="ayVector" d="M19 13.12C18.91 12.95 18.7 12.88 18.53 12.96L14.44 14.97C14.26 15.06 14.19 15.27 14.28 15.45C14.34 15.57 14.46 15.64 14.59 15.64C14.64 15.64 14.7 15.63 14.75 15.61L18.84 13.6C19.01 13.51 19.08 13.3 19 13.12Z" fill-opacity="1.000000" fill-rule="nonzero"/>
        <path id="ayVector" d="M18.65 12.73Q18.54 12.73 18.44 12.78L18.44 12.78L14.35 14.8Q14.25 14.85 14.18 14.92Q14.11 15 14.07 15.11Q14.03 15.22 14.04 15.33Q14.05 15.43 14.1 15.53Q14.13 15.61 14.19 15.66Q14.24 15.72 14.3 15.76Q14.37 15.8 14.44 15.82Q14.51 15.84 14.59 15.84Q14.65 15.84 14.71 15.83Q14.77 15.81 14.83 15.79L18.93 13.77Q19.03 13.72 19.1 13.64Q19.17 13.57 19.2 13.46Q19.24 13.35 19.24 13.24Q19.23 13.14 19.18 13.04Q19.13 12.93 19.05 12.86Q18.97 12.79 18.86 12.76Q18.75 12.72 18.65 12.73ZM19 13.12C18.91 12.95 18.7 12.88 18.53 12.96L14.44 14.97C14.26 15.06 14.19 15.27 14.28 15.45C14.34 15.57 14.46 15.64 14.59 15.64C14.64 15.64 14.7 15.63 14.75 15.61L18.84 13.6C19.01 13.51 19.08 13.3 19 13.12Z" fill-opacity="1.000000" fill-rule="evenodd"/>
        <path id="ayVector" d="M5.57 5.26C5.41 5.14 5.19 5.17 5.07 5.32C5.04 5.37 4.21 6.47 3.56 8.47C2.96 10.3 2.41 13.29 3.16 17.07C3.19 17.23 3.34 17.35 3.5 17.35C3.53 17.35 3.55 17.35 3.57 17.34C3.76 17.31 3.89 17.12 3.85 16.93C3.13 13.31 3.65 10.47 4.22 8.72C4.83 6.82 5.62 5.76 5.63 5.75C5.75 5.59 5.72 5.37 5.57 5.26Z" fill-opacity="1.000000" fill-rule="nonzero"/>
        <path id="ayVector" d="M5.08 5.06Q4.98 5.11 4.91 5.2L4.91 5.2Q4.85 5.29 4.75 5.44Q4.56 5.72 4.37 6.06Q3.78 7.13 3.37 8.41Q2.81 10.12 2.65 12.02Q2.45 14.52 2.96 17.11Q2.98 17.2 3.03 17.28Q3.08 17.36 3.16 17.43Q3.24 17.49 3.32 17.52Q3.41 17.55 3.51 17.55Q3.53 17.55 3.56 17.55Q3.58 17.55 3.61 17.54Q3.73 17.52 3.81 17.46Q3.9 17.4 3.96 17.3Q4.03 17.21 4.05 17.11Q4.07 17 4.05 16.89Q3.56 14.47 3.75 12.14Q3.89 10.37 4.41 8.78Q4.79 7.61 5.33 6.62Q5.5 6.31 5.66 6.06Q5.75 5.93 5.79 5.87Q5.86 5.78 5.89 5.68Q5.91 5.58 5.9 5.46Q5.88 5.35 5.83 5.26Q5.78 5.17 5.69 5.1Q5.6 5.03 5.5 5Q5.39 4.97 5.28 4.99Q5.17 5 5.08 5.06ZM5.57 5.26C5.41 5.14 5.19 5.17 5.07 5.32C5.04 5.37 4.21 6.47 3.56 8.47C2.96 10.3 2.41 13.29 3.16 17.07C3.19 17.23 3.34 17.35 3.5 17.35C3.53 17.35 3.55 17.35 3.57 17.34C3.76 17.31 3.89 17.12 3.85 16.93C3.13 13.31 3.65 10.47 4.22 8.72C4.83 6.82 5.62 5.76 5.63 5.75C5.75 5.59 5.72 5.37 5.57 5.26Z" fill-opacity="1.000000" fill-rule="evenodd"/>
        <path id="ayVector" d="M11.59 14.13C11.52 12.51 11.05 11.29 11.03 11.24C10.96 11.06 10.76 10.97 10.58 11.04C10.4 11.11 10.31 11.32 10.38 11.5C10.38 11.51 10.83 12.67 10.89 14.19C10.97 16.17 10.38 17.8 9.13 19.02C8.99 19.15 8.99 19.38 9.12 19.52C9.19 19.59 9.28 19.62 9.37 19.62C9.46 19.62 9.55 19.59 9.62 19.52C11 18.17 11.68 16.31 11.59 14.13Z" fill-opacity="1.000000" fill-rule="nonzero"/>
        <path id="ayVector" d="M11.22 11.17L11.22 11.17Q11.18 11.06 11.1 10.99Q11.03 10.91 10.93 10.87Q10.82 10.82 10.72 10.82Q10.61 10.82 10.5 10.86Q10.4 10.9 10.32 10.97Q10.25 11.05 10.2 11.15Q10.15 11.25 10.15 11.36Q10.15 11.47 10.19 11.57Q10.3 11.85 10.42 12.33Q10.65 13.27 10.69 14.19Q10.77 16.23 9.9 17.71Q9.53 18.34 8.99 18.87Q8.91 18.95 8.87 19.05Q8.83 19.15 8.82 19.26Q8.82 19.38 8.86 19.48Q8.9 19.57 8.98 19.65Q9.06 19.74 9.16 19.78Q9.26 19.82 9.37 19.82Q9.49 19.82 9.58 19.78Q9.68 19.74 9.76 19.66Q10.25 19.19 10.62 18.63Q11.07 17.97 11.35 17.21Q11.86 15.8 11.79 14.13Q11.75 13.09 11.49 12.05Q11.35 11.51 11.22 11.17ZM11.59 14.13C11.52 12.51 11.05 11.29 11.03 11.24C10.96 11.06 10.76 10.97 10.58 11.04C10.4 11.11 10.31 11.32 10.38 11.5C10.38 11.51 10.83 12.67 10.89 14.19C10.97 16.17 10.38 17.8 9.13 19.02C8.99 19.15 8.99 19.38 9.12 19.52C9.19 19.59 9.28 19.62 9.37 19.62C9.46 19.62 9.55 19.59 9.62 19.52C11 18.17 11.68 16.31 11.59 14.13Z" fill-opacity="1.000000" fill-rule="evenodd"/>
        <path id="ayVector" d="M8.5 8.12C8.49 7.93 8.33 7.78 8.13 7.78C7.94 7.79 7.79 7.95 7.8 8.15L7.96 12.7C7.96 12.89 8.12 13.04 8.31 13.04C8.31 13.04 8.32 13.04 8.32 13.04C8.52 13.03 8.67 12.87 8.66 12.68L8.5 8.12Z" fill-opacity="1.000000" fill-rule="nonzero"/>
        <path id="ayVector" d="M8.34 7.62Q8.25 7.58 8.13 7.58L8.13 7.58Q8.01 7.59 7.92 7.63Q7.82 7.68 7.74 7.76Q7.67 7.84 7.63 7.94Q7.59 8.04 7.6 8.15L7.76 12.71Q7.76 12.82 7.8 12.92Q7.85 13.01 7.93 13.09Q8.01 13.16 8.1 13.2Q8.2 13.24 8.31 13.24Q8.32 13.24 8.33 13.24Q8.44 13.24 8.54 13.19Q8.64 13.15 8.71 13.07Q8.79 12.98 8.83 12.88Q8.86 12.78 8.86 12.67L8.7 8.12Q8.69 8 8.65 7.9Q8.61 7.81 8.52 7.73Q8.44 7.66 8.34 7.62ZM8.5 8.12C8.49 7.93 8.33 7.78 8.13 7.78C7.94 7.79 7.79 7.95 7.8 8.15L7.96 12.7C7.96 12.89 8.12 13.04 8.31 13.04C8.31 13.04 8.32 13.04 8.32 13.04C8.52 13.03 8.67 12.87 8.66 12.68L8.5 8.12Z" fill-opacity="1.000000" fill-rule="evenodd"/>
        <path id="ayVector" d="M5.95 19.51C5.16 19.22 4.48 18.48 4.47 18.47C4.34 18.32 4.12 18.31 3.97 18.44C3.83 18.57 3.82 18.8 3.95 18.94C3.98 18.97 4.75 19.82 5.71 20.17C5.75 20.18 5.79 20.19 5.83 20.19C5.98 20.19 6.11 20.1 6.16 19.96C6.23 19.77 6.13 19.57 5.95 19.51Z" fill-opacity="1.000000" fill-rule="nonzero"/>
        <path id="ayVector" d="M5.04 18.73Q4.78 18.51 4.62 18.33L4.62 18.33Q4.54 18.25 4.45 18.2Q4.35 18.16 4.24 18.15Q4.12 18.15 4.02 18.18Q3.92 18.22 3.84 18.29Q3.76 18.37 3.71 18.47Q3.66 18.56 3.66 18.68Q3.65 18.79 3.69 18.89Q3.72 18.99 3.8 19.07Q4.02 19.32 4.35 19.59Q5.01 20.12 5.64 20.35Q5.69 20.37 5.74 20.38Q5.78 20.39 5.83 20.39Q5.92 20.39 5.99 20.36Q6.07 20.34 6.15 20.29Q6.22 20.24 6.27 20.18Q6.32 20.11 6.35 20.02Q6.39 19.92 6.38 19.81Q6.38 19.71 6.33 19.6Q6.28 19.5 6.21 19.43Q6.13 19.36 6.02 19.32Q5.56 19.15 5.04 18.73ZM5.95 19.51C5.16 19.22 4.48 18.48 4.47 18.47C4.34 18.32 4.12 18.31 3.97 18.44C3.83 18.57 3.82 18.8 3.95 18.94C3.98 18.97 4.75 19.82 5.71 20.17C5.75 20.18 5.79 20.19 5.83 20.19C5.98 20.19 6.11 20.1 6.16 19.96C6.23 19.77 6.13 19.57 5.95 19.51Z" fill-opacity="1.000000" fill-rule="evenodd"/>
        <path id="ayVector" d="M8.51 13.74C8.31 13.74 8.16 13.9 8.16 14.09L8.16 14.12C8.16 14.32 8.31 14.48 8.51 14.48C8.7 14.48 8.86 14.32 8.86 14.12L8.86 14.09C8.86 13.9 8.7 13.74 8.51 13.74Z" fill-opacity="1.000000" fill-rule="nonzero"/>
        <path id="ayVector" d="M8 13.88Q7.96 13.98 7.96 14.09L7.96 14.12Q7.96 14.24 8 14.34Q8.04 14.43 8.12 14.51Q8.2 14.6 8.3 14.64Q8.39 14.68 8.51 14.68Q8.62 14.68 8.72 14.64Q8.82 14.6 8.9 14.51Q8.98 14.43 9.02 14.34Q9.06 14.24 9.06 14.12L9.06 14.09Q9.06 13.98 9.02 13.88Q8.98 13.78 8.9 13.7Q8.82 13.62 8.72 13.58Q8.62 13.54 8.51 13.54Q8.39 13.54 8.3 13.58Q8.2 13.62 8.12 13.7Q8.04 13.78 8 13.88ZM8.16 14.09C8.16 13.9 8.31 13.74 8.51 13.74C8.7 13.74 8.86 13.9 8.86 14.09L8.86 14.12C8.86 14.32 8.7 14.48 8.51 14.48C8.31 14.48 8.16 14.32 8.16 14.12L8.16 14.09Z" fill-opacity="1.000000" fill-rule="evenodd"/>
        <path id="ayVector" d="M7.64 14.67C7.45 14.67 7.29 14.82 7.29 15.02L7.29 15.05C7.29 15.25 7.45 15.4 7.64 15.4C7.84 15.4 7.99 15.25 7.99 15.05L7.99 15.02C7.99 14.82 7.84 14.67 7.64 14.67Z" fill-opacity="1.000000" fill-rule="nonzero"/>
        <path id="ayVector" d="M7.13 14.81Q7.09 14.9 7.09 15.02L7.09 15.05Q7.09 15.17 7.13 15.26Q7.17 15.36 7.25 15.44Q7.33 15.52 7.43 15.56Q7.53 15.6 7.64 15.6Q7.76 15.6 7.85 15.56Q7.95 15.52 8.03 15.44Q8.11 15.36 8.15 15.26Q8.19 15.17 8.19 15.05L8.19 15.02Q8.19 14.9 8.15 14.81Q8.11 14.71 8.03 14.63Q7.95 14.55 7.85 14.51Q7.76 14.47 7.64 14.47Q7.53 14.47 7.43 14.51Q7.33 14.55 7.25 14.63Q7.17 14.71 7.13 14.81ZM7.29 15.02C7.29 14.82 7.45 14.67 7.64 14.67C7.84 14.67 7.99 14.82 7.99 15.02L7.99 15.05C7.99 15.25 7.84 15.4 7.64 15.4C7.45 15.4 7.29 15.25 7.29 15.05L7.29 15.02Z" fill-opacity="1.000000" fill-rule="evenodd"/>
        <path id="ayVector" d="M8.76 16.24C8.57 16.24 8.41 16.4 8.41 16.59L8.41 16.63C8.41 16.82 8.57 16.98 8.76 16.98C8.95 16.98 9.11 16.82 9.11 16.63L9.11 16.59C9.11 16.4 8.95 16.24 8.76 16.24Z" fill-opacity="1.000000" fill-rule="nonzero"/>
        <path id="ayVector" d="M8.25 16.38Q8.21 16.48 8.21 16.59L8.21 16.63Q8.21 16.74 8.25 16.84Q8.29 16.93 8.37 17.02Q8.45 17.1 8.55 17.14Q8.65 17.18 8.76 17.18Q8.87 17.18 8.97 17.14Q9.07 17.1 9.15 17.02Q9.23 16.93 9.27 16.84Q9.31 16.74 9.31 16.63L9.31 16.59Q9.31 16.48 9.27 16.38Q9.23 16.28 9.15 16.2Q9.07 16.12 8.97 16.08Q8.87 16.04 8.76 16.04Q8.65 16.04 8.55 16.08Q8.45 16.12 8.37 16.2Q8.29 16.28 8.25 16.38ZM8.41 16.59C8.41 16.4 8.57 16.24 8.76 16.24C8.95 16.24 9.11 16.4 9.11 16.59L9.11 16.63C9.11 16.82 8.95 16.98 8.76 16.98C8.57 16.98 8.41 16.82 8.41 16.63L8.41 16.59Z" fill-opacity="1.000000" fill-rule="evenodd"/>
    </g>
</symbol><symbol viewBox="0 0 12 12" id="select-arrow" xmlns="http://www.w3.org/2000/svg">
    <defs>
        <clipPath id="baclip84_2954">
            <rect id="baarrow-down-sign-to-navigate (10) 5" width="12.000000" height="12.000000" fill-opacity="0"/>
        </clipPath>
    </defs>
    <rect id="baarrow-down-sign-to-navigate (10) 5" width="12.000000" height="12.000000" fill-opacity="0"/>
    <g clip-path="url(#baclip84_2954)">
        <path id="baVector" d="M6 9.42C5.78 9.42 5.57 9.33 5.4 9.17L0.24 4.01C-0.09 3.68 -0.09 3.15 0.24 2.82C0.57 2.49 1.1 2.49 1.43 2.82L6 7.39L10.56 2.82C10.89 2.49 11.42 2.49 11.75 2.82C12.08 3.15 12.08 3.68 11.75 4.01L6.59 9.17C6.42 9.33 6.21 9.42 6 9.42Z" fill-opacity="1.000000" fill-rule="nonzero"/>
    </g>
</symbol><symbol viewBox="0 0 12 12" id="select-arrow-white" xmlns="http://www.w3.org/2000/svg">
    <defs>
        <clipPath id="azclip84_2954">
            <rect id="azarrow-down-sign-to-navigate (10) 5" width="12.000000" height="12.000000" fill-opacity="0"/>
        </clipPath>
    </defs>
    <rect id="azarrow-down-sign-to-navigate (10) 5" width="12.000000" height="12.000000" fill-opacity="0"/>
    <g clip-path="url(#azclip84_2954)">
        <path id="azVector" d="M6 9.42C5.78 9.42 5.57 9.33 5.4 9.17L0.24 4.01C-0.09 3.68 -0.09 3.15 0.24 2.82C0.57 2.49 1.1 2.49 1.43 2.82L6 7.39L10.56 2.82C10.89 2.49 11.42 2.49 11.75 2.82C12.08 3.15 12.08 3.68 11.75 4.01L6.59 9.17C6.42 9.33 6.21 9.42 6 9.42Z" fill-opacity="1.000000" fill-rule="nonzero"/>
    </g>
</symbol><symbol viewBox="0 0 20 20" id="slider-arrow" xmlns="http://www.w3.org/2000/svg">
    <defs>
        <clipPath id="bbclip53_4075">
            <rect id="bbarrow 1" width="20.000000" height="20.000000" fill-opacity="0"/>
        </clipPath>
    </defs>
    <rect id="bbarrow 1" width="20.000000" height="20.000000" fill-opacity="0"/>
    <g clip-path="url(#bbclip53_4075)">
        <path id="bbVector" d="M18.79 8.59C18.71 8.58 18.63 8.57 18.55 8.57L4.44 8.57L4.74 8.43C5.04 8.29 5.32 8.09 5.55 7.86L9.51 3.9C10.03 3.4 10.12 2.6 9.72 2C9.25 1.37 8.35 1.23 7.72 1.7C7.66 1.73 7.62 1.77 7.57 1.82L0.41 8.97C-0.14 9.53 -0.14 10.44 0.41 11C0.41 11 0.41 11 0.41 11L7.57 18.15C8.13 18.71 9.04 18.71 9.59 18.15C9.64 18.11 9.68 18.06 9.72 18.01C10.12 17.41 10.03 16.61 9.51 16.11L5.56 12.15C5.35 11.94 5.11 11.76 4.84 11.63L4.41 11.43L18.47 11.43C19.2 11.46 19.84 10.95 19.98 10.23C20.1 9.45 19.57 8.72 18.79 8.59Z" fill-opacity="1.000000" fill-rule="nonzero"/>
    </g>
</symbol><symbol viewBox="0 0 20 20" id="todo-icon" xmlns="http://www.w3.org/2000/svg">
    <defs>
        <clipPath id="bcclip84_3012">
            <rect id="bcclipboard 1" width="20.000000" height="20.000000" fill-opacity="0"/>
        </clipPath>
    </defs>
    <rect id="bcclipboard 1" width="20.000000" height="20.000000" fill-opacity="0"/>
    <g clip-path="url(#bcclip84_3012)">
        <path id="bcVector" d="M15.85 2.62L14.04 2.62L14.04 1.81C14.04 1.54 13.76 1.43 13.49 1.43L12.09 1.43C11.76 0.47 10.92 0 9.97 0C9.03 -0.04 8.17 0.54 7.85 1.43L6.47 1.43C6.21 1.43 5.95 1.54 5.95 1.81L5.95 2.62L4.14 2.62C3.07 2.63 2.19 3.47 2.14 4.54L2.14 18.19C2.14 19.23 3.09 20 4.14 20L15.85 20C16.9 20 17.85 19.23 17.85 18.19L17.85 4.54C17.8 3.47 16.92 2.63 15.85 2.62ZM6.9 2.38L8.21 2.38C8.44 2.35 8.62 2.18 8.66 1.95C8.8 1.33 9.34 0.89 9.97 0.88C10.59 0.9 11.12 1.34 11.26 1.95C11.3 2.18 11.5 2.36 11.73 2.38L13.09 2.38L13.09 4.28L6.9 4.28L6.9 2.38ZM16.9 18.19C16.9 18.71 16.37 19.04 15.85 19.04L4.14 19.04C3.61 19.04 3.09 18.71 3.09 18.19L3.09 4.54C3.14 4 3.59 3.58 4.14 3.57L5.95 3.57L5.95 4.78C5.97 5.05 6.2 5.25 6.47 5.23L13.49 5.23C13.77 5.25 14 5.05 14.04 4.78L14.04 3.57L15.85 3.57C16.4 3.58 16.85 4 16.9 4.54L16.9 18.19L16.9 18.19Z" fill-opacity="1.000000" fill-rule="nonzero"/>
        <path id="bcVector" d="M8.16 10.64C7.98 10.45 7.68 10.44 7.49 10.61L5.97 12.07L5.33 11.4C5.15 11.21 4.85 11.2 4.66 11.38C4.48 11.57 4.48 11.87 4.66 12.07L5.64 13.07C5.72 13.16 5.84 13.21 5.97 13.21C6.1 13.21 6.22 13.16 6.3 13.07L8.16 11.31C8.34 11.14 8.36 10.85 8.19 10.67C8.18 10.66 8.17 10.65 8.16 10.64Z" fill-opacity="1.000000" fill-rule="nonzero"/>
        <path id="bcVector" d="M14.99 11.66L9.52 11.66C9.25 11.66 9.04 11.88 9.04 12.14C9.04 12.4 9.25 12.61 9.52 12.61L14.99 12.61C15.26 12.61 15.47 12.4 15.47 12.14C15.47 11.88 15.26 11.66 14.99 11.66Z" fill-opacity="1.000000" fill-rule="nonzero"/>
        <path id="bcVector" d="M8.16 6.83C7.98 6.64 7.68 6.63 7.49 6.81L5.97 8.26L5.33 7.59C5.15 7.4 4.85 7.39 4.66 7.57C4.48 7.76 4.48 8.06 4.66 8.26L5.64 9.26C5.72 9.35 5.84 9.4 5.97 9.4C6.1 9.4 6.22 9.35 6.3 9.26L8.16 7.5C8.34 7.33 8.36 7.04 8.19 6.86C8.18 6.85 8.17 6.84 8.16 6.83Z" fill-opacity="1.000000" fill-rule="nonzero"/>
        <path id="bcVector" d="M14.99 7.85L9.52 7.85C9.25 7.85 9.04 8.07 9.04 8.33C9.04 8.59 9.25 8.81 9.52 8.81L14.99 8.81C15.26 8.81 15.47 8.59 15.47 8.33C15.47 8.07 15.26 7.85 14.99 7.85Z" fill-opacity="1.000000" fill-rule="nonzero"/>
        <path id="bcVector" d="M8.16 14.45C7.98 14.26 7.68 14.25 7.49 14.42L5.97 15.88L5.33 15.21C5.15 15.02 4.85 15.01 4.66 15.19C4.48 15.38 4.48 15.68 4.66 15.88L5.64 16.88C5.72 16.97 5.84 17.02 5.97 17.02C6.1 17.02 6.22 16.97 6.3 16.88L8.16 15.11C8.34 14.95 8.36 14.66 8.19 14.48C8.18 14.47 8.17 14.46 8.16 14.45Z" fill-opacity="1.000000" fill-rule="nonzero"/>
        <path id="bcVector" d="M14.99 15.47L9.52 15.47C9.25 15.47 9.04 15.68 9.04 15.95C9.04 16.21 9.25 16.42 9.52 16.42L14.99 16.42C15.26 16.42 15.47 16.21 15.47 15.95C15.47 15.68 15.26 15.47 14.99 15.47Z" fill-opacity="1.000000" fill-rule="nonzero"/>
    </g>
</symbol><symbol viewBox="0 0 20 20" id="top-arrow" xmlns="http://www.w3.org/2000/svg">
    <g clip-path="url(#bdclip0_25_540)">
        <path d="M8.5961 18.7979C8.58282 18.716 8.57669 18.6332 8.57777 18.5504V4.44077L8.43467 4.74843C8.29233 5.04917 8.09861 5.32275 7.86227 5.55694L3.90558 9.51363C3.40814 10.0347 2.6079 10.1223 2.00952 9.72112C1.37188 9.25422 1.23343 8.35882 1.70034 7.72113C1.73808 7.66962 1.77922 7.62065 1.82349 7.57464L8.97844 0.419694C9.53698 -0.139465 10.443 -0.139957 11.0022 0.418576C11.0025 0.418933 11.0029 0.419336 11.0033 0.419694L18.1582 7.57464C18.7163 8.13424 18.715 9.04028 18.1554 9.59837C18.1114 9.64228 18.0645 9.68329 18.0151 9.72112C17.4168 10.1223 16.6165 10.0347 16.1191 9.51363L12.1552 5.5641C11.9451 5.35415 11.7688 5.11275 11.6329 4.8486L11.4397 4.41931V18.4716C11.4669 19.2026 10.9563 19.844 10.2377 19.9813C9.4576 20.1078 8.72265 19.578 8.5961 18.7979Z"/>
    </g>
    <defs>
        <clipPath id="bdclip0_25_540">
            <rect width="20" height="20" transform="matrix(0 1 1 0 0 0)"/>
        </clipPath>
    </defs>
</symbol></svg>