<svg width="16.000000" height="15.000000" viewBox="0 0 16 15" fill="none" xmlns="http://www.w3.org/2000/svg" xmlns:xlink="http://www.w3.org/1999/xlink">
	<defs/>
	<path id="Vector" d="M15.9 2.34C15.81 2.21 15.66 2.13 15.5 2.12L5.58 1.69C5.29 1.68 5.06 1.9 5.04 2.18C5.03 2.46 5.25 2.7 5.53 2.72L14.79 3.12L12.97 8.79L4.87 8.79L3.41 0.83C3.38 0.65 3.26 0.51 3.09 0.44L0.7 -0.5C0.43 -0.6 0.13 -0.47 0.03 -0.21C-0.07 0.06 0.06 0.35 0.32 0.46L2.45 1.29L3.94 9.4C3.98 9.64 4.2 9.82 4.44 9.82L4.69 9.82L4.13 11.38C4.08 11.52 4.1 11.66 4.18 11.78C4.26 11.89 4.39 11.96 4.53 11.96L4.93 11.96C4.68 12.23 4.53 12.59 4.53 12.98C4.53 13.83 5.22 14.52 6.07 14.52C6.92 14.52 7.61 13.83 7.61 12.98C7.61 12.59 7.46 12.23 7.21 11.96L10.57 11.96C10.33 12.23 10.18 12.59 10.18 12.98C10.18 13.83 10.87 14.52 11.72 14.52C12.57 14.52 13.26 13.83 13.26 12.98C13.26 12.59 13.11 12.23 12.86 11.96L13.34 11.96C13.58 11.96 13.77 11.77 13.77 11.53C13.77 11.29 13.58 11.1 13.34 11.1L5.14 11.1L5.6 9.82L13.34 9.82C13.57 9.82 13.76 9.67 13.83 9.46L15.97 2.79C16.02 2.64 15.99 2.47 15.9 2.34ZM6.07 13.67C5.69 13.67 5.39 13.36 5.39 12.98C5.39 12.61 5.69 12.3 6.07 12.3C6.45 12.3 6.75 12.61 6.75 12.98C6.75 13.36 6.45 13.67 6.07 13.67ZM11.72 13.67C11.34 13.67 11.03 13.36 11.03 12.98C11.03 12.61 11.34 12.3 11.72 12.3C12.09 12.3 12.4 12.61 12.4 12.98C12.4 13.36 12.09 13.67 11.72 13.67Z" fill="#8C3213" fill-opacity="1.000000" fill-rule="nonzero"/>
</svg>
