<svg width="16" height="15" fill="none" xmlns="http://www.w3.org/2000/svg"><path d="M15.9 2.34a.526.526 0 00-.4-.22l-9.92-.43a.522.522 0 00-.54.49c-.01.28.21.52.49.54l9.26.4-1.82 5.67h-8.1L3.41.83a.51.51 0 00-.32-.39L.7-.5C.43-.6.13-.47.03-.21c-.1.27.03.56.29.67l2.13.83L3.94 9.4c.04.24.26.42.5.42h.25l-.56 1.56c-.05.14-.03.28.05.4.08.11.21.18.35.18h.4c-.25.27-.4.63-.4 1.02a1.54 1.54 0 003.08 0c0-.39-.15-.75-.4-1.02h3.36a1.538 1.538 0 001.15 2.56c.85 0 1.54-.69 1.54-1.54 0-.39-.15-.75-.4-1.02h.48c.24 0 .43-.19.43-.43s-.19-.43-.43-.43h-8.2l.46-1.28h7.74c.23 0 .42-.15.49-.36l2.14-6.67c.05-.15.02-.32-.07-.45zM6.07 13.67c-.38 0-.68-.31-.68-.69a.68.68 0 011.36 0c0 .38-.3.69-.68.69zm5.65 0c-.38 0-.69-.31-.69-.69 0-.37.31-.68.69-.68.37 0 .68.31.68.68 0 .38-.31.69-.68.69z" fill="#8C3213"/></svg>