<svg width="30" height="30" fill="none" xmlns="http://www.w3.org/2000/svg"><defs><clipPath id="a"><path fill="#fff" fill-opacity="0" d="M0 0h30v30H0z"/></clipPath></defs><path d="M0 0h30v30H0z"/><g clip-path="url(#a)"><path d="M18.3 15L29.52 3.78c.31-.31.48-.72.48-1.16 0-.44-.17-.85-.48-1.16l-.99-.99c-.31-.3-.72-.47-1.16-.47-.44 0-.85.17-1.16.47L15 11.69 3.78.47C3.47.17 3.06 0 2.62 0c-.44 0-.85.17-1.16.47l-.98.99c-.65.64-.65 1.68 0 2.32L11.69 15 .48 26.21c-.31.31-.48.72-.48 1.16 0 .44.17.85.48 1.16l.98.99c.31.3.72.47 1.16.47.44 0 .85-.17 1.16-.47L15 18.3l11.21 11.22c.31.3.72.47 1.16.47.44 0 .85-.17 1.16-.47l.98-.99c.31-.31.49-.72.49-1.16 0-.44-.18-.85-.49-1.16L18.3 15z" fill="#FFF" fill-opacity=".6"/></g></svg>