<svg width="16" height="15" fill="none" xmlns="http://www.w3.org/2000/svg"><path d="M15.93 8.76l-2.7-4.49 2.42-.67c.25-.07.4-.33.33-.58a.473.473 0 00-.58-.33l-3.01.84-3.93 1.09V-.54a.465.465 0 00-.93 0v5.42L3.36 6.04l-3.02.84a.467.467 0 10.25.9l1.88-.52-2.41 4.01c-.04.08-.06.16-.06.24C0 13.43 1.56 15 3.48 15s3.48-1.57 3.48-3.49a.55.55 0 00-.07-.24L4.2 6.78l7.31-2.03L9.1 8.76a.55.55 0 00-.07.24c0 1.92 1.56 3.48 3.48 3.48.93 0 1.81-.36 2.47-1.01C15.63 10.81 16 9.93 16 9a.55.55 0 00-.07-.24zm-12.45 5.3c-1.25 0-2.28-.9-2.5-2.08h5a2.553 2.553 0 01-2.5 2.08zm2.18-3.01H1.29L3.48 7.4l2.18 3.65zm6.85-6.16l2.19 3.64h-4.37l2.18-3.64zm0 6.66c-1.24 0-2.28-.9-2.5-2.08h5a2.545 2.545 0 01-2.5 2.08z" fill="#8C3213"/></svg>