<svg width="16.000000" height="15.000000" viewBox="0 0 16 15" fill="none" xmlns="http://www.w3.org/2000/svg" xmlns:xlink="http://www.w3.org/1999/xlink">
	<defs/>
	<path id="Vector" d="M15.93 8.76L13.23 4.27L15.65 3.6C15.9 3.53 16.05 3.27 15.98 3.02C15.91 2.77 15.65 2.62 15.4 2.69L12.39 3.53C12.39 3.53 12.39 3.53 12.39 3.53L8.46 4.62L8.46 -0.54C8.46 -0.79 8.25 -1 8 -1C7.74 -1 7.53 -0.79 7.53 -0.54L7.53 4.88L3.36 6.04C3.36 6.04 3.36 6.04 3.36 6.04L0.34 6.88C0.09 6.95 -0.06 7.21 0.01 7.45C0.07 7.66 0.26 7.8 0.46 7.8C0.51 7.8 0.55 7.79 0.59 7.78L2.47 7.26L0.06 11.27C0.02 11.35 0 11.43 0 11.51C0 13.43 1.56 15 3.48 15C5.4 15 6.96 13.43 6.96 11.51C6.96 11.43 6.93 11.35 6.89 11.27L4.2 6.78L11.51 4.75L9.1 8.76C9.06 8.84 9.03 8.92 9.03 9C9.03 10.92 10.59 12.48 12.51 12.48C13.44 12.48 14.32 12.12 14.98 11.47C15.63 10.81 16 9.93 16 9C16 8.92 15.97 8.84 15.93 8.76ZM3.48 14.06C2.23 14.06 1.2 13.16 0.98 11.98L5.98 11.98C5.76 13.16 4.72 14.06 3.48 14.06ZM5.66 11.05L1.29 11.05L3.48 7.4L5.66 11.05ZM12.51 4.89L14.7 8.53L10.33 8.53L12.51 4.89ZM12.51 11.55C11.27 11.55 10.23 10.65 10.01 9.47L15.01 9.47C14.79 10.65 13.76 11.55 12.51 11.55Z" fill="#8C3213" fill-opacity="1.000000" fill-rule="nonzero"/>
</svg>
