<svg width="17.000000" height="17.000000" viewBox="0 0 17 17" fill="none" xmlns="http://www.w3.org/2000/svg" xmlns:xlink="http://www.w3.org/1999/xlink">
	<defs/>
	<path id="Vector" d="M1.33 11.33L1.33 13C1.33 14.84 2.82 16.33 4.66 16.33L12.99 16.33C14.84 16.33 16.33 14.84 16.33 13C16.33 10.22 16.33 5.77 16.33 3C16.33 1.15 14.84 -0.34 12.99 -0.34C10.61 -0.34 7.04 -0.34 4.66 -0.34C2.82 -0.34 1.33 1.15 1.33 3L1.33 4.66C1.33 5.12 1.7 5.5 2.16 5.5C2.62 5.5 2.99 5.12 2.99 4.66C2.99 4.66 2.99 3.88 2.99 3C2.99 2.07 3.74 1.33 4.66 1.33L12.99 1.33C13.91 1.33 14.66 2.07 14.66 3L14.66 13C14.66 13.92 13.91 14.66 12.99 14.66C10.61 14.66 7.04 14.66 4.66 14.66C3.74 14.66 2.99 13.92 2.99 13C2.99 12.11 2.99 11.33 2.99 11.33C2.99 10.87 2.62 10.5 2.16 10.5C1.7 10.5 1.33 10.87 1.33 11.33ZM7.65 7.16L6.57 6.09C6.25 5.76 6.25 5.23 6.57 4.91C6.9 4.58 7.43 4.58 7.75 4.91L10.25 7.41C10.58 7.73 10.58 8.26 10.25 8.59L7.75 11.09C7.43 11.41 6.9 11.41 6.57 11.09C6.25 10.76 6.25 10.23 6.57 9.91L7.65 8.83L0.49 8.83C0.03 8.83 -0.34 8.45 -0.34 8C-0.34 7.54 0.03 7.16 0.49 7.16L7.65 7.16Z" fill="#84BE51" fill-opacity="1.000000" fill-rule="evenodd"/>
</svg>

