<svg width="17" height="17" fill="none" xmlns="http://www.w3.org/2000/svg"><path d="M1.33 11.33V13c0 1.84 1.49 3.33 3.33 3.33h8.33c1.85 0 3.34-1.49 3.34-3.33V3c0-1.85-1.49-3.34-3.34-3.34H4.66C2.82-.34 1.33 1.15 1.33 3v1.66c0 .46.37.84.83.84.46 0 .83-.38.83-.84V3c0-.93.75-1.67 1.67-1.67h8.33c.92 0 1.67.74 1.67 1.67v10c0 .92-.75 1.66-1.67 1.66H4.66c-.92 0-1.67-.74-1.67-1.66v-1.67c0-.46-.37-.83-.83-.83-.46 0-.83.37-.83.83zm6.32-4.17L6.57 6.09a.845.845 0 010-1.18c.33-.33.86-.33 1.18 0l2.5 2.5c.33.32.33.85 0 1.18l-2.5 2.5c-.32.32-.85.32-1.18 0a.845.845 0 010-1.18l1.08-1.08H.49a.834.834 0 010-1.67h7.16z" fill="#84BE51" fill-rule="evenodd"/></svg>