<svg width="67" height="54" fill="none" xmlns="http://www.w3.org/2000/svg"><path d="M66.581.074C66.37 0 66.158 0 65.911 0H48.358v.037H37.75c-9.94.368-17.447 2.946-22.452 7.66-.247.22-.458.441-.705.662-2.82 2.91-4.758 6.555-5.886 10.937L0 53.985h28.903c9.904-.368 17.376-2.91 22.381-7.623.247-.22.458-.442.705-.663 2.855-2.909 4.829-6.591 5.921-11.01L66.652.037c-.036.037-.036.037-.07.037zM40.64 30.049c-.634 2.504-1.797 4.603-3.454 6.26-.211.22-.458.479-.705.663l-.423.331c-1.938 1.547-4.194 2.43-6.732 2.652h-7.507l4.194-15.945c.634-2.468 1.762-4.53 3.384-6.187.211-.22.458-.479.705-.663.14-.147.317-.294.493-.405 1.939-1.546 4.194-2.43 6.732-2.651h7.543l-4.23 15.945z" fill="#84C551"/></svg>