<svg width="20" height="20" fill="none" xmlns="http://www.w3.org/2000/svg"><defs><clipPath id="a"><path fill="#fff" fill-opacity="0" d="M0 0h20v20H0z"/></clipPath></defs><path d="M0 0h20v20H0z"/><g clip-path="url(#a)" fill="#8C3213" fill-rule="evenodd"><path d="M9.99 0c-4.2 0-7.62 3.45-7.62 7.65a7.6 7.6 0 001.53 4.58l5.45 6.95.64.82.63-.82 5.46-6.96a7.54 7.54 0 001.52-4.57C17.6 3.45 14.19 0 9.99 0zm0 18.37l5.31-6.77q.29-.39.52-.82.27-.49.45-1.03.1-.32.17-.64.16-.71.16-1.46 0-.71-.14-1.38-.13-.61-.38-1.2-.23-.55-.55-1.05-.37-.57-.87-1.07-.52-.52-1.13-.92-.46-.29-.97-.51-.58-.25-1.19-.38Q10.69 1 9.99 1q-.71 0-1.39.14-.6.13-1.18.38-.51.22-.98.51-.61.4-1.13.92-.49.5-.86 1.07-.33.5-.56 1.05-.25.59-.38 1.2-.14.67-.14 1.38 0 .75.16 1.46.07.32.18.64.1.3.23.59.3.68.76 1.29l5.29 6.74zM5 6.57q-.11.53-.11 1.08T5 8.73q.1.46.29.91.18.43.43.81.29.43.66.81.38.37.81.66.38.25.81.43.44.19.91.29.53.11 1.08.11t1.08-.11q.46-.1.9-.29.43-.18.82-.43.43-.29.8-.66.38-.38.66-.81.25-.38.44-.81.18-.45.29-.91.11-.53.11-1.08t-.11-1.08q-.11-.46-.29-.9-.19-.43-.44-.82-.28-.43-.66-.8-.37-.38-.8-.66-.39-.26-.82-.44-.44-.19-.9-.29-.53-.11-1.08-.11t-1.08.11q-.47.1-.91.29-.43.18-.81.44-.43.28-.81.66-.37.37-.66.8-.25.39-.43.82-.19.44-.29.9zm4.99 5.18c-2.26 0-4.1-1.84-4.1-4.1s1.84-4.1 4.1-4.1 4.1 1.84 4.1 4.1-1.84 4.1-4.1 4.1z"/><path d="M7.06 7.65c0-1.61 1.31-2.93 2.93-2.93a2.94 2.94 0 012.93 2.93c0 1.62-1.32 2.93-2.93 2.93-1.62 0-2.93-1.31-2.93-2.93zm1.04.43q-.04-.21-.04-.43t.04-.43q.04-.16.11-.32.06-.15.15-.29.12-.17.26-.32.15-.15.33-.26.13-.09.29-.16.15-.06.32-.1.21-.05.43-.05t.43.05q.16.04.32.1.15.07.29.16.17.11.32.26.15.15.26.32.09.14.15.29.07.16.11.32.05.21.05.43t-.05.43q-.04.16-.11.32-.06.15-.15.29-.11.18-.26.32-.15.15-.32.27-.14.08-.29.15-.16.07-.32.1-.21.05-.43.05t-.43-.05q-.17-.03-.32-.1-.16-.07-.29-.15-.18-.12-.33-.27-.14-.14-.26-.32-.09-.14-.15-.29-.07-.16-.11-.32z"/></g></svg>