<svg width="12" height="12" fill="none" xmlns="http://www.w3.org/2000/svg"><defs><clipPath id="a"><path fill="#fff" fill-opacity="0" d="M0 0h12v12H0z"/></clipPath></defs><path d="M0 0h12v12H0z"/><g clip-path="url(#a)" fill="#84C551"><path d="M11.98 3.37a.606.606 0 00-.21-.39L8.09.12a.562.562 0 00-.8.1L3.73 4.75 1.37 6.33l-.66.44-.45.3c-.01.01-.02.02-.03.02-.11.09-.19.21-.22.35-.03.15 0 .31.09.43l.55.82.19.29 1.11 1.66.19.27.56.83c.11.17.29.26.47.26.11 0 .23-.04.32-.1l1.09-.73.47.38a.578.578 0 00.81-.1l1.87-2.39 2.74-1.83.01-.01 1.1-.74a.567.567 0 00.16-.8l-.63-.93.75-.96c.1-.12.14-.27.12-.42zM1.55 7.74c-.07.35-.25.66-.52.89L.47 7.8l-.08-.12a.25.25 0 01-.03-.17c.01-.05.04-.1.08-.13l.01-.01.32-.21.64-.43c.16.31.21.66.14 1.01zm1.75 3.87c-.1.06-.24.04-.31-.07l-.01-.01-.63-.93c.64-.34 1.44-.18 1.9.37l-.95.64zm2.28-.38c-.07.1-.21.12-.31.04l-.39-.3 1.91-1.28-1.21 1.54zm4.71-5.42c.07-.35.25-.66.52-.88l.64.95c.03.05.04.11.03.17-.01.06-.04.11-.09.14l-.96.64c-.16-.31-.21-.67-.14-1.02zm1.3-2.23l-.68.86-1.76-2.62a.571.571 0 00-.8-.16L6.79 2.7c-.19.13.01.42.2.29l.3-.2a1.922 1.922 0 002.4.47l.92 1.37c-.34.28-.58.67-.66 1.11-.09.45-.02.89.19 1.28L7.51 8.78l-2.96 1.99a1.92 1.92 0 00-2.4-.47l-.92-1.38c.34-.28.58-.67.67-1.11.08-.44.01-.89-.2-1.28l4.47-2.99c.19-.13-.01-.42-.2-.29l-1.3.87L7.56.43c.08-.09.22-.11.32-.04l3.67 2.87c.05.04.08.09.08.15.01.06-.01.12-.04.17zM8.54 1.95c.11-.07.25-.04.31.06l.33.48.31.47c-.64.34-1.44.18-1.9-.37l.95-.64z"/><path d="M4.63 4.86c-.51.34-.86.87-.98 1.47-.11.61.01 1.22.35 1.73.35.52.87.86 1.48.98.22.04.29-.3.07-.34-.52-.1-.96-.4-1.26-.83a1.967 1.967 0 01.54-2.72c.9-.6 2.12-.36 2.72.54.29.43.39.95.29 1.47-.1.51-.39.95-.83 1.24-.17.12-.36.2-.55.26-.22.06-.12.4.09.34.24-.07.45-.17.66-.31.51-.34.86-.86.98-1.47.12-.6-.01-1.21-.35-1.73a2.324 2.324 0 00-3.21-.63zm3.97.3c.03 0 .06-.01.1-.03l.82-.55c.08-.06.1-.17.05-.25a.165.165 0 00-.24-.04l-.83.55c-.08.05-.1.16-.05.24.04.05.09.08.15.08zM3.15 8.42l-.83.56c-.08.05-.1.16-.05.24.03.05.09.08.15.08.03 0 .06-.01.09-.03l.83-.55c.08-.06.1-.17.05-.25a.175.175 0 00-.24-.05z"/><path d="M6.54 8.05c.14.2.42-.01.3-.2l-.1-.14c.26-.26.26-.62.15-.88-.19-.42-.58-.45-.98-.36l-.4-.59c.1-.04.18-.03.19-.03.22.04.27-.31.05-.34-.01-.01-.21-.03-.44.07l-.08-.12c-.12-.19-.42.01-.29.2l.08.12c-.18.2-.23.49-.13.74.16.36.51.4.86.34l.51.77c-.1.05-.18.07-.34.07-.22 0-.21.36.01.35.24 0 .38-.04.53-.13l.08.13zM5.4 6.54c-.07-.01-.14-.07-.18-.16a.3.3 0 01.01-.29l.3.45H5.4zm.73.24c.29-.08.41.13.44.2.05.12.06.29-.03.43l-.42-.63h.01z"/></g></svg>