<svg width="12.000000" height="12.000000" viewBox="0 0 12 12" fill="none" xmlns="http://www.w3.org/2000/svg" xmlns:xlink="http://www.w3.org/1999/xlink">
	<defs>
		<clipPath id="clip48_2702">
			<rect id="money (4) 1" width="12.000000" height="12.000000" fill="white" fill-opacity="0"/>
		</clipPath>
	</defs>
	<rect id="money (4) 1" width="12.000000" height="12.000000" fill="#FFFFFF" fill-opacity="0"/>
	<g clip-path="url(#clip48_2702)">
		<path id="Vector" d="M11.98 3.37C11.96 3.22 11.89 3.08 11.77 2.98L8.09 0.12C7.84 -0.08 7.48 -0.03 7.29 0.22L3.73 4.75L1.37 6.33C1.37 6.33 1.37 6.33 1.37 6.33L0.71 6.77L0.26 7.07C0.25 7.08 0.24 7.09 0.23 7.09C0.12 7.18 0.04 7.3 0.01 7.44C-0.02 7.59 0.01 7.75 0.1 7.87L0.1 7.87C0.1 7.87 0.1 7.87 0.1 7.87L0.65 8.69L0.84 8.98L1.95 10.64C1.95 10.64 1.95 10.64 1.95 10.64L2.14 10.91L2.7 11.74C2.81 11.91 2.99 12 3.17 12C3.28 12 3.4 11.96 3.49 11.9L3.49 11.9C3.49 11.9 3.49 11.9 3.49 11.9L4.58 11.17L5.05 11.55C5.16 11.63 5.28 11.67 5.41 11.67C5.58 11.67 5.75 11.59 5.86 11.45L7.73 9.06L10.47 7.23C10.47 7.23 10.47 7.23 10.48 7.22L11.58 6.48C11.71 6.4 11.8 6.27 11.83 6.12C11.86 5.96 11.83 5.81 11.74 5.68L11.74 5.68C11.74 5.68 11.74 5.68 11.74 5.68L11.11 4.75L11.86 3.79C11.96 3.67 12 3.52 11.98 3.37ZM1.55 7.74C1.48 8.09 1.3 8.4 1.03 8.63L0.47 7.8L0.39 7.68C0.36 7.63 0.35 7.57 0.36 7.51C0.37 7.46 0.4 7.41 0.44 7.38C0.44 7.38 0.45 7.37 0.45 7.37L0.77 7.16L1.41 6.73C1.57 7.04 1.62 7.39 1.55 7.74ZM3.3 11.61C3.2 11.67 3.06 11.65 2.99 11.54L2.98 11.53L2.35 10.6C2.99 10.26 3.79 10.42 4.25 10.97L3.3 11.61ZM5.58 11.23C5.51 11.33 5.37 11.35 5.27 11.27L4.88 10.97L6.79 9.69L5.58 11.23ZM10.29 5.81C10.36 5.46 10.54 5.15 10.81 4.93L11.45 5.88C11.48 5.93 11.49 5.99 11.48 6.05C11.47 6.11 11.44 6.16 11.39 6.19L10.43 6.83C10.27 6.52 10.22 6.16 10.29 5.81ZM11.59 3.58L10.91 4.44L9.15 1.82C8.97 1.55 8.61 1.48 8.35 1.66L6.79 2.7C6.6 2.83 6.8 3.12 6.99 2.99L7.29 2.79C7.66 3.24 8.21 3.49 8.77 3.49C9.09 3.49 9.4 3.41 9.69 3.26L10.61 4.63C10.27 4.91 10.03 5.3 9.95 5.74C9.86 6.19 9.93 6.63 10.14 7.02L7.51 8.78C7.51 8.78 7.51 8.78 7.51 8.78L4.55 10.77C3.97 10.06 2.96 9.86 2.15 10.3L1.23 8.92C1.57 8.64 1.81 8.25 1.9 7.81C1.98 7.37 1.91 6.92 1.7 6.53L6.17 3.54C6.36 3.41 6.16 3.12 5.97 3.25L4.67 4.12L7.56 0.43C7.64 0.34 7.78 0.32 7.88 0.39L11.55 3.26C11.6 3.3 11.63 3.35 11.63 3.41C11.64 3.47 11.62 3.53 11.59 3.58ZM8.54 1.95C8.65 1.88 8.79 1.91 8.85 2.01L9.18 2.49L9.49 2.96C8.85 3.3 8.05 3.14 7.59 2.59L8.54 1.95Z" fill="#84C551" fill-opacity="1.000000" fill-rule="nonzero"/>
		<path id="Vector" d="M4.63 4.86C4.12 5.2 3.77 5.73 3.65 6.33C3.54 6.94 3.66 7.55 4 8.06C4.35 8.58 4.87 8.92 5.48 9.04C5.7 9.08 5.77 8.74 5.55 8.7C5.03 8.6 4.59 8.3 4.29 7.87C4 7.43 3.9 6.91 4 6.4C4.1 5.89 4.4 5.44 4.83 5.15C5.73 4.55 6.95 4.79 7.55 5.69C7.84 6.12 7.94 6.64 7.84 7.16C7.74 7.67 7.45 8.11 7.01 8.4C6.84 8.52 6.65 8.6 6.46 8.66C6.24 8.72 6.34 9.06 6.55 9C6.79 8.93 7 8.83 7.21 8.69C7.72 8.35 8.07 7.83 8.19 7.22C8.31 6.62 8.18 6.01 7.84 5.49C7.13 4.44 5.69 4.15 4.63 4.86Z" fill="#84C551" fill-opacity="1.000000" fill-rule="nonzero"/>
		<path id="Vector" d="M8.6 5.16C8.63 5.16 8.66 5.15 8.7 5.13L9.52 4.58C9.6 4.52 9.62 4.41 9.57 4.33C9.52 4.25 9.41 4.23 9.33 4.29L8.5 4.84C8.42 4.89 8.4 5 8.45 5.08C8.49 5.13 8.54 5.16 8.6 5.16Z" fill="#84C551" fill-opacity="1.000000" fill-rule="nonzero"/>
		<path id="Vector" d="M3.15 8.42L2.32 8.98C2.24 9.03 2.22 9.14 2.27 9.22C2.3 9.27 2.36 9.3 2.42 9.3C2.45 9.3 2.48 9.29 2.51 9.27L3.34 8.72C3.42 8.66 3.44 8.55 3.39 8.47C3.34 8.39 3.23 8.37 3.15 8.42Z" fill="#84C551" fill-opacity="1.000000" fill-rule="nonzero"/>
		<path id="Vector" d="M6.54 8.05C6.68 8.25 6.96 8.04 6.84 7.85L6.74 7.71C7 7.45 7 7.09 6.89 6.83C6.7 6.41 6.31 6.38 5.91 6.47L5.51 5.88C5.61 5.84 5.69 5.85 5.7 5.85C5.92 5.89 5.97 5.54 5.75 5.51C5.74 5.5 5.54 5.48 5.31 5.58L5.23 5.46C5.11 5.27 4.81 5.47 4.94 5.66L5.02 5.78C4.84 5.98 4.79 6.27 4.89 6.52C5.05 6.88 5.4 6.92 5.75 6.86L6.26 7.63C6.16 7.68 6.08 7.7 5.92 7.7C5.7 7.7 5.71 8.06 5.93 8.05C6.17 8.05 6.31 8.01 6.46 7.92L6.54 8.05ZM5.4 6.54C5.33 6.53 5.26 6.47 5.22 6.38C5.18 6.3 5.17 6.19 5.23 6.09L5.53 6.54C5.48 6.54 5.44 6.54 5.4 6.54ZM6.13 6.78C6.42 6.7 6.54 6.91 6.57 6.98C6.62 7.1 6.63 7.27 6.54 7.41L6.12 6.78C6.12 6.78 6.12 6.78 6.13 6.78Z" fill="#84C551" fill-opacity="1.000000" fill-rule="nonzero"/>
	</g>
</svg>
