<svg width="16" height="16" fill="none" xmlns="http://www.w3.org/2000/svg"><defs><clipPath id="a"><path fill="#fff" fill-opacity="0" d="M0 0h16v16H0z"/></clipPath></defs><path d="M0 0h16v16H0z"/><g clip-path="url(#a)" fill="#8C3213"><path d="M12.19 14.54L10 10.67a.114.114 0 01-.03-.08.139.139 0 010-.09c0-.03.02-.06.03-.08.02-.02.05-.05.07-.06l.09-.03c.03 0 .06 0 .09.01.02.01.05.03.07.05.03.01.04.04.06.07l2.19 3.87-.38.21zM7.16 5.45c-.04 0-.07-.01-.11-.03a.304.304 0 01-.08-.08L4.78 1.47l.38-.22 2.19 3.87c.03.05.04.11.02.17-.01.05-.05.1-.1.12a.21.21 0 01-.11.04z"/><path d="M10.05 15.19c-.32.01-.64-.03-.96-.1-3.13-.87-7.23-8.11-6.37-11.24.39-1.1 1.15-2.05 2.14-2.67.19-.12.39-.22.58-.31.18-.08.39-.1.57-.03.19.06.35.19.44.36L8.1 4.11c.05.09.09.2.1.31.01.11 0 .22-.04.32-.03.1-.09.2-.16.28a.83.83 0 01-.27.19c-.16.07-.32.15-.47.23-.66.33-1.04.63-1.12.89-.2.62.03 1.67.6 2.68.57 1.01 1.34 1.75 1.99 1.88.18.05.58 0 1.34-.5.14-.09.29-.19.43-.29.09-.07.19-.11.3-.13.11-.02.22-.02.33 0 .11.03.21.07.29.14.09.06.17.15.22.24l1.65 2.91c.1.17.13.37.08.57-.04.19-.16.36-.32.47-.18.12-.37.23-.56.34-.76.38-1.6.57-2.44.55zM5.77 1.23c-.05 0-.1.01-.14.03-.18.08-.37.18-.55.29-.89.57-1.58 1.42-1.94 2.42-.37 1.33.28 3.74 1.64 6.14 1.36 2.4 3.1 4.19 4.43 4.56 1.04.2 2.12.05 3.07-.42.18-.1.36-.21.53-.32.07-.05.12-.13.14-.21.02-.09 0-.17-.04-.25l-1.65-2.91a.313.313 0 00-.22-.17.43.43 0 00-.16 0c-.05.01-.09.03-.14.06-.14.11-.29.21-.44.29-.74.48-1.27.66-1.68.57-.77-.18-1.62-.96-2.26-2.1-.51-.87-.94-2.14-.65-3.03.13-.39.56-.75 1.35-1.16.15-.09.32-.16.48-.23.05-.02.09-.05.12-.09.04-.04.06-.08.08-.13.02-.04.02-.09.02-.14a.442.442 0 00-.05-.15L6.06 1.37a.268.268 0 00-.13-.1.317.317 0 00-.16-.04z"/></g></svg>