<svg width="24" height="23" fill="none" xmlns="http://www.w3.org/2000/svg"><path d="M3.36 18.13l2.26 1.12v2.53c0 .26.21.47.47.47h4.97c.26 0 .47-.21.47-.47v-6.12c0-1.44-1.08-2.63-2.51-2.77 0 0-1.98-.31-2.9-1.23l-1.05-1.05a1.82 1.82 0 00-1.32-.55V6.31c0-1.04-.85-1.88-1.88-1.88C.84 4.43 0 5.27 0 6.31v6.37c0 1.13.31 2.24.91 3.2.59.96 1.44 1.74 2.45 2.25zM.93 6.31a.939.939 0 111.88 0v4c-.57.33-.94.95-.94 1.62 0 .5.2.97.55 1.33l2.4 2.4c.18.18.48.18.66 0 .19-.18.19-.48 0-.66l-2.4-2.4a.98.98 0 01-.27-.67c0-.39.25-.75.62-.88.33-.12.71-.05.98.22l1.05 1.05c1.09 1.09 3.46 1.5 3.47 1.5.94.09 1.66.88 1.66 1.84v5.65H6.56v-2.35c0-.17-.1-.34-.26-.42l-2.52-1.25a5.129 5.129 0 01-2.85-4.61V6.31zm10.6 4.22c0 .26.21.47.47.47.25 0 .46-.21.46-.47V9.12h1.8c2.63 0 4.77-2.14 4.77-4.77V2.09a.47.47 0 00-.29-.43.441.441 0 00-.51.1c-.52.51-1.21.8-1.94.8-1.56 0-2.96.76-3.83 1.93V.21c0-.26-.21-.47-.46-.47a.47.47 0 00-.47.47v2.4A4.777 4.777 0 007.7.68c-.73 0-1.42-.28-1.94-.8a.47.47 0 00-.8.33v2.27c0 2.63 2.14 4.77 4.77 4.77h1.8v3.28zm4.76-7.04c.64 0 1.26-.16 1.8-.46v1.32c0 2.11-1.72 3.83-3.83 3.83h-.86l2.63-1.97c.2-.15.25-.45.09-.65a.477.477 0 00-.66-.1l-3 2.25v-.38c0-2.12 1.72-3.84 3.83-3.84zM5.9 2.48V1.15c.54.31 1.16.47 1.8.47 2.11 0 3.83 1.72 3.83 3.83v.39l-3-2.25a.475.475 0 00-.66.09c-.16.21-.11.5.09.66l2.63 1.97h-.86c-2.11 0-3.83-1.72-3.83-3.83z" fill="#84BE51"/><path d="M21.98 17c0 .25-.21.46-.47.46s-.47-.21-.47-.46a.47.47 0 11.94 0z" fill="#84BE51" fill-rule="evenodd"/><path d="M22.12 4.43c-1.03 0-1.87.84-1.87 1.88v3.75c-.51 0-.98.19-1.33.55l-1.05 1.05c-.9.9-2.9 1.23-2.9 1.23a2.772 2.772 0 00-2.51 2.77v6.12c0 .26.21.47.47.47h4.97c.26 0 .47-.21.47-.47v-2.53l1.53-.76c.24-.12.33-.4.21-.63a.455.455 0 00-.62-.21l-1.8.89c-.16.08-.26.25-.26.42v2.35H13.4v-5.65c0-.96.72-1.75 1.67-1.84 0 0 2.31-.35 3.46-1.5l1.05-1.05c.27-.27.65-.34.98-.22.37.13.62.49.62.88 0 .25-.1.49-.27.67l-2.4 2.4c-.19.18-.19.48 0 .66.18.18.48.18.66 0l2.4-2.4c.35-.36.55-.83.55-1.33 0-.67-.37-1.29-.94-1.62v-4a.939.939 0 111.88 0v6.37c0 .85-.22 1.7-.63 2.46-.12.22-.04.51.19.63.23.13.51.04.64-.18.48-.9.74-1.9.74-2.91V6.31c0-1.04-.85-1.88-1.88-1.88z" fill="#84BE51"/></svg>