<svg width="20" height="20" fill="none" xmlns="http://www.w3.org/2000/svg"><defs><clipPath id="a"><path fill="#fff" fill-opacity="0" d="M0 0h20v20H0z"/></clipPath></defs><path d="M0 0h20v20H0z"/><g clip-path="url(#a)" fill="#8C3213"><path d="M17.86 3.82h.62a.39.39 0 000-.78H17c-.22 0-.4.17-.4.39v1.48c0 .22.18.39.4.39.21 0 .39-.17.39-.39v-.43A9.228 9.228 0 0119.21 10c0 5.08-4.13 9.21-9.21 9.21C4.91 19.21.78 15.08.78 10 .78 4.91 4.91.78 10 .78c.37 0 .75.02 1.12.06.21.03.41-.12.43-.34a.378.378 0 00-.34-.43C10.81.02 10.4 0 10 0a9.97 9.97 0 00-7.08 2.92A9.928 9.928 0 000 10c0 2.67 1.03 5.18 2.92 7.07A9.98 9.98 0 0010 20c2.67 0 5.18-1.05 7.07-2.93A9.932 9.932 0 0020 10c0-2.26-.76-4.42-2.14-6.18z"/><path d="M4.23 5.89a.389.389 0 00-.54.12 7.53 7.53 0 00-1.11 4.77c.18 1.69.94 3.28 2.14 4.49A7.441 7.441 0 0010 17.45c1.9 0 3.81-.73 5.26-2.18a7.466 7.466 0 000-10.55 7.473 7.473 0 00-4.48-2.14 7.51 7.51 0 00-4.76 1.1.39.39 0 00-.12.54c.11.18.36.24.54.12a6.631 6.631 0 018.27.93 6.681 6.681 0 010 9.45c-2.6 2.6-6.83 2.6-9.44 0-2.19-2.19-2.58-5.68-.92-8.29a.4.4 0 00-.12-.54z"/><path d="M15.07 10.39h.48c.21 0 .39-.17.39-.39 0-.21-.18-.39-.39-.39h-.48a.39.39 0 00-.39.39c0 .22.17.39.39.39zm-11.02-.4c0 .21.18.39.39.39h.48c.22 0 .39-.18.39-.39 0-.22-.17-.39-.39-.39h-.48a.39.39 0 00-.39.39zm6.34-5.07v-.48c0-.22-.17-.39-.39-.39a.39.39 0 00-.39.39v.48c0 .22.18.39.39.39.22 0 .39-.17.39-.39zM9.6 15.07v.48c0 .22.17.39.39.39.21 0 .39-.17.39-.39v-.48a.39.39 0 00-.39-.39c-.22 0-.39.17-.39.39zM8.04 7.49a.387.387 0 00-.56 0c-.15.15-.15.4 0 .55l1.33 1.32A1.342 1.342 0 0010 11.34a1.347 1.347 0 001.18-1.98l2.67-2.67c.15-.15.15-.4 0-.55a.392.392 0 00-.55 0l-2.67 2.67a1.349 1.349 0 00-1.27 0L8.04 7.49zM10.56 10a.566.566 0 11-1.131-.011.566.566 0 011.131.011zM5.28 5.27c.07-.07.11-.17.11-.27s-.04-.2-.11-.28A.43.43 0 005 4.61c-.1 0-.2.04-.28.11a.43.43 0 00-.11.28.395.395 0 00.39.39c.1 0 .2-.04.28-.12zm7.42-4.11c.1 0 .2-.04.28-.11a.43.43 0 00.11-.28.395.395 0 00-.39-.39.395.395 0 00-.39.39c0 .1.04.2.11.28.08.07.18.11.28.11z"/></g></svg>