<svg width="20" height="20" fill="none" xmlns="http://www.w3.org/2000/svg"><path d="M17.26 3.13l1.22-.11-.1-1.16-3.32.27.28 3.33 1.17-.1-.13-1.46a8.75 8.75 0 012.44 6.1c0 2.35-.91 4.57-2.58 6.24A8.809 8.809 0 0110 18.82c-2.36 0-4.58-.92-6.25-2.58A8.767 8.767 0 011.17 10c0-2.36.91-4.58 2.58-6.25A8.814 8.814 0 0110 1.17V0A9.97 9.97 0 000 10c0 2.67 1.04 5.18 2.92 7.07A9.98 9.98 0 0010 20c2.67 0 5.18-1.05 7.07-2.93A9.974 9.974 0 0020 10c0-2.59-.99-5.03-2.74-6.87z" fill="#8C3213"/><path d="M9.41 5.19V3.82a6.216 6.216 0 00-5.59 5.59h1.37v1.17H3.82a6.216 6.216 0 005.59 5.59V14.8h1.17v1.37a6.207 6.207 0 005.59-5.59H14.8V9.41h1.37a6.207 6.207 0 00-5.59-5.59v1.37H9.41zm1.17 5.08l-2.2 1.85-.76-.89 1.79-1.51V6.43h1.17v3.84z" fill="#8C3213"/></svg>