<svg width="20.000000" height="20.000000" viewBox="0 0 20 20" fill="none" xmlns="http://www.w3.org/2000/svg" xmlns:xlink="http://www.w3.org/1999/xlink">
	<defs/>
	<path id="Vector" d="M17.26 3.13L18.48 3.02L18.38 1.86L15.06 2.13L15.34 5.46L16.51 5.36L16.38 3.9C17.95 5.53 18.82 7.7 18.82 10C18.82 12.35 17.91 14.57 16.24 16.24C14.57 17.9 12.35 18.82 10 18.82C7.64 18.82 5.42 17.9 3.75 16.24C2.08 14.57 1.17 12.35 1.17 10C1.17 7.64 2.08 5.42 3.75 3.75C5.42 2.09 7.64 1.17 10 1.17L10 0C7.32 0 4.81 1.04 2.92 2.92C1.04 4.81 0 7.32 0 10C0 12.67 1.04 15.18 2.92 17.07C4.81 18.95 7.32 20 10 20C12.67 20 15.18 18.95 17.07 17.07C18.95 15.18 20 12.67 20 10C20 7.41 19.01 4.97 17.26 3.13Z" fill="#8C3213" fill-opacity="1.000000" fill-rule="nonzero"/>
	<path id="Vector" d="M9.41 5.19L9.41 3.82C6.46 4.1 4.1 6.45 3.82 9.41L5.19 9.41L5.19 10.58L3.82 10.58C4.1 13.54 6.46 15.89 9.41 16.17L9.41 14.8L10.58 14.8L10.58 16.17C13.54 15.89 15.89 13.54 16.17 10.58L14.8 10.58L14.8 9.41L16.17 9.41C15.89 6.45 13.54 4.1 10.58 3.82L10.58 5.19L9.41 5.19ZM10.58 10.27L8.38 12.12L7.62 11.23L9.41 9.72L9.41 6.43L10.58 6.43L10.58 10.27Z" fill="#8C3213" fill-opacity="1.000000" fill-rule="nonzero"/>
</svg>
