<svg width="24" height="24" fill="none" xmlns="http://www.w3.org/2000/svg"><defs><clipPath id="a"><path fill="#fff" fill-opacity="0" d="M0 0h24v24H0z"/></clipPath></defs><path d="M0 0h24v24H0z"/><g clip-path="url(#a)" fill="#84BE51"><path d="M19.77 17.17a.35.35 0 00-.5-.01c-1.63 1.55-3.53 2.93-4.84 3.51-1.28.58-2.69.7-4.04.36.63-.36 1.2-.82 1.68-1.35 2.84-.37 4.87-2.41 4.96-2.5.13-.14.13-.36-.01-.49a.35.35 0 00-.5 0c-.01.02-1.59 1.6-3.8 2.15a6.89 6.89 0 001.14-3.81c0-.25-.02-.53-.04-.83a.348.348 0 00-.38-.32c-.2.01-.34.19-.32.38.02.28.04.54.04.77 0 3.44-2.8 6.23-6.23 6.23A6.23 6.23 0 01.7 15.03c0-1.87.8-5.04 1.9-7.55 1.32-3.02 2.9-4.75 4.33-4.75 1.29 0 2.43 1.37 3.16 2.52a.353.353 0 00.6-.37c-1.2-1.9-2.47-2.86-3.76-2.86-.96 0-1.91.54-2.83 1.59-.76.88-1.49 2.09-2.15 3.59C.8 9.82 0 13.04 0 15.03c0 3.83 3.1 6.94 6.93 6.94.89 0 1.75-.18 2.54-.49.79.3 1.6.44 2.42.44.96 0 1.93-.2 2.83-.61 1.39-.62 3.32-2.02 5.04-3.64a.36.36 0 00.01-.5z"/><path d="M19.32 16.89q-.1.04-.19.12-1.21 1.16-2.52 2.1-1.3.95-2.26 1.38-.58.26-1.19.39-.37.08-.74.12-.44.03-.88.01-.31-.02-.62-.07.23-.15.44-.33.43-.34.81-.75.97-.13 1.94-.53.8-.33 1.58-.84.56-.36 1.05-.78.27-.22.43-.39.08-.08.12-.18.04-.09.04-.21 0-.11-.05-.21-.04-.1-.12-.18-.08-.08-.18-.12-.1-.04-.21-.03-.11 0-.21.04-.1.04-.18.12-.09.09-.28.26-.36.31-.77.59-1.07.75-2.17 1.11.15-.27.27-.56.19-.4.32-.84.13-.41.2-.84.11-.61.11-1.24 0-.38-.04-.85-.01-.12-.06-.21-.05-.09-.14-.17-.09-.07-.19-.1t-.21-.02q-.12.01-.21.06-.09.05-.17.13-.07.09-.1.19t-.02.22q.04.42.04.75 0 .67-.14 1.3-.12.54-.34 1.05-.21.5-.5.95-.34.52-.79.97-.45.44-.97.78-.45.3-.95.51-.51.22-1.04.33-.64.14-1.3.14-.67 0-1.3-.14-.54-.11-1.05-.33-.5-.21-.94-.51-.52-.34-.97-.78-.45-.45-.79-.97-.3-.45-.51-.95-.21-.51-.33-1.05-.14-.63-.14-1.3t.14-1.58q.13-.89.39-1.91.25-1.01.6-2.02.35-1.04.75-1.96.98-2.23 2.09-3.45.54-.59 1.06-.89.52-.29 1-.29.8 0 1.66.78.67.61 1.33 1.65.06.1.15.16t.2.08q.11.03.21.01.11-.02.2-.08.1-.06.16-.14.06-.09.09-.2.02-.11 0-.22-.02-.1-.08-.2-1.77-2.81-3.73-2.94-.1-.01-.19-.01-.08 0-.16.01-1.45.08-2.82 1.65-1.17 1.34-2.18 3.64Q.9 9.1.35 11.31q-.27 1.06-.41 2-.15.97-.15 1.72 0 .79.17 1.53.14.64.4 1.25.25.59.6 1.12.4.62.93 1.14.52.53 1.14.94.53.34 1.12.59.61.26 1.25.4.74.17 1.53.17.74 0 1.45-.15.56-.12 1.09-.32.71.25 1.44.36.49.06.98.06.64 0 1.27-.11.84-.15 1.64-.51 1.07-.48 2.44-1.47 1.36-.99 2.65-2.22.09-.08.13-.17.04-.1.05-.22 0-.11-.04-.21-.04-.1-.12-.18-.07-.08-.17-.13-.1-.04-.21-.04-.12 0-.21.03zm-9.85 4.59c.79.3 1.6.44 2.42.44.96 0 1.93-.2 2.83-.61 1.39-.62 3.32-2.02 5.04-3.64a.36.36 0 00.01-.5.35.35 0 00-.5-.01c-1.63 1.55-3.53 2.93-4.84 3.51-1.19.54-2.49.68-3.75.43-.1-.02-.19-.04-.29-.07.09-.04.17-.09.25-.14.53-.34 1.01-.75 1.43-1.21 2.84-.37 4.87-2.41 4.96-2.5.13-.14.13-.36-.01-.49a.35.35 0 00-.5 0c-.01.02-1.45 1.46-3.52 2.07-.09.03-.19.06-.28.08.05-.08.1-.16.15-.25.63-1.04.99-2.26.99-3.56 0-.25-.02-.53-.04-.83a.348.348 0 00-.38-.32c-.2.01-.34.19-.32.38.02.28.04.54.04.77 0 3.44-2.8 6.23-6.23 6.23A6.23 6.23 0 01.7 15.03c0-1.87.8-5.04 1.9-7.55 1.32-3.02 2.9-4.75 4.33-4.75 1.29 0 2.43 1.37 3.16 2.52a.353.353 0 00.6-.37c-1.2-1.9-2.47-2.86-3.76-2.86-.96 0-1.91.54-2.83 1.59-.76.88-1.49 2.09-2.15 3.59C.8 9.82 0 13.04 0 15.03c0 3.83 3.1 6.94 6.93 6.94.89 0 1.75-.18 2.54-.49z" fill-rule="evenodd"/><path d="M23.76 9.67c-.58-1.31-2.29-2.12-4.93-2.36-1.97-.17-4.45-.01-6.7.44-.21-.53-.44-1.04-.68-1.52a.35.35 0 00-.47-.15c-.18.09-.25.3-.16.47.92 1.83 1.7 4.17 2.09 6.28.03.17.18.28.35.28h.06a.35.35 0 00.28-.41c-.12-.65-.27-1.31-.46-1.98 3.81-1.35 6.66-.72 6.69-.71.19.04.38-.07.42-.26a.34.34 0 00-.26-.42c-.12-.03-3.05-.7-7.04.71-.17-.55-.36-1.09-.55-1.62 2.14-.42 4.49-.57 6.37-.41 1.65.15 3.75.61 4.35 1.94.61 1.36-.42 3.61-2.83 6.18a.36.36 0 00.02.5c.07.06.15.09.24.09s.19-.03.25-.11c1.54-1.63 3.96-4.71 2.96-6.94z"/><path d="M22.15 7.91q-1.29-.62-3.3-.8-1.5-.13-3.28-.01-1.69.11-3.31.42-.31-.73-.63-1.38-.05-.1-.13-.17-.09-.07-.19-.1-.11-.04-.22-.03-.1.01-.2.06-.11.05-.18.13-.06.08-.1.19-.04.11-.03.21.01.11.06.21.68 1.36 1.23 3.01.55 1.65.85 3.21.02.1.06.18.05.09.13.15t.17.09q.08.03.18.03h.06q.02 0 .04-.01.11-.02.2-.07.09-.06.15-.16.07-.09.09-.19.02-.11 0-.22-.16-.88-.41-1.81 1.2-.42 2.43-.62 1.06-.17 2.09-.18.73 0 1.38.08.33.04.5.07.11.03.21.01.1-.01.2-.07.1-.06.16-.15.06-.08.09-.2.03-.11.01-.21-.02-.11-.08-.2-.06-.1-.14-.16-.09-.06-.2-.09-.23-.05-.61-.1-.71-.09-1.51-.09-1.1.01-2.24.2-1.31.21-2.6.65-.2-.62-.42-1.22 1.49-.28 3.04-.37 1.66-.11 3.05.01 1.5.14 2.52.51 1.29.49 1.67 1.32.2.45.13 1.07-.07.63-.42 1.4-.72 1.58-2.5 3.49-.08.08-.12.18-.04.1-.03.21 0 .11.04.21.05.1.13.17.08.08.18.12.09.03.2.03.12 0 .22-.04t.18-.13q1.62-1.73 2.46-3.29 1.18-2.2.6-3.72-.03-.08-.07-.15-.01-.04-.03-.08-.49-1-1.76-1.6zm-9.68.7c-.03-.07-.05-.13-.07-.19.06-.02.13-.03.19-.04 2.1-.39 4.36-.53 6.18-.37 1.65.15 3.75.61 4.35 1.94.61 1.36-.42 3.61-2.83 6.18a.36.36 0 00.02.5c.07.06.15.09.24.09s.19-.03.25-.11c1.54-1.63 3.96-4.71 2.96-6.94-.58-1.31-2.29-2.12-4.93-2.36-1.97-.17-4.45-.01-6.7.44-.21-.53-.44-1.04-.68-1.52a.35.35 0 00-.47-.15c-.18.09-.25.3-.16.47.92 1.83 1.7 4.17 2.09 6.28.03.17.18.28.35.28h.06a.35.35 0 00.28-.41c-.12-.65-.27-1.31-.46-1.98 3.81-1.35 6.66-.72 6.69-.71.19.04.38-.07.42-.26a.34.34 0 00-.26-.42c-.12-.03-2.96-.68-6.85.65-.07.02-.13.04-.19.06a25.797 25.797 0 00-.48-1.43z" fill-rule="evenodd"/><path d="M19 13.12a.362.362 0 00-.47-.16l-4.09 2.01a.353.353 0 00.15.67c.05 0 .11-.01.16-.03l4.09-2.01c.17-.09.24-.3.16-.48z"/><path d="M18.65 12.73q-.11 0-.21.05l-4.09 2.02q-.1.05-.17.12-.07.08-.11.19-.04.11-.03.22.01.1.06.2.03.08.09.13.05.06.11.1.07.04.14.06.07.02.15.02.06 0 .12-.01l.12-.04 4.1-2.02q.1-.05.17-.13.07-.07.1-.18.04-.11.04-.22-.01-.1-.06-.2-.05-.11-.13-.18-.08-.07-.19-.1-.11-.04-.21-.03zm.35.39a.362.362 0 00-.47-.16l-4.09 2.01a.353.353 0 00.15.67c.05 0 .11-.01.16-.03l4.09-2.01c.17-.09.24-.3.16-.48z" fill-rule="evenodd"/><path d="M5.57 5.26a.361.361 0 00-.5.06c-.03.05-.86 1.15-1.51 3.15-.6 1.83-1.15 4.82-.4 8.6.03.16.18.28.34.28.03 0 .05 0 .07-.01.19-.03.32-.22.28-.41-.72-3.62-.2-6.46.37-8.21.61-1.9 1.4-2.96 1.41-2.97.12-.16.09-.38-.06-.49z"/><path d="M5.08 5.06q-.1.05-.17.14l-.16.24q-.19.28-.38.62-.59 1.07-1 2.35-.56 1.71-.72 3.61-.2 2.5.31 5.09.02.09.07.17.05.08.13.15.08.06.16.09.09.03.19.03h.05q.02 0 .05-.01.12-.02.2-.08.09-.06.15-.16.07-.09.09-.19.02-.11 0-.22-.49-2.42-.3-4.75.14-1.77.66-3.36.38-1.17.92-2.16.17-.31.33-.56l.13-.19q.07-.09.1-.19.02-.1.01-.22-.02-.11-.07-.2-.05-.09-.14-.16-.09-.07-.19-.1-.11-.03-.22-.01-.11.01-.2.07zm.49.2a.361.361 0 00-.5.06c-.03.05-.86 1.15-1.51 3.15-.6 1.83-1.15 4.82-.4 8.6.03.16.18.28.34.28.03 0 .05 0 .07-.01.19-.03.32-.22.28-.41-.72-3.62-.2-6.46.37-8.21.61-1.9 1.4-2.96 1.41-2.97.12-.16.09-.38-.06-.49z" fill-rule="evenodd"/><path d="M11.59 14.13c-.07-1.62-.54-2.84-.56-2.89a.347.347 0 00-.45-.2c-.18.07-.27.28-.2.46 0 .01.45 1.17.51 2.69.08 1.98-.51 3.61-1.76 4.83a.36.36 0 00-.01.5c.07.07.16.1.25.1s.18-.03.25-.1c1.38-1.35 2.06-3.21 1.97-5.39z"/><path d="M11.22 11.17q-.04-.11-.12-.18-.07-.08-.17-.12-.11-.05-.21-.05-.11 0-.22.04-.1.04-.18.11-.07.08-.12.18-.05.1-.05.21 0 .11.04.21.11.28.23.76.23.94.27 1.86.08 2.04-.79 3.52-.37.63-.91 1.16-.08.08-.12.18-.04.1-.05.21 0 .12.04.22.04.09.12.17.08.09.18.13.1.04.21.04.12 0 .21-.04.1-.04.18-.12.49-.47.86-1.03.45-.66.73-1.42.51-1.41.44-3.08-.04-1.04-.3-2.08-.14-.54-.27-.88zm.37 2.96c-.07-1.62-.54-2.84-.56-2.89a.347.347 0 00-.45-.2c-.18.07-.27.28-.2.46 0 .01.45 1.17.51 2.69.08 1.98-.51 3.61-1.76 4.83a.36.36 0 00-.01.5c.07.07.16.1.25.1s.18-.03.25-.1c1.38-1.35 2.06-3.21 1.97-5.39z" fill-rule="evenodd"/><path d="M8.5 8.12a.364.364 0 00-.37-.34c-.19.01-.34.17-.33.37l.16 4.55c0 .19.16.34.35.34h.01c.2-.01.35-.17.34-.36L8.5 8.12z"/><path d="M8.34 7.62q-.09-.04-.21-.04-.12.01-.21.05-.1.05-.18.13-.07.08-.11.18-.04.1-.03.21l.16 4.56q0 .11.04.21.05.09.13.17.08.07.17.11.1.04.21.04h.02q.11 0 .21-.05.1-.04.17-.12.08-.09.12-.19.03-.1.03-.21L8.7 8.12Q8.69 8 8.65 7.9q-.04-.09-.13-.17-.08-.07-.18-.11zm.16.5a.364.364 0 00-.37-.34c-.19.01-.34.17-.33.37l.16 4.55c0 .19.16.34.35.34h.01c.2-.01.35-.17.34-.36L8.5 8.12z" fill-rule="evenodd"/><path d="M5.95 19.51c-.79-.29-1.47-1.03-1.48-1.04a.35.35 0 00-.5-.03.36.36 0 00-.02.5c.03.03.8.88 1.76 1.23.04.01.08.02.12.02.15 0 .28-.09.33-.23a.345.345 0 00-.21-.45z"/><path d="M5.04 18.73q-.26-.22-.42-.4-.08-.08-.17-.13-.1-.04-.21-.05-.12 0-.22.03-.1.04-.18.11-.08.08-.13.18-.05.09-.05.21-.01.11.03.21.03.1.11.18.22.25.55.52.66.53 1.29.76.05.02.1.03.04.01.09.01.09 0 .16-.03.08-.02.16-.07.07-.05.12-.11.05-.07.08-.16.04-.1.03-.21 0-.1-.05-.21-.05-.1-.12-.17-.08-.07-.19-.11-.46-.17-.98-.59zm.91.78c-.79-.29-1.47-1.03-1.48-1.04a.35.35 0 00-.5-.03.36.36 0 00-.02.5c.03.03.8.88 1.76 1.23.04.01.08.02.12.02.15 0 .28-.09.33-.23a.345.345 0 00-.21-.45z" fill-rule="evenodd"/><path d="M8.51 13.74c-.2 0-.35.16-.35.35v.03c0 .2.15.36.35.36.19 0 .35-.16.35-.36v-.03c0-.19-.16-.35-.35-.35z"/><path d="M8 13.88q-.04.1-.04.21v.03q0 .12.04.22.04.09.12.17.08.09.18.13.09.04.21.04.11 0 .21-.04.1-.04.18-.13.08-.08.12-.17.04-.1.04-.22v-.03q0-.11-.04-.21-.04-.1-.12-.18-.08-.08-.18-.12-.1-.04-.21-.04-.12 0-.21.04-.1.04-.18.12-.08.08-.12.18zm.16.21c0-.19.15-.35.35-.35.19 0 .35.16.35.35v.03c0 .2-.16.36-.35.36a.35.35 0 01-.35-.36v-.03z" fill-rule="evenodd"/><path d="M7.64 14.67c-.19 0-.35.15-.35.35v.03c0 .2.16.35.35.35.2 0 .35-.15.35-.35v-.03c0-.2-.15-.35-.35-.35z"/><path d="M7.13 14.81q-.04.09-.04.21v.03q0 .12.04.21.04.1.12.18.08.08.18.12.1.04.21.04.12 0 .21-.04.1-.04.18-.12.08-.08.12-.18.04-.09.04-.21v-.03q0-.12-.04-.21-.04-.1-.12-.18-.08-.08-.18-.12-.09-.04-.21-.04-.11 0-.21.04-.1.04-.18.12-.08.08-.12.18zm.16.21c0-.2.16-.35.35-.35.2 0 .35.15.35.35v.03c0 .2-.15.35-.35.35-.19 0-.35-.15-.35-.35v-.03z" fill-rule="evenodd"/><path d="M8.76 16.24c-.19 0-.35.16-.35.35v.04c0 .19.16.35.35.35.19 0 .35-.16.35-.35v-.04c0-.19-.16-.35-.35-.35z"/><path d="M8.25 16.38q-.04.1-.04.21v.04q0 .11.04.21.04.09.12.18.08.08.18.12.1.04.21.04.11 0 .21-.04.1-.04.18-.12.08-.09.12-.18.04-.1.04-.21v-.04q0-.11-.04-.21-.04-.1-.12-.18-.08-.08-.18-.12-.1-.04-.21-.04-.11 0-.21.04-.1.04-.18.12-.08.08-.12.18zm.16.21c0-.19.16-.35.35-.35.19 0 .35.16.35.35v.04c0 .19-.16.35-.35.35-.19 0-.35-.16-.35-.35v-.04z" fill-rule="evenodd"/></g></svg>