<svg width="20" height="20" fill="none" xmlns="http://www.w3.org/2000/svg"><defs><clipPath id="a"><path fill="#fff" fill-opacity="0" d="M0 0h20v20H0z"/></clipPath></defs><path d="M0 0h20v20H0z"/><g clip-path="url(#a)"><path d="M18.79 8.59c-.08-.01-.16-.02-.24-.02H4.44l.3-.14c.3-.14.58-.34.81-.57L9.51 3.9c.52-.5.61-1.3.21-1.9-.47-.63-1.37-.77-2-.3-.06.03-.1.07-.15.12L.41 8.97c-.55.56-.55 1.47 0 2.03l7.16 7.15c.56.56 1.47.56 2.02 0 .05-.04.09-.09.13-.14.4-.6.31-1.4-.21-1.9l-3.95-3.96c-.21-.21-.45-.39-.72-.52l-.43-.2h14.06c.73.03 1.37-.48 1.51-1.2a1.44 1.44 0 00-1.19-1.64z" fill="#84C551"/></g></svg>