<svg width="20" height="20" fill="none" xmlns="http://www.w3.org/2000/svg"><defs><clipPath id="a"><path fill="#fff" fill-opacity="0" d="M0 0h20v20H0z"/></clipPath></defs><path d="M0 0h20v20H0z"/><g clip-path="url(#a)" fill="#FFF"><path d="M15.85 2.62h-1.81v-.81c0-.27-.28-.38-.55-.38h-1.4C11.76.47 10.92 0 9.97 0c-.94-.04-1.8.54-2.12 1.43H6.47c-.26 0-.52.11-.52.38v.81H4.14c-1.07.01-1.95.85-2 1.92v13.65c0 1.04.95 1.81 2 1.81h11.71c1.05 0 2-.77 2-1.81V4.54a2.018 2.018 0 00-2-1.92zM6.9 2.38h1.31c.23-.03.41-.2.45-.43.14-.62.68-1.06 1.31-1.07.62.02 1.15.46 1.29 1.07.04.23.24.41.47.43h1.36v1.9H6.9v-1.9zm10 15.81c0 .52-.53.85-1.05.85H4.14c-.53 0-1.05-.33-1.05-.85V4.54c.05-.54.5-.96 1.05-.97h1.81v1.21c.02.27.25.47.52.45h7.02c.28.02.51-.18.55-.45V3.57h1.81c.55.01 1 .43 1.05.97v13.65z"/><path d="M8.16 10.64a.484.484 0 00-.67-.03l-1.52 1.46-.64-.67a.474.474 0 00-.67-.02c-.18.19-.18.49 0 .69l.98 1c.08.09.2.14.33.14s.25-.05.33-.14l1.86-1.76c.18-.17.2-.46.03-.64l-.03-.03zm6.83 1.02H9.52a.48.48 0 00-.48.48c0 .26.21.47.48.47h5.47c.27 0 .48-.21.48-.47a.48.48 0 00-.48-.48zM8.16 6.83a.474.474 0 00-.67-.02L5.97 8.26l-.64-.67a.474.474 0 00-.67-.02c-.18.19-.18.49 0 .69l.98 1c.08.09.2.14.33.14s.25-.05.33-.14L8.16 7.5c.18-.17.2-.46.03-.64l-.03-.03zm6.83 1.02H9.52a.48.48 0 000 .96h5.47a.48.48 0 000-.96zm-6.83 6.6a.484.484 0 00-.67-.03l-1.52 1.46-.64-.67a.474.474 0 00-.67-.02c-.18.19-.18.49 0 .69l.98 1c.08.09.2.14.33.14s.25-.05.33-.14l1.86-1.77c.18-.16.2-.45.03-.63l-.03-.03zm6.83 1.02H9.52c-.27 0-.48.21-.48.48 0 .26.21.47.48.47h5.47c.27 0 .48-.21.48-.47 0-.27-.21-.48-.48-.48z"/></g></svg>