<svg xmlns="http://www.w3.org/2000/svg" width="20" height="20" fill="none"><g clip-path="url(#clip0_25_540)"><path d="M8.596 18.798a1.43 1.43 0 01-.018-.248V4.44l-.143.308a2.86 2.86 0 01-.573.809L3.906 9.514a1.481 1.481 0 01-1.896.207 1.431 1.431 0 01-.187-2.146L8.978.42a1.431 1.431 0 012.025 0l7.155 7.155a1.431 1.431 0 01-.143 2.146 1.481 1.481 0 01-1.896-.207l-3.964-3.95a2.864 2.864 0 01-.522-.715l-.193-.43v14.053a1.48 1.48 0 01-1.202 1.51 1.431 1.431 0 01-1.642-1.184z" fill="#fff"/></g><defs><clipPath id="clip0_25_540"><path fill="#fff" transform="matrix(0 1 1 0 0 0)" d="M0 0h20v20H0z"/></clipPath></defs></svg>