<svg width="20.000000" height="20.000000" viewBox="0 0 20 20" fill="none" xmlns="http://www.w3.org/2000/svg" xmlns:xlink="http://www.w3.org/1999/xlink">
	<defs>
		<clipPath id="clip114_6265">
			<rect id="pin (5) 1" width="20.000000" height="20.000000" fill="white" fill-opacity="0"/>
		</clipPath>
	</defs>
	<rect id="pin (5) 1" width="20.000000" height="20.000000" fill="#FFFFFF" fill-opacity="0"/>
	<g clip-path="url(#clip114_6265)">
		<path id="Vector" d="M9.99 0C5.79 0 2.37 3.45 2.37 7.65C2.37 9.31 2.9 10.89 3.9 12.23L9.35 19.18L9.99 20L10.62 19.18L16.08 12.22C17.08 10.89 17.6 9.31 17.6 7.65C17.6 3.45 14.19 0 9.99 0ZM9.99 18.37L15.3 11.6Q15.59 11.21 15.82 10.78Q16.09 10.29 16.27 9.75Q16.37 9.43 16.44 9.11Q16.6 8.4 16.6 7.65Q16.6 6.94 16.46 6.27Q16.33 5.66 16.08 5.07Q15.85 4.52 15.53 4.02Q15.16 3.45 14.66 2.95Q14.14 2.43 13.53 2.03Q13.07 1.74 12.56 1.52Q11.98 1.27 11.37 1.14Q10.69 1 9.99 1Q9.28 1 8.6 1.14Q8 1.27 7.42 1.52Q6.91 1.74 6.44 2.03Q5.83 2.43 5.31 2.95Q4.82 3.45 4.45 4.02Q4.12 4.52 3.89 5.07Q3.64 5.66 3.51 6.27Q3.37 6.94 3.37 7.65Q3.37 8.4 3.53 9.11Q3.6 9.43 3.71 9.75Q3.81 10.05 3.94 10.34Q4.24 11.02 4.7 11.63L9.99 18.37ZM5 6.57Q4.89 7.1 4.89 7.65Q4.89 8.2 5 8.73Q5.1 9.19 5.29 9.64Q5.47 10.07 5.72 10.45Q6.01 10.88 6.38 11.26Q6.76 11.63 7.19 11.92Q7.57 12.17 8 12.35Q8.44 12.54 8.91 12.64Q9.44 12.75 9.99 12.75Q10.54 12.75 11.07 12.64Q11.53 12.54 11.97 12.35Q12.4 12.17 12.79 11.92Q13.22 11.63 13.59 11.26Q13.97 10.88 14.25 10.45Q14.5 10.07 14.69 9.64Q14.87 9.19 14.98 8.73Q15.09 8.2 15.09 7.65Q15.09 7.1 14.98 6.57Q14.87 6.11 14.69 5.67Q14.5 5.24 14.25 4.85Q13.97 4.42 13.59 4.05Q13.22 3.67 12.79 3.39Q12.4 3.13 11.97 2.95Q11.53 2.76 11.07 2.66Q10.54 2.55 9.99 2.55Q9.44 2.55 8.91 2.66Q8.44 2.76 8 2.95Q7.57 3.13 7.19 3.39Q6.76 3.67 6.38 4.05Q6.01 4.42 5.72 4.85Q5.47 5.24 5.29 5.67Q5.1 6.11 5 6.57ZM9.99 11.75C7.73 11.75 5.89 9.91 5.89 7.65C5.89 5.39 7.73 3.55 9.99 3.55C12.25 3.55 14.09 5.39 14.09 7.65C14.09 9.91 12.25 11.75 9.99 11.75Z" fill="#8C3213" fill-opacity="1.000000" fill-rule="evenodd"/>
		<path id="Vector" d="M7.06 7.65C7.06 6.04 8.37 4.72 9.99 4.72C11.6 4.72 12.92 6.04 12.92 7.65C12.92 9.27 11.6 10.58 9.99 10.58C8.37 10.58 7.06 9.27 7.06 7.65ZM8.1 8.08Q8.06 7.87 8.06 7.65Q8.06 7.43 8.1 7.22Q8.14 7.06 8.21 6.9Q8.27 6.75 8.36 6.61Q8.48 6.44 8.62 6.29Q8.77 6.14 8.95 6.03Q9.08 5.94 9.24 5.87Q9.39 5.81 9.56 5.77Q9.77 5.72 9.99 5.72Q10.21 5.72 10.42 5.77Q10.58 5.81 10.74 5.87Q10.89 5.94 11.03 6.03Q11.2 6.14 11.35 6.29Q11.5 6.44 11.61 6.61Q11.7 6.75 11.76 6.9Q11.83 7.06 11.87 7.22Q11.92 7.43 11.92 7.65Q11.92 7.87 11.87 8.08Q11.83 8.24 11.76 8.4Q11.7 8.55 11.61 8.69Q11.5 8.87 11.35 9.01Q11.2 9.16 11.03 9.28Q10.89 9.36 10.74 9.43Q10.58 9.5 10.42 9.53Q10.21 9.58 9.99 9.58Q9.77 9.58 9.56 9.53Q9.39 9.5 9.24 9.43Q9.08 9.36 8.95 9.28Q8.77 9.16 8.62 9.01Q8.48 8.87 8.36 8.69Q8.27 8.55 8.21 8.4Q8.14 8.24 8.1 8.08Z" fill="#8C3213" fill-opacity="1.000000" fill-rule="evenodd"/>
	</g>
</svg>
