<svg width="106.000000" height="48.000000" viewBox="0 0 106 48" fill="none" xmlns="http://www.w3.org/2000/svg" xmlns:xlink="http://www.w3.org/1999/xlink">
	<desc>
			Created with Pixso.
	</desc>
	<defs>
		<clipPath id="clip44_780">
			<rect id="Logo" width="106.000000" height="48.000000" fill="white" fill-opacity="0"/>
		</clipPath>
	</defs>
	<rect id="Logo" width="106.000000" height="48.000000" fill="#FFFFFF" fill-opacity="0"/>
	<g clip-path="url(#clip44_780)">
		<path id="Vector" d="M0 30.53L0 2.2C-0.01 1.91 0.04 1.62 0.15 1.35C0.26 1.08 0.42 0.83 0.62 0.63C0.82 0.42 1.05 0.26 1.31 0.15C1.57 0.05 1.84 -0.01 2.12 -3.06e-5L14.67 -3.06e-5C21.16 -3.06e-5 25.88 1.31 28.83 3.94C31.79 6.57 33.26 10.71 33.27 16.34C33.27 21.96 31.79 26.08 28.83 28.71C25.88 31.33 21.16 32.65 14.67 32.65L2.12 32.65C1.85 32.65 1.57 32.6 1.31 32.5C1.05 32.39 0.82 32.24 0.62 32.04C0.42 31.85 0.25 31.62 0.15 31.36C0.04 31.1 -0.01 30.82 0 30.53ZM8.46 26.19L14.42 26.19C18.45 26.19 21.18 25.44 22.63 23.95C24.08 22.47 24.81 19.92 24.81 16.33C24.81 12.72 24.08 10.18 22.63 8.7C21.18 7.22 18.45 6.47 14.42 6.46L8.46 6.46L8.46 26.19Z" fill="#FFFFFF" fill-opacity="1.000000" fill-rule="nonzero"/>
		<path id="Vector" d="M45.36 24.75L45.36 24.77L49.16 24.77C49.57 24.77 49.97 24.77 50.37 24.75L45.36 24.75Z" fill="#84C551" fill-opacity="1.000000" fill-rule="nonzero"/>
		<path id="Vector" d="M73.26 4.3L73.26 2.15C73.25 1.87 73.3 1.58 73.4 1.32C73.51 1.05 73.66 0.81 73.86 0.61C74.06 0.4 74.3 0.25 74.56 0.14C74.83 0.04 75.11 -0.01 75.39 0L103.86 0C104.14 -0.02 104.42 0.03 104.69 0.14C104.95 0.24 105.19 0.4 105.39 0.61C105.59 0.81 105.75 1.05 105.85 1.32C105.95 1.58 106 1.87 105.99 2.15L105.99 4.3C106 4.58 105.95 4.86 105.85 5.13C105.74 5.39 105.59 5.63 105.39 5.83C105.19 6.03 104.95 6.19 104.68 6.29C104.42 6.39 104.14 6.44 103.86 6.43L93.85 6.43L93.85 30.53C93.86 30.81 93.81 31.09 93.7 31.34C93.59 31.6 93.44 31.83 93.24 32.02C93.04 32.22 92.81 32.37 92.55 32.48C92.3 32.58 92.02 32.63 91.75 32.63L87.52 32.63C87.24 32.63 86.97 32.58 86.71 32.48C86.45 32.37 86.22 32.22 86.02 32.02C85.82 31.83 85.66 31.6 85.56 31.34C85.45 31.09 85.4 30.81 85.41 30.53L85.41 6.45L75.4 6.45C75.12 6.45 74.84 6.41 74.58 6.3C74.31 6.2 74.08 6.04 73.87 5.85C73.67 5.64 73.51 5.4 73.41 5.14C73.3 4.87 73.25 4.58 73.26 4.3Z" fill="#FFFFFF" fill-opacity="1.000000" fill-rule="nonzero"/>
		<path id="Vector" d="M0.62 45.78L0.62 39.66C0.62 39.6 0.64 39.53 0.66 39.47C0.68 39.42 0.72 39.36 0.76 39.32C0.8 39.27 0.85 39.24 0.91 39.22C0.97 39.19 1.03 39.18 1.09 39.18L2.03 39.18C2.09 39.18 2.15 39.19 2.21 39.22C2.26 39.24 2.31 39.27 2.35 39.32C2.4 39.36 2.43 39.42 2.46 39.47C2.48 39.53 2.49 39.6 2.49 39.66L2.49 44.84L6.72 44.84C6.78 44.84 6.84 44.85 6.9 44.88C6.95 44.9 7 44.94 7.05 44.98C7.13 45.07 7.18 45.19 7.18 45.31L7.18 45.79C7.18 45.91 7.13 46.02 7.05 46.11C7 46.16 6.95 46.19 6.9 46.21C6.84 46.24 6.78 46.25 6.72 46.25L1.09 46.25C0.97 46.25 0.86 46.2 0.77 46.12C0.72 46.08 0.68 46.02 0.66 45.97C0.63 45.91 0.62 45.85 0.62 45.78Z" fill="#84C551" fill-opacity="1.000000" fill-rule="nonzero"/>
		<path id="Vector" d="M8.29 45.62C7.8 45.04 7.54 44.3 7.54 43.54C7.54 42.79 7.8 42.05 8.29 41.47C8.88 41.01 9.62 40.75 10.37 40.75C11.12 40.75 11.86 41.01 12.45 41.47C12.71 41.74 12.91 42.05 13.04 42.4C13.17 42.75 13.22 43.12 13.2 43.49L13.2 43.78C13.2 43.86 13.17 43.94 13.11 43.99C13.09 44.02 13.05 44.05 13.02 44.06C12.98 44.08 12.94 44.08 12.9 44.08L9.25 44.08C9.25 44.41 9.37 44.72 9.59 44.96C9.86 45.17 10.19 45.27 10.53 45.23C10.69 45.25 10.85 45.24 11 45.19C11.15 45.13 11.29 45.05 11.41 44.94C11.48 44.85 11.57 44.77 11.67 44.72C11.77 44.67 11.88 44.64 12 44.64L12.72 44.64C12.76 44.64 12.8 44.64 12.84 44.66C12.87 44.67 12.91 44.7 12.94 44.72C12.96 44.75 12.99 44.79 13 44.83C13.02 44.86 13.02 44.9 13.02 44.94C13.02 45.9 12.14 46.37 10.37 46.37C9.6 46.41 8.86 46.14 8.29 45.62ZM9.23 43.02L11.48 43.02C11.45 42.25 11.08 41.86 10.36 41.86C9.64 41.86 9.28 42.25 9.24 43.02L9.23 43.02Z" fill="#84C551" fill-opacity="1.000000" fill-rule="nonzero"/>
		<path id="Vector" d="M16.61 45.17L17.27 45.11L17.45 45.11C17.49 45.1 17.53 45.11 17.57 45.13C17.61 45.14 17.64 45.16 17.67 45.19C17.7 45.22 17.72 45.25 17.73 45.29C17.75 45.33 17.76 45.37 17.75 45.41L17.75 45.94C17.75 45.97 17.75 46.01 17.73 46.04C17.72 46.07 17.7 46.1 17.67 46.13C17.61 46.18 17.53 46.22 17.45 46.23C17.03 46.31 16.59 46.34 16.16 46.33C14.78 46.33 14.08 45.59 14.08 44.12L14.08 39.48C14.08 39.4 14.11 39.32 14.16 39.26C14.19 39.24 14.22 39.22 14.26 39.2C14.3 39.19 14.34 39.18 14.37 39.18L15.46 39.18C15.5 39.18 15.54 39.19 15.57 39.2C15.61 39.22 15.64 39.24 15.67 39.26C15.73 39.32 15.76 39.4 15.76 39.48L15.76 41.13L17.11 41.13C17.18 41.13 17.26 41.16 17.32 41.21C17.35 41.24 17.37 41.27 17.38 41.31C17.4 41.35 17.4 41.39 17.4 41.43L17.4 42.01C17.4 42.05 17.4 42.09 17.38 42.13C17.37 42.17 17.35 42.2 17.32 42.23C17.29 42.26 17.26 42.28 17.22 42.29C17.18 42.31 17.14 42.31 17.11 42.31L15.76 42.31L15.76 44.11C15.74 44.39 15.82 44.67 15.99 44.89C16.06 44.98 16.16 45.05 16.26 45.1C16.37 45.15 16.49 45.17 16.61 45.17Z" fill="#84C551" fill-opacity="1.000000" fill-rule="nonzero"/>
		<path id="Vector" d="M19.62 39.18C20.03 39.18 20.25 39.34 20.25 39.66C20.24 39.76 20.22 39.87 20.17 39.96L19.6 41.44C19.53 41.6 19.43 41.74 19.3 41.84C19.16 41.95 19 42.01 18.83 42.01L18.63 42.01C18.43 42.01 18.3 41.96 18.25 41.88C18.2 41.8 18.17 41.71 18.17 41.61C18.16 41.52 18.16 41.43 18.17 41.34L18.45 39.76C18.49 39.6 18.59 39.45 18.72 39.36C18.86 39.26 19.02 39.2 19.19 39.2L19.62 39.18Z" fill="#84C551" fill-opacity="1.000000" fill-rule="nonzero"/>
		<path id="Vector" d="M20.94 42.34C20.94 41.27 21.78 40.74 23.47 40.74C25.23 40.74 26.12 41.22 26.12 42.17C26.12 42.21 26.11 42.25 26.1 42.29C26.09 42.33 26.06 42.36 26.04 42.39C26.01 42.42 25.98 42.44 25.94 42.45C25.9 42.47 25.86 42.47 25.83 42.47L25.1 42.47C24.99 42.47 24.87 42.45 24.77 42.4C24.67 42.35 24.58 42.27 24.51 42.18C24.39 42.06 24.24 41.97 24.08 41.92C23.91 41.87 23.74 41.86 23.57 41.88C22.95 41.88 22.63 42.04 22.63 42.36C22.63 42.51 22.76 42.63 23.01 42.73C23.31 42.84 23.63 42.93 23.95 42.98C24.31 43.06 24.67 43.15 25.03 43.27C25.38 43.37 25.7 43.56 25.97 43.81C26.09 43.94 26.19 44.09 26.25 44.25C26.32 44.41 26.35 44.59 26.34 44.77C26.34 45.83 25.45 46.35 23.67 46.35C21.89 46.35 21 45.88 21.01 44.92C21.01 44.88 21.01 44.84 21.03 44.81C21.04 44.77 21.06 44.73 21.09 44.71C21.12 44.68 21.15 44.65 21.19 44.64C21.23 44.62 21.27 44.62 21.31 44.62L22.03 44.62C22.15 44.62 22.26 44.65 22.36 44.7C22.46 44.75 22.55 44.83 22.62 44.92C22.75 45.03 22.89 45.12 23.06 45.17C23.22 45.22 23.39 45.24 23.56 45.22C24.3 45.22 24.67 45.06 24.67 44.74C24.67 44.59 24.54 44.47 24.29 44.37C23.99 44.26 23.67 44.17 23.35 44.1C22.99 44.03 22.63 43.93 22.27 43.82C21.93 43.72 21.61 43.53 21.36 43.27C21.23 43.16 21.12 43.01 21.05 42.85C20.98 42.69 20.94 42.51 20.94 42.34Z" fill="#84C551" fill-opacity="1.000000" fill-rule="nonzero"/>
		<path id="Vector" d="M31.03 45.15C30.8 44.9 30.62 44.61 30.5 44.29C30.38 43.96 30.33 43.62 30.35 43.28C30.33 42.93 30.39 42.58 30.53 42.26C30.66 41.93 30.86 41.65 31.12 41.42C31.76 40.93 32.54 40.69 33.33 40.74C33.82 40.75 34.31 40.8 34.79 40.9C35.19 40.97 35.58 41.11 35.93 41.3L35.93 45.85C35.96 46.16 35.9 46.47 35.78 46.75C35.65 47.03 35.46 47.28 35.22 47.47C34.62 47.85 33.92 48.04 33.22 48C32.54 48.03 31.87 47.92 31.24 47.67C31.02 47.58 30.84 47.43 30.72 47.24C30.59 47.05 30.53 46.82 30.54 46.59C30.54 46.55 30.55 46.51 30.56 46.47C30.57 46.43 30.6 46.4 30.62 46.37C30.65 46.34 30.69 46.32 30.72 46.3C30.76 46.29 30.8 46.28 30.84 46.28L31.56 46.28C31.67 46.28 31.78 46.3 31.87 46.35C31.97 46.39 32.06 46.46 32.12 46.54C32.25 46.67 32.39 46.76 32.56 46.82C32.72 46.88 32.89 46.9 33.06 46.88C33.39 46.92 33.73 46.83 34 46.65C34.1 46.54 34.17 46.41 34.21 46.28C34.26 46.14 34.27 45.99 34.25 45.85L34.25 45.62C33.78 45.75 33.29 45.82 32.81 45.82C32.48 45.84 32.16 45.78 31.85 45.67C31.54 45.55 31.27 45.38 31.03 45.15ZM33.23 41.93C32.47 41.93 32.08 42.38 32.08 43.28C32.08 44.18 32.46 44.63 33.21 44.63C33.56 44.62 33.91 44.57 34.25 44.48L34.25 42.04C33.92 41.96 33.58 41.92 33.23 41.93Z" fill="#84C551" fill-opacity="1.000000" fill-rule="nonzero"/>
		<path id="Vector" d="M40.8 42.09L40.05 42.06C39.81 42.08 39.56 42.16 39.35 42.28C39.13 42.41 38.94 42.58 38.8 42.79L38.8 45.94C38.8 45.97 38.8 46.01 38.78 46.05C38.77 46.09 38.75 46.12 38.72 46.15C38.69 46.18 38.66 46.2 38.62 46.21C38.59 46.23 38.55 46.23 38.51 46.23L37.42 46.23C37.38 46.23 37.34 46.23 37.31 46.21C37.27 46.2 37.24 46.18 37.21 46.15C37.18 46.12 37.16 46.09 37.15 46.05C37.13 46.01 37.12 45.97 37.13 45.94L37.13 41.17C37.12 41.13 37.13 41.09 37.15 41.05C37.16 41.01 37.18 40.98 37.21 40.95C37.24 40.92 37.27 40.9 37.31 40.88C37.34 40.87 37.38 40.86 37.42 40.86L38.51 40.86C38.55 40.86 38.59 40.87 38.62 40.88C38.66 40.9 38.69 40.92 38.72 40.95C38.75 40.98 38.77 41.01 38.78 41.05C38.8 41.09 38.81 41.13 38.8 41.17L38.8 41.48C39.09 41.26 39.41 41.07 39.74 40.94C40.13 40.81 40.54 40.75 40.94 40.76C41.02 40.76 41.1 40.79 41.16 40.85C41.19 40.88 41.21 40.91 41.22 40.95C41.24 40.98 41.24 41.02 41.24 41.06L41.24 41.81C41.25 41.85 41.24 41.89 41.22 41.93C41.21 41.96 41.19 42 41.16 42.03C41.13 42.05 41.1 42.08 41.06 42.09C41.02 42.11 40.98 42.11 40.94 42.11L40.8 42.09Z" fill="#84C551" fill-opacity="1.000000" fill-rule="nonzero"/>
		<path id="Vector" d="M42.4 45.63C41.92 45.04 41.65 44.3 41.65 43.54C41.65 42.77 41.92 42.04 42.4 41.45C43.04 40.99 43.8 40.74 44.58 40.74C45.36 40.74 46.12 40.99 46.75 41.45C47.24 42.04 47.51 42.77 47.51 43.54C47.51 44.3 47.24 45.04 46.75 45.63C46.12 46.08 45.36 46.33 44.58 46.33C43.8 46.33 43.04 46.08 42.4 45.63ZM43.63 42.26C43.43 42.65 43.33 43.09 43.33 43.53C43.33 43.98 43.43 44.41 43.63 44.81C43.88 45.06 44.22 45.2 44.57 45.2C44.92 45.2 45.26 45.06 45.51 44.81C45.71 44.41 45.81 43.98 45.81 43.53C45.81 43.09 45.71 42.65 45.51 42.26C45.26 42.01 44.92 41.87 44.57 41.87C44.22 41.87 43.88 42.01 43.63 42.26Z" fill="#84C551" fill-opacity="1.000000" fill-rule="nonzero"/>
		<path id="Vector" d="M47.9 41.28C47.88 41.21 47.86 41.14 47.85 41.06C47.85 40.92 47.94 40.85 48.1 40.84L49 40.84C49.14 40.84 49.29 40.88 49.41 40.96C49.52 41.03 49.61 41.15 49.65 41.28L50.45 43.93L51.23 41.28C51.26 41.15 51.33 41.04 51.43 40.96C51.53 40.88 51.66 40.84 51.79 40.84L52.64 40.84C52.77 40.83 52.9 40.87 53 40.95C53.1 41.03 53.17 41.15 53.2 41.28L53.98 43.93L54.78 41.28C54.82 41.14 54.91 41.03 55.03 40.96C55.15 40.88 55.29 40.84 55.43 40.84L56.33 40.84C56.49 40.84 56.57 40.92 56.58 41.06C56.57 41.14 56.56 41.21 56.53 41.28L55.06 45.8C55.02 45.93 54.94 46.04 54.82 46.12C54.71 46.19 54.58 46.23 54.45 46.23L53.77 46.23C53.63 46.23 53.5 46.19 53.39 46.11C53.27 46.04 53.19 45.93 53.15 45.8L52.21 42.87L51.27 45.8C51.23 45.93 51.14 46.04 51.03 46.11C50.92 46.19 50.79 46.23 50.65 46.23L49.98 46.23C49.85 46.23 49.72 46.19 49.61 46.12C49.5 46.04 49.41 45.93 49.37 45.8L47.9 41.28Z" fill="#84C551" fill-opacity="1.000000" fill-rule="nonzero"/>
		<path id="Vector" d="M63.28 45.17L63.94 45.11L64.12 45.11C64.16 45.1 64.2 45.11 64.24 45.13C64.28 45.14 64.31 45.16 64.34 45.19C64.37 45.22 64.39 45.25 64.4 45.29C64.42 45.33 64.42 45.37 64.42 45.41L64.42 45.94C64.42 45.97 64.41 46.01 64.4 46.04C64.39 46.07 64.36 46.1 64.34 46.13C64.28 46.18 64.2 46.22 64.12 46.23C63.69 46.31 63.26 46.34 62.83 46.33C61.44 46.33 60.75 45.59 60.75 44.12L60.75 39.48C60.75 39.4 60.78 39.32 60.83 39.26C60.86 39.24 60.89 39.22 60.93 39.2C60.96 39.19 61 39.18 61.04 39.18L62.13 39.18C62.17 39.18 62.21 39.19 62.24 39.2C62.28 39.22 62.31 39.24 62.34 39.26C62.4 39.32 62.43 39.4 62.42 39.48L62.42 41.13L63.78 41.13C63.85 41.13 63.93 41.16 63.99 41.21C64.01 41.24 64.04 41.27 64.05 41.31C64.07 41.35 64.08 41.39 64.07 41.43L64.07 42.01C64.08 42.05 64.07 42.09 64.05 42.13C64.04 42.17 64.01 42.2 63.99 42.23C63.96 42.26 63.93 42.28 63.89 42.29C63.85 42.31 63.82 42.31 63.78 42.31L62.42 42.31L62.42 44.11C62.41 44.39 62.49 44.67 62.66 44.89C62.73 44.98 62.83 45.05 62.93 45.1C63.04 45.15 63.16 45.17 63.28 45.17Z" fill="#84C551" fill-opacity="1.000000" fill-rule="nonzero"/>
		<path id="Vector" d="M65.63 45.63C65.14 45.04 64.87 44.3 64.87 43.54C64.87 42.77 65.14 42.04 65.63 41.45C66.26 40.99 67.02 40.74 67.8 40.74C68.58 40.74 69.34 40.99 69.97 41.45C70.46 42.04 70.73 42.77 70.73 43.54C70.73 44.3 70.46 45.04 69.97 45.63C69.34 46.08 68.58 46.33 67.8 46.33C67.02 46.33 66.26 46.08 65.63 45.63ZM66.85 42.26C66.65 42.65 66.55 43.09 66.55 43.53C66.55 43.98 66.65 44.41 66.85 44.81C66.97 44.95 67.11 45.06 67.27 45.13C67.44 45.2 67.62 45.23 67.79 45.22C67.97 45.23 68.15 45.2 68.31 45.13C68.48 45.06 68.62 44.95 68.73 44.81C68.93 44.42 69.04 43.98 69.04 43.53C69.04 43.09 68.93 42.65 68.73 42.26C68.62 42.12 68.47 42.02 68.31 41.95C68.15 41.88 67.97 41.85 67.79 41.86C67.62 41.85 67.44 41.88 67.27 41.94C67.11 42.01 66.97 42.12 66.85 42.26Z" fill="#84C551" fill-opacity="1.000000" fill-rule="nonzero"/>
		<path id="Vector" d="M72 45.15C71.76 44.9 71.58 44.61 71.47 44.29C71.35 43.96 71.3 43.62 71.32 43.28C71.3 42.93 71.36 42.58 71.49 42.26C71.63 41.93 71.83 41.65 72.09 41.42C72.72 40.93 73.51 40.69 74.3 40.74C74.79 40.75 75.28 40.8 75.76 40.9C76.16 40.97 76.54 41.11 76.9 41.3L76.9 45.85C76.93 46.16 76.87 46.47 76.75 46.75C76.62 47.03 76.43 47.28 76.19 47.47C75.59 47.85 74.89 48.04 74.19 48C73.51 48.03 72.84 47.92 72.21 47.67C71.99 47.58 71.81 47.43 71.69 47.24C71.56 47.05 71.5 46.82 71.51 46.59C71.51 46.55 71.52 46.51 71.53 46.47C71.55 46.43 71.57 46.4 71.6 46.37C71.62 46.34 71.66 46.32 71.7 46.3C71.73 46.29 71.77 46.28 71.81 46.28L72.55 46.28C72.65 46.28 72.76 46.3 72.85 46.35C72.95 46.39 73.04 46.46 73.1 46.54C73.23 46.66 73.37 46.76 73.54 46.82C73.7 46.88 73.87 46.9 74.04 46.88C74.37 46.92 74.71 46.84 74.98 46.65C75.08 46.54 75.15 46.42 75.2 46.28C75.24 46.14 75.25 45.99 75.24 45.85L75.24 45.62C74.76 45.75 74.28 45.82 73.79 45.82C73.46 45.84 73.13 45.79 72.82 45.67C72.51 45.56 72.23 45.38 72 45.15ZM74.2 41.93C73.43 41.93 73.05 42.38 73.05 43.28C73.05 44.18 73.42 44.63 74.17 44.63C74.53 44.62 74.88 44.57 75.22 44.48L75.22 42.04C74.89 41.96 74.54 41.92 74.2 41.93Z" fill="#84C551" fill-opacity="1.000000" fill-rule="nonzero"/>
		<path id="Vector" d="M78.54 45.62C78.06 45.04 77.79 44.3 77.79 43.54C77.79 42.79 78.06 42.05 78.54 41.47C79.14 41.01 79.87 40.75 80.62 40.75C81.37 40.75 82.11 41.01 82.7 41.47C82.96 41.74 83.16 42.05 83.29 42.4C83.42 42.75 83.48 43.12 83.45 43.49L83.45 43.78C83.45 43.86 83.42 43.94 83.37 43.99C83.34 44.02 83.3 44.05 83.27 44.06C83.23 44.08 83.19 44.08 83.15 44.08L79.5 44.08C79.5 44.41 79.62 44.72 79.84 44.96C80.11 45.17 80.44 45.27 80.78 45.23C80.94 45.25 81.1 45.24 81.25 45.19C81.4 45.13 81.54 45.05 81.66 44.94C81.73 44.85 81.82 44.77 81.92 44.72C82.02 44.67 82.13 44.64 82.25 44.64L82.97 44.64C83.01 44.64 83.05 44.64 83.09 44.66C83.12 44.67 83.16 44.7 83.19 44.72C83.22 44.75 83.24 44.79 83.25 44.83C83.27 44.86 83.27 44.9 83.27 44.94C83.27 45.9 82.39 46.37 80.62 46.37C79.86 46.41 79.11 46.14 78.54 45.62ZM79.48 43.02L81.74 43.02C81.7 42.25 81.33 41.86 80.61 41.86C79.9 41.86 79.54 42.25 79.49 43.02L79.48 43.02Z" fill="#84C551" fill-opacity="1.000000" fill-rule="nonzero"/>
		<path id="Vector" d="M86.88 45.17L87.54 45.11L87.72 45.11C87.8 45.1 87.88 45.14 87.94 45.19C87.97 45.22 87.99 45.25 88 45.29C88.02 45.33 88.03 45.37 88.02 45.41L88.02 45.94C88.02 45.97 88.02 46.01 88 46.04C87.99 46.07 87.97 46.1 87.94 46.13C87.88 46.18 87.81 46.22 87.72 46.23C87.3 46.31 86.86 46.34 86.43 46.33C85.04 46.33 84.35 45.59 84.35 44.12L84.35 39.48C84.35 39.4 84.38 39.32 84.43 39.26C84.46 39.24 84.49 39.22 84.53 39.2C84.57 39.19 84.61 39.18 84.64 39.18L85.73 39.18C85.77 39.18 85.81 39.19 85.84 39.2C85.88 39.22 85.91 39.24 85.94 39.26C86 39.32 86.03 39.4 86.03 39.48L86.03 41.13L87.38 41.13C87.45 41.13 87.53 41.16 87.59 41.21C87.62 41.24 87.64 41.27 87.65 41.31C87.67 41.35 87.67 41.39 87.67 41.43L87.67 42.01C87.67 42.05 87.67 42.09 87.65 42.13C87.64 42.17 87.62 42.2 87.59 42.23C87.56 42.26 87.53 42.28 87.49 42.29C87.45 42.31 87.41 42.31 87.38 42.31L86.03 42.31L86.03 44.11C86.01 44.39 86.09 44.67 86.26 44.89C86.33 44.98 86.43 45.05 86.54 45.1C86.64 45.15 86.76 45.17 86.88 45.17Z" fill="#84C551" fill-opacity="1.000000" fill-rule="nonzero"/>
		<path id="Vector" d="M88.82 45.94L88.82 39.48C88.82 39.4 88.85 39.32 88.9 39.26C88.93 39.24 88.96 39.22 89 39.2C89.04 39.19 89.08 39.18 89.11 39.18L90.2 39.18C90.24 39.18 90.28 39.19 90.31 39.2C90.35 39.22 90.38 39.24 90.41 39.26C90.47 39.32 90.5 39.4 90.5 39.48L90.5 41.46C90.98 41.01 91.62 40.75 92.27 40.74C92.55 40.73 92.83 40.78 93.1 40.88C93.36 40.98 93.6 41.13 93.81 41.33C94.02 41.57 94.18 41.85 94.28 42.16C94.38 42.47 94.42 42.79 94.4 43.11L94.4 45.94C94.4 45.97 94.39 46.01 94.38 46.05C94.36 46.09 94.34 46.12 94.31 46.15C94.29 46.17 94.25 46.2 94.21 46.21C94.18 46.23 94.14 46.23 94.1 46.23L93.02 46.23C92.98 46.23 92.94 46.22 92.9 46.21C92.87 46.2 92.83 46.17 92.8 46.15C92.78 46.12 92.76 46.09 92.74 46.05C92.73 46.01 92.72 45.97 92.72 45.94L92.72 43.11C92.72 42.33 92.41 41.93 91.78 41.93C91.53 41.96 91.28 42.04 91.06 42.16C90.84 42.28 90.64 42.44 90.48 42.64L90.48 45.94C90.48 45.97 90.48 46.01 90.46 46.05C90.45 46.09 90.43 46.12 90.4 46.15C90.37 46.17 90.34 46.2 90.3 46.21C90.26 46.22 90.23 46.23 90.19 46.23L89.1 46.23C89.06 46.23 89.02 46.22 88.99 46.21C88.95 46.2 88.92 46.17 88.89 46.15C88.86 46.12 88.84 46.08 88.83 46.05C88.82 46.01 88.82 45.97 88.82 45.94Z" fill="#84C551" fill-opacity="1.000000" fill-rule="nonzero"/>
		<path id="Vector" d="M96.05 45.62C95.57 45.04 95.3 44.3 95.3 43.54C95.3 42.79 95.57 42.05 96.05 41.47C96.62 40.96 97.37 40.7 98.13 40.74C98.89 40.7 99.63 40.95 100.21 41.45C100.47 41.72 100.67 42.03 100.8 42.38C100.93 42.73 100.98 43.1 100.96 43.47L100.96 43.76C100.96 43.84 100.93 43.92 100.87 43.98C100.84 44 100.81 44.03 100.77 44.04C100.74 44.06 100.7 44.06 100.66 44.06L96.99 44.06C96.99 44.39 97.11 44.7 97.33 44.94C97.6 45.15 97.93 45.25 98.27 45.22C98.43 45.23 98.59 45.22 98.74 45.17C98.89 45.11 99.03 45.03 99.15 44.92C99.22 44.83 99.31 44.75 99.41 44.7C99.51 44.65 99.62 44.62 99.74 44.62L100.46 44.62C100.5 44.62 100.54 44.62 100.58 44.64C100.61 44.65 100.65 44.68 100.67 44.71C100.7 44.73 100.72 44.77 100.74 44.81C100.75 44.84 100.76 44.88 100.76 44.92C100.76 45.88 99.87 46.35 98.11 46.35C97.35 46.39 96.61 46.12 96.05 45.62ZM96.99 43.02L99.24 43.02C99.21 42.25 98.84 41.86 98.12 41.86C97.4 41.86 97.03 42.25 96.99 43.02Z" fill="#84C551" fill-opacity="1.000000" fill-rule="nonzero"/>
		<path id="Vector" d="M105.52 42.09L104.77 42.06C104.52 42.08 104.28 42.16 104.07 42.28C103.85 42.41 103.66 42.58 103.52 42.79L103.52 45.94C103.52 45.97 103.52 46.01 103.5 46.05C103.49 46.09 103.47 46.12 103.44 46.15C103.41 46.18 103.38 46.2 103.34 46.21C103.3 46.23 103.27 46.23 103.23 46.23L102.16 46.23C102.12 46.23 102.08 46.23 102.05 46.21C102.01 46.2 101.98 46.18 101.95 46.15C101.92 46.12 101.9 46.09 101.88 46.05C101.87 46.01 101.86 45.97 101.86 45.94L101.86 41.17C101.86 41.13 101.87 41.09 101.88 41.05C101.9 41.01 101.92 40.98 101.95 40.95C101.98 40.92 102.01 40.9 102.05 40.88C102.08 40.87 102.12 40.86 102.16 40.86L103.25 40.86C103.29 40.86 103.32 40.87 103.36 40.88C103.4 40.9 103.43 40.92 103.46 40.95C103.49 40.98 103.51 41.01 103.52 41.05C103.54 41.09 103.54 41.13 103.54 41.17L103.54 41.48C103.83 41.26 104.15 41.07 104.48 40.94C104.87 40.81 105.27 40.75 105.68 40.76C105.76 40.76 105.84 40.79 105.9 40.85C105.92 40.88 105.95 40.91 105.96 40.95C105.97 40.98 105.98 41.02 105.98 41.06L105.98 41.81C105.98 41.85 105.98 41.89 105.96 41.93C105.95 41.96 105.93 42 105.9 42.03C105.87 42.05 105.83 42.08 105.8 42.09C105.76 42.11 105.72 42.11 105.68 42.11L105.52 42.09Z" fill="#84C551" fill-opacity="1.000000" fill-rule="nonzero"/>
		<path id="Vector" d="M36.72 24.75L36.72 24.78L35.23 30.53C35.18 30.76 35.15 30.99 35.15 31.22C35.17 31.55 35.3 31.86 35.52 32.11C35.67 32.29 35.86 32.44 36.08 32.53C36.3 32.62 36.54 32.65 36.77 32.63L41.2 32.63C41.8 32.62 42.38 32.41 42.86 32.02C43.36 31.65 43.72 31.1 43.86 30.49L45.36 24.77L45.36 24.74L36.72 24.75Z" fill="#21603F" fill-opacity="1.000000" fill-rule="nonzero"/>
		<path id="Vector" d="M68.16 0.02C68.06 0.01 67.95 0.01 67.84 0.02L59.56 0.02L54.56 0.02C49.85 0.19 46.32 1.36 43.96 3.54C43.84 3.64 43.73 3.74 43.63 3.85C42.27 5.23 41.31 6.97 40.86 8.87L36.73 24.75L50.36 24.75C55.04 24.57 58.56 23.41 60.93 21.26C61.04 21.16 61.15 21.05 61.26 20.95C62.64 19.56 63.62 17.81 64.08 15.9L68.21 0.02L68.16 0.02ZM55.91 13.77C55.64 14.85 55.07 15.84 54.28 16.63C54.18 16.73 54.06 16.84 53.94 16.94L53.75 17.09C52.83 17.8 51.72 18.23 50.57 18.31L47.02 18.31L48.99 11C49.26 9.92 49.81 8.93 50.59 8.14C50.7 8.04 50.81 7.93 50.93 7.83L51.16 7.65C52.08 6.94 53.18 6.51 54.33 6.43L57.89 6.43L55.91 13.77Z" fill="#84C551" fill-opacity="1.000000" fill-rule="nonzero"/>
		<path id="Vector" d="M66.18 15.98C65.49 18.93 63.75 21.51 61.3 23.23L61.3 24.73L61.3 30.45C61.29 30.74 61.33 31.02 61.43 31.28C61.54 31.55 61.69 31.79 61.89 31.99C62.09 32.19 62.32 32.35 62.58 32.45C62.84 32.56 63.12 32.6 63.4 32.59L67.63 32.59C67.91 32.6 68.19 32.55 68.44 32.44C68.7 32.34 68.94 32.18 69.14 31.99C69.34 31.8 69.5 31.57 69.61 31.31C69.71 31.06 69.77 30.78 69.76 30.5L69.76 2.19L66.18 15.98Z" fill="#FFFFFF" fill-opacity="1.000000" fill-rule="nonzero"/>
	</g>
</svg>
