<svg width="16.000000" height="16.000000" viewBox="0 0 16 16" fill="none" xmlns="http://www.w3.org/2000/svg" xmlns:xlink="http://www.w3.org/1999/xlink">
	<defs>
		<clipPath id="clip16_2256">
			<rect id="call (32) 1" width="16.000000" height="16.000000" fill="white" fill-opacity="0"/>
		</clipPath>
	</defs>
	<rect id="call (32) 1" width="16.000000" height="16.000000" fill="#FFFFFF" fill-opacity="0"/>
	<g clip-path="url(#clip16_2256)">
		<path id="Vector" d="M12.19 14.54L10 10.67C9.98 10.65 9.97 10.62 9.97 10.59C9.96 10.56 9.96 10.53 9.97 10.5C9.97 10.47 9.99 10.44 10 10.42C10.02 10.4 10.05 10.37 10.07 10.36C10.1 10.35 10.13 10.34 10.16 10.33C10.19 10.33 10.22 10.33 10.25 10.34C10.27 10.35 10.3 10.37 10.32 10.39C10.35 10.4 10.36 10.43 10.38 10.46L12.57 14.33L12.19 14.54Z" fill="#8C3213" fill-opacity="1.000000" fill-rule="nonzero"/>
		<path id="Vector" d="M7.16 5.45C7.12 5.45 7.09 5.44 7.05 5.42C7.02 5.4 6.99 5.37 6.97 5.34L4.78 1.47L5.16 1.25L7.35 5.12C7.38 5.17 7.39 5.23 7.37 5.29C7.36 5.34 7.32 5.39 7.27 5.41C7.24 5.43 7.2 5.45 7.16 5.45Z" fill="#8C3213" fill-opacity="1.000000" fill-rule="nonzero"/>
		<path id="Vector" d="M10.05 15.19C9.73 15.2 9.41 15.16 9.09 15.09C5.96 14.22 1.86 6.98 2.72 3.85C3.11 2.75 3.87 1.8 4.86 1.18C5.05 1.06 5.25 0.96 5.44 0.87C5.62 0.79 5.83 0.77 6.01 0.84C6.2 0.9 6.36 1.03 6.45 1.2L8.1 4.11C8.15 4.2 8.19 4.31 8.2 4.42C8.21 4.53 8.2 4.64 8.16 4.74C8.13 4.84 8.07 4.94 8 5.02C7.92 5.1 7.83 5.17 7.73 5.21C7.57 5.28 7.41 5.36 7.26 5.44C6.6 5.77 6.22 6.07 6.14 6.33C5.94 6.95 6.17 8 6.74 9.01C7.31 10.02 8.08 10.76 8.73 10.89C8.91 10.94 9.31 10.89 10.07 10.39C10.21 10.3 10.36 10.2 10.5 10.1C10.59 10.03 10.69 9.99 10.8 9.97C10.91 9.95 11.02 9.95 11.13 9.97C11.24 10 11.34 10.04 11.42 10.11C11.51 10.17 11.59 10.26 11.64 10.35L13.29 13.26C13.39 13.43 13.42 13.63 13.37 13.83C13.33 14.02 13.21 14.19 13.05 14.3C12.87 14.42 12.68 14.53 12.49 14.64C11.73 15.02 10.89 15.21 10.05 15.19ZM5.77 1.23C5.72 1.23 5.67 1.24 5.63 1.26C5.45 1.34 5.26 1.44 5.08 1.55C4.19 2.12 3.5 2.97 3.14 3.97C2.77 5.3 3.42 7.71 4.78 10.11C6.14 12.51 7.88 14.3 9.21 14.67C10.25 14.87 11.33 14.72 12.28 14.25C12.46 14.15 12.64 14.04 12.81 13.93C12.88 13.88 12.93 13.8 12.95 13.72C12.97 13.63 12.95 13.55 12.91 13.47L11.26 10.56C11.24 10.52 11.21 10.48 11.17 10.45C11.13 10.42 11.08 10.4 11.04 10.39C10.99 10.38 10.93 10.38 10.88 10.39C10.83 10.4 10.79 10.42 10.74 10.45C10.6 10.56 10.45 10.66 10.3 10.74C9.56 11.22 9.03 11.4 8.62 11.31C7.85 11.13 7 10.35 6.36 9.21C5.85 8.34 5.42 7.07 5.71 6.18C5.84 5.79 6.27 5.43 7.06 5.02C7.21 4.93 7.38 4.86 7.54 4.79C7.59 4.77 7.63 4.74 7.66 4.7C7.7 4.66 7.72 4.62 7.74 4.57C7.76 4.53 7.76 4.48 7.76 4.43C7.75 4.38 7.74 4.33 7.71 4.28L6.06 1.37C6.03 1.33 5.99 1.29 5.93 1.27C5.88 1.24 5.82 1.23 5.77 1.23L5.77 1.23Z" fill="#8C3213" fill-opacity="1.000000" fill-rule="nonzero"/>
	</g>
</svg>
