<svg width="24.000000" height="23.000000" viewBox="0 0 24 23" fill="none" xmlns="http://www.w3.org/2000/svg" xmlns:xlink="http://www.w3.org/1999/xlink">
	<defs/>
	<path id="Vector" d="M3.36 18.13L5.62 19.25L5.62 21.78C5.62 22.04 5.83 22.25 6.09 22.25L11.06 22.25C11.32 22.25 11.53 22.04 11.53 21.78L11.53 15.66C11.53 14.22 10.45 13.03 9.02 12.89C9.02 12.89 7.04 12.58 6.12 11.66L5.07 10.61C4.72 10.25 4.25 10.06 3.75 10.06L3.75 6.31C3.75 5.27 2.9 4.43 1.87 4.43C0.84 4.43 0 5.27 0 6.31L0 12.68C0 13.81 0.31 14.92 0.91 15.88C1.5 16.84 2.35 17.62 3.36 18.13ZM0.93 6.31C0.93 5.79 1.35 5.37 1.87 5.37C2.39 5.37 2.81 5.79 2.81 6.31L2.81 10.31C2.24 10.64 1.87 11.26 1.87 11.93C1.87 12.43 2.07 12.9 2.42 13.26L4.82 15.66C5 15.84 5.3 15.84 5.48 15.66C5.67 15.48 5.67 15.18 5.48 15L3.08 12.6C2.91 12.42 2.81 12.18 2.81 11.93C2.81 11.54 3.06 11.18 3.43 11.05C3.43 11.05 3.43 11.05 3.43 11.05L3.43 11.05C3.76 10.93 4.14 11 4.41 11.27L5.46 12.32C6.55 13.41 8.92 13.82 8.93 13.82C9.87 13.91 10.59 14.7 10.59 15.66L10.59 21.31L6.56 21.31L6.56 18.96C6.56 18.79 6.46 18.62 6.3 18.54L3.78 17.29C2.02 16.41 0.93 14.64 0.93 12.68L0.93 6.31Z" fill="#84BE51" fill-opacity="1.000000" fill-rule="nonzero"/>
	<path id="Vector" d="M11.53 10.53C11.53 10.79 11.74 11 12 11C12.25 11 12.46 10.79 12.46 10.53L12.46 9.12L14.26 9.12C16.89 9.12 19.03 6.98 19.03 4.35L19.03 2.09C19.03 1.9 18.91 1.73 18.74 1.66C18.56 1.58 18.36 1.62 18.23 1.76C17.71 2.27 17.02 2.56 16.29 2.56C14.73 2.56 13.33 3.32 12.46 4.49L12.46 0.21C12.46 -0.05 12.25 -0.26 12 -0.26C11.74 -0.26 11.53 -0.05 11.53 0.21L11.53 2.61C10.66 1.44 9.26 0.68 7.7 0.68C6.97 0.68 6.28 0.4 5.76 -0.12C5.63 -0.25 5.43 -0.29 5.25 -0.22C5.08 -0.15 4.96 0.02 4.96 0.21L4.96 2.48C4.96 5.11 7.1 7.25 9.73 7.25L11.53 7.25L11.53 10.53ZM16.29 3.49C16.93 3.49 17.55 3.33 18.09 3.03L18.09 4.35C18.09 6.46 16.37 8.18 14.26 8.18L13.4 8.18L16.03 6.21C16.23 6.06 16.28 5.76 16.12 5.56C15.96 5.35 15.67 5.31 15.46 5.46L12.46 7.71L12.46 7.33C12.46 5.21 14.18 3.49 16.29 3.49ZM5.9 2.48L5.9 1.15C6.44 1.46 7.06 1.62 7.7 1.62C9.81 1.62 11.53 3.34 11.53 5.45L11.53 5.84L8.53 3.59C8.32 3.43 8.03 3.48 7.87 3.68C7.71 3.89 7.76 4.18 7.96 4.34L10.59 6.31L9.73 6.31C7.62 6.31 5.9 4.59 5.9 2.48Z" fill="#84BE51" fill-opacity="1.000000" fill-rule="nonzero"/>
	<path id="Vector" d="M21.98 17C21.98 17.25 21.77 17.46 21.51 17.46C21.25 17.46 21.04 17.25 21.04 17C21.04 16.74 21.25 16.53 21.51 16.53C21.77 16.53 21.98 16.74 21.98 17Z" fill="#84BE51" fill-opacity="1.000000" fill-rule="evenodd"/>
	<path id="Vector" d="M22.12 4.43C21.09 4.43 20.25 5.27 20.25 6.31L20.25 10.06C19.74 10.06 19.27 10.25 18.92 10.61L17.87 11.66C16.97 12.56 14.97 12.89 14.97 12.89C13.54 13.03 12.46 14.22 12.46 15.66L12.46 21.78C12.46 22.04 12.67 22.25 12.93 22.25L17.9 22.25C18.16 22.25 18.37 22.04 18.37 21.78L18.37 19.25L19.9 18.49C20.14 18.37 20.23 18.09 20.11 17.86C20 17.63 19.72 17.53 19.49 17.65L17.69 18.54C17.53 18.62 17.43 18.79 17.43 18.96L17.43 21.31L13.4 21.31L13.4 15.66C13.4 14.7 14.12 13.91 15.07 13.82C15.07 13.82 17.38 13.47 18.53 12.32L19.58 11.27C19.85 11 20.23 10.93 20.56 11.05L20.56 11.05C20.56 11.05 20.56 11.05 20.56 11.05C20.93 11.18 21.18 11.54 21.18 11.93C21.18 12.18 21.08 12.42 20.91 12.6L18.51 15C18.32 15.18 18.32 15.48 18.51 15.66C18.69 15.84 18.99 15.84 19.17 15.66L21.57 13.26C21.92 12.9 22.12 12.43 22.12 11.93C22.12 11.26 21.75 10.64 21.18 10.31L21.18 6.31C21.18 5.79 21.6 5.37 22.12 5.37C22.64 5.37 23.06 5.79 23.06 6.31L23.06 12.68C23.06 13.53 22.84 14.38 22.43 15.14C22.31 15.36 22.39 15.65 22.62 15.77C22.85 15.9 23.13 15.81 23.26 15.59C23.74 14.69 24 13.69 24 12.68L24 6.31C24 5.27 23.15 4.43 22.12 4.43Z" fill="#84BE51" fill-opacity="1.000000" fill-rule="nonzero"/>
</svg>
