<svg width="20.000000" height="20.000000" viewBox="0 0 20 20" fill="none" xmlns="http://www.w3.org/2000/svg" xmlns:xlink="http://www.w3.org/1999/xlink">
	<defs>
		<clipPath id="clip84_3012">
			<rect id="clipboard 1" width="20.000000" height="20.000000" fill="white" fill-opacity="0"/>
		</clipPath>
	</defs>
	<rect id="clipboard 1" width="20.000000" height="20.000000" fill="#FFFFFF" fill-opacity="0"/>
	<g clip-path="url(#clip84_3012)">
		<path id="Vector" d="M15.85 2.62L14.04 2.62L14.04 1.81C14.04 1.54 13.76 1.43 13.49 1.43L12.09 1.43C11.76 0.47 10.92 0 9.97 0C9.03 -0.04 8.17 0.54 7.85 1.43L6.47 1.43C6.21 1.43 5.95 1.54 5.95 1.81L5.95 2.62L4.14 2.62C3.07 2.63 2.19 3.47 2.14 4.54L2.14 18.19C2.14 19.23 3.09 20 4.14 20L15.85 20C16.9 20 17.85 19.23 17.85 18.19L17.85 4.54C17.8 3.47 16.92 2.63 15.85 2.62ZM6.9 2.38L8.21 2.38C8.44 2.35 8.62 2.18 8.66 1.95C8.8 1.33 9.34 0.89 9.97 0.88C10.59 0.9 11.12 1.34 11.26 1.95C11.3 2.18 11.5 2.36 11.73 2.38L13.09 2.38L13.09 4.28L6.9 4.28L6.9 2.38ZM16.9 18.19C16.9 18.71 16.37 19.04 15.85 19.04L4.14 19.04C3.61 19.04 3.09 18.71 3.09 18.19L3.09 4.54C3.14 4 3.59 3.58 4.14 3.57L5.95 3.57L5.95 4.78C5.97 5.05 6.2 5.25 6.47 5.23L13.49 5.23C13.77 5.25 14 5.05 14.04 4.78L14.04 3.57L15.85 3.57C16.4 3.58 16.85 4 16.9 4.54L16.9 18.19L16.9 18.19Z" fill="#FFFFFF" fill-opacity="1.000000" fill-rule="nonzero"/>
		<path id="Vector" d="M8.16 10.64C7.98 10.45 7.68 10.44 7.49 10.61L5.97 12.07L5.33 11.4C5.15 11.21 4.85 11.2 4.66 11.38C4.48 11.57 4.48 11.87 4.66 12.07L5.64 13.07C5.72 13.16 5.84 13.21 5.97 13.21C6.1 13.21 6.22 13.16 6.3 13.07L8.16 11.31C8.34 11.14 8.36 10.85 8.19 10.67C8.18 10.66 8.17 10.65 8.16 10.64Z" fill="#FFFFFF" fill-opacity="1.000000" fill-rule="nonzero"/>
		<path id="Vector" d="M14.99 11.66L9.52 11.66C9.25 11.66 9.04 11.88 9.04 12.14C9.04 12.4 9.25 12.61 9.52 12.61L14.99 12.61C15.26 12.61 15.47 12.4 15.47 12.14C15.47 11.88 15.26 11.66 14.99 11.66Z" fill="#FFFFFF" fill-opacity="1.000000" fill-rule="nonzero"/>
		<path id="Vector" d="M8.16 6.83C7.98 6.64 7.68 6.63 7.49 6.81L5.97 8.26L5.33 7.59C5.15 7.4 4.85 7.39 4.66 7.57C4.48 7.76 4.48 8.06 4.66 8.26L5.64 9.26C5.72 9.35 5.84 9.4 5.97 9.4C6.1 9.4 6.22 9.35 6.3 9.26L8.16 7.5C8.34 7.33 8.36 7.04 8.19 6.86C8.18 6.85 8.17 6.84 8.16 6.83Z" fill="#FFFFFF" fill-opacity="1.000000" fill-rule="nonzero"/>
		<path id="Vector" d="M14.99 7.85L9.52 7.85C9.25 7.85 9.04 8.07 9.04 8.33C9.04 8.59 9.25 8.81 9.52 8.81L14.99 8.81C15.26 8.81 15.47 8.59 15.47 8.33C15.47 8.07 15.26 7.85 14.99 7.85Z" fill="#FFFFFF" fill-opacity="1.000000" fill-rule="nonzero"/>
		<path id="Vector" d="M8.16 14.45C7.98 14.26 7.68 14.25 7.49 14.42L5.97 15.88L5.33 15.21C5.15 15.02 4.85 15.01 4.66 15.19C4.48 15.38 4.48 15.68 4.66 15.88L5.64 16.88C5.72 16.97 5.84 17.02 5.97 17.02C6.1 17.02 6.22 16.97 6.3 16.88L8.16 15.11C8.34 14.95 8.36 14.66 8.19 14.48C8.18 14.47 8.17 14.46 8.16 14.45Z" fill="#FFFFFF" fill-opacity="1.000000" fill-rule="nonzero"/>
		<path id="Vector" d="M14.99 15.47L9.52 15.47C9.25 15.47 9.04 15.68 9.04 15.95C9.04 16.21 9.25 16.42 9.52 16.42L14.99 16.42C15.26 16.42 15.47 16.21 15.47 15.95C15.47 15.68 15.26 15.47 14.99 15.47Z" fill="#FFFFFF" fill-opacity="1.000000" fill-rule="nonzero"/>
	</g>
</svg>

