<svg width="515.000000" height="231.000000" viewBox="0 0 515 231" fill="none" xmlns="http://www.w3.org/2000/svg" xmlns:xlink="http://www.w3.org/1999/xlink">
	<defs/>
	<path id="Vector" d="M0 146.33L0 10.55C-0.04 9.16 0.21 7.77 0.74 6.48C1.26 5.18 2.04 4.01 3.03 3.03C3.98 2.06 5.12 1.28 6.37 0.76C7.63 0.24 8.98 -0.02 10.34 -9.16e-5L71.27 -9.16e-5C102.82 -9.16e-5 125.77 6.3 140.11 18.91C154.45 31.52 161.63 51.32 161.64 78.31C161.64 105.24 154.46 125 140.11 137.58C125.75 150.16 102.81 156.45 71.27 156.45L10.34 156.45C8.99 156.47 7.65 156.23 6.4 155.73C5.14 155.23 4 154.49 3.03 153.55C2.04 152.64 1.25 151.52 0.72 150.27C0.2 149.03 -0.05 147.68 0 146.33ZM41.1 125.49L70.08 125.49C89.63 125.49 102.93 121.93 109.98 114.8C117.03 107.67 120.56 95.49 120.56 78.25C120.56 60.97 117.03 48.79 109.98 41.69C102.93 34.59 89.63 31.01 70.08 30.95L41.1 30.95L41.1 125.49Z" fill="#FFFFFF" fill-opacity="1.000000" fill-rule="nonzero"/>
	<path id="Vector" d="M220.38 118.62L220.38 118.73L238.88 118.73C240.87 118.73 242.81 118.73 244.73 118.62L220.38 118.62Z" fill="#FFFFFF" fill-opacity="1.000000" fill-rule="nonzero"/>
	<path id="Vector" d="M355.95 20.6L355.95 10.34C355.91 8.97 356.14 7.61 356.65 6.33C357.15 5.06 357.91 3.9 358.88 2.93C359.85 1.96 361.01 1.2 362.29 0.69C363.56 0.19 364.93 -0.05 366.3 -0.01L504.63 -0.01C506 -0.05 507.37 0.18 508.64 0.69C509.92 1.19 511.08 1.95 512.05 2.92C513.02 3.89 513.78 5.05 514.28 6.33C514.78 7.61 515.02 8.97 514.97 10.34L514.97 20.6C515.01 21.96 514.78 23.32 514.27 24.58C513.77 25.85 513.01 27 512.05 27.96C511.07 28.91 509.91 29.66 508.63 30.15C507.36 30.65 505.99 30.88 504.63 30.84L456 30.84L456 146.33C456.03 147.66 455.78 148.98 455.26 150.21C454.75 151.44 453.98 152.55 453.01 153.46C452.06 154.4 450.93 155.14 449.69 155.64C448.44 156.14 447.11 156.39 445.77 156.36L425.22 156.36C423.88 156.39 422.54 156.14 421.29 155.65C420.05 155.15 418.91 154.4 417.96 153.46C416.99 152.55 416.22 151.44 415.7 150.21C415.19 148.98 414.94 147.66 414.96 146.33L414.96 30.91L366.34 30.91C364.98 30.95 363.62 30.71 362.35 30.22C361.08 29.73 359.92 28.98 358.94 28.03C357.95 27.07 357.18 25.91 356.66 24.63C356.15 23.35 355.9 21.98 355.95 20.6Z" fill="#FFFFFF" fill-opacity="1.000000" fill-rule="nonzero"/>
	<path id="Vector" d="M3.06 219.39L3.06 190.06C3.05 189.75 3.11 189.45 3.22 189.17C3.33 188.89 3.5 188.63 3.72 188.41C3.92 188.21 4.17 188.04 4.44 187.93C4.71 187.82 5 187.77 5.29 187.77L9.91 187.77C10.2 187.77 10.48 187.82 10.75 187.93C11.02 188.04 11.26 188.21 11.46 188.41C11.67 188.63 11.84 188.89 11.96 189.17C12.07 189.45 12.13 189.75 12.12 190.06L12.12 214.89L32.68 214.89C32.97 214.89 33.26 214.94 33.54 215.06C33.81 215.17 34.05 215.34 34.25 215.56C34.66 215.98 34.89 216.54 34.89 217.13L34.89 219.42C34.88 220 34.66 220.55 34.25 220.97C34.05 221.18 33.8 221.34 33.53 221.45C33.26 221.56 32.97 221.62 32.68 221.61L5.34 221.61C4.75 221.61 4.19 221.39 3.76 220.99C3.53 220.8 3.35 220.55 3.22 220.28C3.1 220 3.04 219.7 3.06 219.39Z" fill="#FFFFFF" fill-opacity="1.000000" fill-rule="nonzero"/>
	<path id="Vector" d="M40.28 218.59C37.93 215.82 36.64 212.3 36.64 208.67C36.64 205.03 37.93 201.51 40.28 198.74C43.18 196.5 46.74 195.29 50.4 195.29C54.06 195.29 57.62 196.5 60.52 198.74C61.77 200.01 62.75 201.52 63.37 203.19C64 204.86 64.26 206.65 64.15 208.43L64.15 209.78C64.15 210.17 64.01 210.54 63.74 210.83C63.6 210.96 63.43 211.07 63.25 211.14C63.07 211.21 62.88 211.25 62.69 211.24L44.94 211.24C44.96 212.8 45.55 214.3 46.61 215.44C47.91 216.44 49.54 216.92 51.17 216.77C51.95 216.86 52.73 216.78 53.47 216.53C54.21 216.29 54.88 215.89 55.45 215.35C55.78 214.91 56.22 214.56 56.71 214.31C57.2 214.06 57.75 213.92 58.3 213.91L61.82 213.91C62.01 213.9 62.21 213.94 62.39 214.01C62.57 214.08 62.73 214.19 62.87 214.32C63 214.46 63.11 214.63 63.18 214.81C63.25 214.99 63.29 215.18 63.28 215.37C63.28 219.94 58.99 222.23 50.4 222.23C46.68 222.39 43.05 221.08 40.28 218.59ZM44.85 206.17L55.81 206.17C55.65 202.46 53.85 200.61 50.35 200.61C46.86 200.61 45.12 202.46 44.92 206.17L44.85 206.17Z" fill="#FFFFFF" fill-opacity="1.000000" fill-rule="nonzero"/>
	<path id="Vector" d="M80.71 216.45L83.95 216.15L84.82 216.15C85.01 216.14 85.2 216.18 85.38 216.25C85.56 216.32 85.73 216.43 85.87 216.56C86 216.7 86.11 216.86 86.18 217.03C86.25 217.21 86.28 217.4 86.28 217.59L86.28 220.13C86.28 220.3 86.24 220.47 86.17 220.63C86.1 220.78 85.99 220.92 85.87 221.04C85.58 221.32 85.21 221.5 84.82 221.54C82.74 221.9 80.64 222.06 78.54 222.02C71.81 222.02 68.43 218.49 68.42 211.42L68.42 189.21C68.41 188.82 68.56 188.45 68.83 188.16C68.96 188.03 69.13 187.93 69.3 187.86C69.48 187.79 69.67 187.76 69.86 187.77L75.13 187.77C75.32 187.76 75.51 187.79 75.69 187.86C75.86 187.93 76.02 188.03 76.16 188.16C76.43 188.45 76.58 188.82 76.57 189.21L76.57 197.1L83.13 197.1C83.51 197.09 83.87 197.23 84.15 197.48C84.29 197.62 84.4 197.79 84.47 197.97C84.54 198.15 84.57 198.34 84.56 198.54L84.56 201.32C84.57 201.52 84.54 201.71 84.47 201.89C84.4 202.07 84.29 202.24 84.15 202.37C84.02 202.51 83.86 202.61 83.68 202.68C83.5 202.74 83.31 202.77 83.13 202.76L76.57 202.76L76.57 211.4C76.48 212.73 76.88 214.04 77.69 215.1C78.06 215.54 78.52 215.89 79.04 216.12C79.56 216.36 80.13 216.47 80.71 216.45Z" fill="#FFFFFF" fill-opacity="1.000000" fill-rule="nonzero"/>
	<path id="Vector" d="M95.34 187.77C97.35 187.77 98.38 188.51 98.38 190.06C98.36 190.56 98.25 191.05 98.04 191.5L95.23 198.6C94.92 199.36 94.41 200.02 93.77 200.52C93.12 201.04 92.31 201.32 91.48 201.3L90.55 201.3C89.57 201.3 88.95 201.09 88.68 200.68C88.43 200.3 88.3 199.86 88.29 199.4C88.26 198.98 88.26 198.55 88.29 198.12L89.68 190.54C89.85 189.76 90.32 189.07 90.98 188.62C91.64 188.12 92.44 187.85 93.27 187.84L95.34 187.77Z" fill="#FFFFFF" fill-opacity="1.000000" fill-rule="nonzero"/>
	<path id="Vector" d="M101.74 202.88C101.74 197.77 105.83 195.23 114.03 195.25C122.61 195.25 126.93 197.53 126.93 202.1C126.93 202.29 126.9 202.48 126.83 202.65C126.76 202.83 126.65 202.99 126.52 203.12C126.38 203.26 126.22 203.36 126.05 203.44C125.87 203.51 125.68 203.54 125.49 203.54L121.97 203.54C121.42 203.54 120.87 203.42 120.38 203.17C119.88 202.92 119.45 202.57 119.12 202.12C118.51 201.56 117.78 201.15 116.99 200.9C116.2 200.66 115.37 200.59 114.55 200.71C111.51 200.71 109.98 201.47 109.98 202.99C109.98 203.7 110.6 204.27 111.81 204.75C113.29 205.3 114.82 205.71 116.38 205.98C118.14 206.34 119.89 206.79 121.61 207.33C123.32 207.83 124.89 208.73 126.18 209.96C126.78 210.56 127.25 211.27 127.56 212.05C127.88 212.84 128.03 213.68 128 214.53C128 219.6 123.68 222.14 115.03 222.14C106.38 222.14 102.07 219.85 102.08 215.28C102.08 215.09 102.11 214.9 102.18 214.72C102.25 214.53 102.36 214.37 102.5 214.23C102.63 214.1 102.8 213.99 102.98 213.92C103.16 213.85 103.35 213.81 103.54 213.82L107.06 213.82C107.62 213.82 108.16 213.95 108.66 214.2C109.15 214.45 109.58 214.81 109.92 215.26C110.53 215.81 111.26 216.22 112.04 216.47C112.83 216.71 113.66 216.78 114.48 216.68C118.07 216.68 119.87 215.92 119.87 214.39C119.87 213.68 119.26 213.09 118.05 212.63C116.56 212.08 115.03 211.66 113.48 211.35C111.7 210.99 109.96 210.53 108.23 210C106.56 209.5 105.04 208.6 103.79 207.38C103.16 206.81 102.64 206.12 102.29 205.35C101.93 204.57 101.75 203.73 101.74 202.88Z" fill="#FFFFFF" fill-opacity="1.000000" fill-rule="nonzero"/>
	<path id="Vector" d="M150.77 216.36C149.64 215.17 148.77 213.76 148.2 212.22C147.64 210.68 147.39 209.04 147.48 207.4C147.39 205.72 147.69 204.05 148.33 202.5C148.98 200.96 149.97 199.58 151.23 198.47C154.3 196.13 158.11 194.99 161.96 195.25C164.35 195.26 166.73 195.52 169.07 196.02C171 196.35 172.86 196.98 174.59 197.9L174.59 219.71C174.71 221.19 174.45 222.68 173.85 224.03C173.25 225.39 172.32 226.57 171.14 227.48C168.25 229.32 164.84 230.2 161.42 230C158.13 230.15 154.84 229.61 151.78 228.42C150.75 228.01 149.87 227.3 149.27 226.37C148.66 225.45 148.36 224.36 148.4 223.26C148.39 223.06 148.42 222.87 148.49 222.69C148.56 222.51 148.67 222.34 148.81 222.2C148.95 222.07 149.11 221.96 149.29 221.89C149.47 221.82 149.67 221.79 149.86 221.79L153.38 221.79C153.89 221.78 154.41 221.88 154.88 222.09C155.35 222.31 155.77 222.63 156.09 223.03C156.69 223.62 157.4 224.08 158.19 224.36C158.98 224.64 159.83 224.74 160.66 224.65C162.27 224.82 163.88 224.43 165.23 223.55C165.69 223.03 166.03 222.42 166.24 221.76C166.45 221.1 166.52 220.4 166.44 219.71L166.44 218.62C164.14 219.23 161.78 219.55 159.41 219.58C157.82 219.65 156.25 219.4 154.76 218.84C153.28 218.29 151.92 217.44 150.77 216.36ZM161.48 200.96C157.76 200.96 155.89 203.08 155.89 207.4C155.89 211.72 157.72 213.87 161.35 213.87C163.07 213.84 164.78 213.6 166.44 213.16L166.44 201.48C164.82 201.08 163.15 200.9 161.48 200.96Z" fill="#FFFFFF" fill-opacity="1.000000" fill-rule="nonzero"/>
	<path id="Vector" d="M198.25 201.71L194.62 201.57C193.41 201.66 192.24 202.02 191.18 202.62C190.13 203.23 189.23 204.07 188.55 205.07L188.55 220.13C188.55 220.32 188.52 220.51 188.45 220.68C188.38 220.86 188.27 221.02 188.14 221.15C188 221.29 187.84 221.39 187.66 221.46C187.49 221.52 187.3 221.55 187.11 221.54L181.83 221.54C181.64 221.56 181.45 221.53 181.28 221.46C181.1 221.39 180.94 221.29 180.81 221.15C180.67 221.02 180.56 220.86 180.49 220.68C180.42 220.51 180.39 220.32 180.39 220.13L180.39 197.28C180.39 197.08 180.42 196.89 180.49 196.71C180.56 196.53 180.67 196.37 180.81 196.23C180.94 196.09 181.1 195.99 181.28 195.92C181.45 195.84 181.64 195.81 181.83 195.82L187.11 195.82C187.3 195.81 187.49 195.84 187.67 195.91C187.84 195.98 188 196.09 188.14 196.23C188.27 196.37 188.38 196.53 188.45 196.71C188.52 196.89 188.55 197.08 188.55 197.28L188.55 198.76C189.95 197.7 191.48 196.83 193.11 196.18C194.99 195.56 196.96 195.28 198.94 195.34C199.33 195.34 199.7 195.48 199.99 195.75C200.12 195.88 200.23 196.04 200.3 196.22C200.37 196.4 200.4 196.59 200.4 196.78L200.4 200.36C200.41 200.55 200.38 200.74 200.31 200.92C200.24 201.1 200.13 201.26 199.99 201.39C199.85 201.53 199.69 201.63 199.51 201.7C199.33 201.77 199.13 201.81 198.94 201.8L198.25 201.71Z" fill="#FFFFFF" fill-opacity="1.000000" fill-rule="nonzero"/>
	<path id="Vector" d="M206.04 218.64C203.67 215.85 202.36 212.31 202.36 208.65C202.36 204.98 203.67 201.44 206.04 198.65C209.12 196.44 212.81 195.24 216.6 195.24C220.39 195.24 224.09 196.44 227.17 198.65C229.54 201.44 230.84 204.98 230.84 208.65C230.84 212.31 229.54 215.85 227.17 218.64C224.08 220.83 220.39 222 216.6 222C212.82 222 209.13 220.83 206.04 218.64ZM212 202.51C211.04 204.4 210.54 206.5 210.54 208.62C210.54 210.75 211.04 212.84 212 214.73C213.21 215.94 214.86 216.62 216.57 216.62C218.28 216.62 219.93 215.94 221.14 214.73C222.1 212.84 222.6 210.75 222.6 208.62C222.6 206.5 222.1 204.4 221.14 202.51C219.91 201.32 218.28 200.66 216.57 200.66C214.86 200.66 213.22 201.32 212 202.51Z" fill="#FFFFFF" fill-opacity="1.000000" fill-rule="nonzero"/>
	<path id="Vector" d="M232.74 197.8C232.62 197.47 232.55 197.13 232.51 196.78C232.51 196.09 232.92 195.75 233.7 195.73L238.08 195.73C238.78 195.72 239.47 195.91 240.07 196.27C240.63 196.63 241.05 197.17 241.26 197.8L245.12 210.51L248.93 197.8C249.06 197.19 249.4 196.65 249.9 196.27C250.39 195.89 251 195.7 251.63 195.73L255.78 195.73C256.41 195.69 257.03 195.87 257.52 196.26C258.02 196.64 258.36 197.19 258.48 197.8L262.29 210.51L266.15 197.8C266.36 197.17 266.79 196.63 267.36 196.27C267.96 195.9 268.65 195.71 269.35 195.73L273.71 195.73C274.49 195.73 274.88 196.09 274.9 196.78C274.89 197.13 274.82 197.48 274.69 197.8L267.54 219.49C267.34 220.11 266.93 220.64 266.38 220.99C265.84 221.35 265.2 221.54 264.55 221.54L261.24 221.54C260.58 221.54 259.94 221.34 259.39 220.97C258.85 220.63 258.44 220.1 258.25 219.49L253.68 205.44L249.11 219.49C248.91 220.1 248.5 220.63 247.95 220.97C247.41 221.34 246.78 221.54 246.12 221.54L242.86 221.54C242.21 221.54 241.59 221.35 241.05 220.99C240.5 220.64 240.08 220.11 239.86 219.49L232.74 197.8Z" fill="#FFFFFF" fill-opacity="1.000000" fill-rule="nonzero"/>
	<path id="Vector" d="M307.44 216.45L310.69 216.15L311.55 216.15C311.75 216.14 311.94 216.18 312.12 216.25C312.3 216.32 312.47 216.43 312.6 216.56C312.74 216.7 312.85 216.86 312.92 217.03C312.99 217.21 313.02 217.4 313.01 217.59L313.01 220.13C313.01 220.3 312.98 220.47 312.9 220.63C312.83 220.78 312.73 220.92 312.6 221.04C312.32 221.32 311.95 221.5 311.55 221.54C309.48 221.9 307.38 222.06 305.27 222.02C298.54 222.02 295.17 218.49 295.16 211.42L295.16 189.21C295.15 188.82 295.3 188.45 295.57 188.16C295.7 188.03 295.86 187.93 296.04 187.86C296.22 187.79 296.41 187.76 296.59 187.77L301.87 187.77C302.06 187.76 302.25 187.79 302.42 187.86C302.6 187.93 302.76 188.03 302.9 188.16C303.17 188.45 303.32 188.82 303.31 189.21L303.31 197.1L309.89 197.1C310.26 197.09 310.62 197.23 310.89 197.48C311.03 197.62 311.14 197.78 311.22 197.97C311.29 198.15 311.33 198.34 311.32 198.54L311.32 201.32C311.33 201.52 311.29 201.71 311.22 201.89C311.14 202.07 311.03 202.24 310.89 202.37C310.76 202.5 310.6 202.6 310.43 202.67C310.26 202.74 310.07 202.77 309.89 202.76L303.31 202.76L303.31 211.4C303.22 212.73 303.62 214.04 304.43 215.1C304.79 215.54 305.26 215.89 305.78 216.12C306.3 216.36 306.87 216.47 307.44 216.45Z" fill="#FFFFFF" fill-opacity="1.000000" fill-rule="nonzero"/>
	<path id="Vector" d="M318.86 218.64C316.49 215.85 315.18 212.31 315.18 208.65C315.18 204.98 316.49 201.44 318.86 198.65C321.94 196.44 325.63 195.24 329.42 195.24C333.21 195.24 336.91 196.44 339.99 198.65C342.36 201.44 343.66 204.98 343.66 208.65C343.66 212.31 342.36 215.85 339.99 218.64C336.9 220.83 333.21 222 329.42 222C325.64 222 321.95 220.83 318.86 218.64ZM324.82 202.51C323.86 204.4 323.36 206.5 323.36 208.62C323.36 210.75 323.86 212.84 324.82 214.73C325.37 215.4 326.07 215.93 326.87 216.27C327.66 216.61 328.53 216.75 329.39 216.68C330.25 216.74 331.12 216.6 331.91 216.26C332.71 215.92 333.41 215.4 333.96 214.73C334.93 212.84 335.44 210.75 335.44 208.62C335.44 206.5 334.93 204.4 333.96 202.51C333.4 201.86 332.7 201.34 331.9 201.01C331.11 200.68 330.25 200.55 329.39 200.61C328.53 200.54 327.67 200.67 326.87 201C326.08 201.33 325.37 201.85 324.82 202.51Z" fill="#FFFFFF" fill-opacity="1.000000" fill-rule="nonzero"/>
	<path id="Vector" d="M349.81 216.36C348.68 215.17 347.8 213.76 347.24 212.22C346.67 210.68 346.43 209.04 346.52 207.4C346.43 205.72 346.72 204.05 347.37 202.5C348.02 200.96 349.01 199.58 350.26 198.47C353.34 196.13 357.16 194.98 361.02 195.25C363.4 195.27 365.77 195.53 368.1 196.02C370.04 196.36 371.91 196.99 373.65 197.9L373.65 219.71C373.76 221.2 373.5 222.68 372.9 224.04C372.29 225.39 371.36 226.58 370.18 227.48C367.29 229.32 363.89 230.2 360.47 230C357.18 230.15 353.9 229.62 350.83 228.42C349.81 228.02 348.93 227.3 348.32 226.38C347.71 225.45 347.41 224.36 347.45 223.26C347.45 223.06 347.48 222.87 347.55 222.69C347.62 222.51 347.73 222.34 347.87 222.21C348.01 222.07 348.17 221.96 348.35 221.89C348.53 221.82 348.72 221.79 348.92 221.79L352.48 221.79C353 221.77 353.51 221.88 353.98 222.09C354.46 222.3 354.87 222.62 355.2 223.03C355.79 223.62 356.51 224.07 357.3 224.35C358.09 224.63 358.93 224.74 359.76 224.65C361.37 224.83 362.99 224.45 364.33 223.55C364.79 223.03 365.14 222.43 365.36 221.76C365.57 221.1 365.64 220.4 365.57 219.71L365.57 218.62C363.26 219.23 360.89 219.55 358.51 219.58C356.92 219.66 355.32 219.41 353.83 218.86C352.33 218.3 350.96 217.45 349.81 216.36ZM360.52 200.96C356.8 200.96 354.95 203.08 354.95 207.4C354.95 211.72 356.75 213.87 360.38 213.87C362.11 213.84 363.83 213.6 365.5 213.16L365.5 201.48C363.87 201.08 362.19 200.91 360.52 200.96Z" fill="#FFFFFF" fill-opacity="1.000000" fill-rule="nonzero"/>
	<path id="Vector" d="M381.6 218.59C379.25 215.82 377.96 212.3 377.96 208.67C377.96 205.03 379.25 201.51 381.6 198.74C384.5 196.5 388.05 195.29 391.72 195.29C395.38 195.29 398.93 196.5 401.83 198.74C403.09 200.01 404.06 201.52 404.69 203.19C405.32 204.86 405.58 206.65 405.46 208.43L405.46 209.78C405.47 210.17 405.32 210.54 405.05 210.83C404.92 210.96 404.75 211.07 404.57 211.14C404.39 211.21 404.2 211.25 404 211.24L386.26 211.24C386.27 212.8 386.87 214.3 387.92 215.44C389.23 216.44 390.86 216.92 392.49 216.77C393.26 216.86 394.05 216.78 394.78 216.53C395.52 216.29 396.2 215.89 396.76 215.35C397.1 214.91 397.53 214.56 398.03 214.31C398.52 214.06 399.06 213.92 399.62 213.91L403.13 213.91C403.33 213.9 403.52 213.94 403.7 214.01C403.88 214.08 404.05 214.19 404.18 214.33C404.32 214.46 404.43 214.63 404.5 214.81C404.57 214.99 404.6 215.18 404.6 215.37C404.6 219.94 400.3 222.23 391.72 222.23C388 222.39 384.36 221.08 381.6 218.59ZM386.17 206.17L397.13 206.17C396.97 202.46 395.14 200.61 391.67 200.61C388.2 200.61 386.44 202.46 386.23 206.17L386.17 206.17Z" fill="#FFFFFF" fill-opacity="1.000000" fill-rule="nonzero"/>
	<path id="Vector" d="M422.11 216.45L425.33 216.15L426.22 216.15C426.61 216.14 426.99 216.29 427.27 216.56C427.41 216.7 427.52 216.86 427.59 217.03C427.66 217.21 427.69 217.4 427.69 217.59L427.69 220.13C427.68 220.3 427.65 220.47 427.57 220.63C427.5 220.78 427.4 220.92 427.27 221.04C426.99 221.32 426.62 221.49 426.22 221.54C424.15 221.9 422.05 222.06 419.94 222.02C413.2 222.02 409.83 218.49 409.83 211.42L409.83 189.21C409.82 188.82 409.97 188.45 410.24 188.16C410.37 188.03 410.53 187.93 410.71 187.86C410.89 187.79 411.08 187.76 411.26 187.77L416.54 187.77C416.73 187.76 416.92 187.79 417.09 187.86C417.27 187.93 417.43 188.03 417.57 188.16C417.84 188.45 417.99 188.82 417.98 189.21L417.98 197.1L424.53 197.1C424.91 197.09 425.28 197.23 425.56 197.48C425.7 197.62 425.81 197.79 425.88 197.97C425.95 198.15 425.98 198.34 425.97 198.54L425.97 201.32C425.98 201.52 425.95 201.71 425.88 201.89C425.81 202.07 425.7 202.24 425.56 202.37C425.43 202.51 425.27 202.61 425.09 202.68C424.91 202.74 424.72 202.77 424.53 202.76L417.98 202.76L417.98 211.4C417.89 212.73 418.29 214.04 419.1 215.1C419.46 215.54 419.93 215.89 420.45 216.12C420.97 216.36 421.54 216.47 422.11 216.45Z" fill="#FFFFFF" fill-opacity="1.000000" fill-rule="nonzero"/>
	<path id="Vector" d="M431.54 220.13L431.54 189.21C431.54 188.82 431.69 188.45 431.96 188.16C432.09 188.03 432.25 187.93 432.43 187.86C432.61 187.79 432.79 187.76 432.98 187.77L438.26 187.77C438.45 187.76 438.64 187.79 438.81 187.86C438.99 187.93 439.15 188.03 439.29 188.16C439.56 188.45 439.7 188.82 439.7 189.21L439.7 198.67C442.06 196.52 445.13 195.3 448.33 195.25C449.7 195.19 451.06 195.41 452.34 195.9C453.62 196.38 454.79 197.11 455.78 198.06C456.81 199.21 457.6 200.56 458.09 202.03C458.59 203.5 458.78 205.06 458.65 206.6L458.65 220.13C458.66 220.31 458.62 220.5 458.55 220.67C458.48 220.84 458.38 221 458.24 221.13C458.11 221.27 457.94 221.38 457.76 221.45C457.58 221.52 457.39 221.55 457.19 221.54L451.94 221.54C451.75 221.55 451.56 221.51 451.38 221.44C451.21 221.37 451.05 221.27 450.91 221.13C450.78 221 450.67 220.84 450.6 220.67C450.53 220.5 450.5 220.31 450.5 220.13L450.5 206.6C450.5 202.83 448.99 200.96 445.93 200.96C444.71 201.08 443.53 201.44 442.44 202.02C441.36 202.6 440.41 203.39 439.63 204.34L439.63 220.13C439.63 220.31 439.6 220.5 439.53 220.67C439.46 220.84 439.35 221 439.22 221.13C439.08 221.27 438.92 221.37 438.75 221.44C438.57 221.51 438.38 221.55 438.19 221.54L432.91 221.54C432.72 221.55 432.54 221.51 432.36 221.44C432.18 221.37 432.02 221.27 431.89 221.13C431.77 221 431.67 220.84 431.61 220.66C431.55 220.49 431.53 220.31 431.54 220.13Z" fill="#FFFFFF" fill-opacity="1.000000" fill-rule="nonzero"/>
	<path id="Vector" d="M466.67 218.59C464.32 215.82 463.04 212.3 463.04 208.67C463.04 205.03 464.32 201.52 466.67 198.74C469.45 196.28 473.09 195.02 476.79 195.25C480.47 195.02 484.09 196.24 486.88 198.65C488.14 199.91 489.11 201.43 489.74 203.1C490.37 204.77 490.63 206.56 490.51 208.34L490.51 209.68C490.52 210.08 490.37 210.45 490.1 210.74C489.96 210.87 489.8 210.98 489.62 211.05C489.44 211.12 489.25 211.15 489.05 211.15L471.24 211.15C471.24 212.7 471.83 214.2 472.88 215.35C474.19 216.35 475.82 216.82 477.45 216.68C478.22 216.76 479.01 216.68 479.75 216.44C480.49 216.2 481.17 215.79 481.74 215.26C482.08 214.82 482.51 214.46 483 214.21C483.5 213.96 484.04 213.83 484.6 213.82L488.09 213.82C488.29 213.81 488.48 213.85 488.66 213.92C488.84 213.99 489.01 214.09 489.14 214.23C489.28 214.37 489.38 214.53 489.46 214.71C489.53 214.9 489.56 215.09 489.55 215.28C489.55 219.85 485.26 222.14 476.67 222.14C473.01 222.29 469.42 221.02 466.67 218.59ZM471.24 206.17L482.18 206.17C482.02 202.47 480.21 200.61 476.72 200.61C473.22 200.61 471.44 202.47 471.24 206.17Z" fill="#FFFFFF" fill-opacity="1.000000" fill-rule="nonzero"/>
	<path id="Vector" d="M512.69 201.71L509.06 201.57C507.85 201.66 506.67 202.02 505.62 202.63C504.57 203.23 503.67 204.07 502.98 205.07L502.98 220.13C502.99 220.32 502.95 220.51 502.88 220.68C502.81 220.86 502.71 221.02 502.57 221.15C502.44 221.29 502.28 221.39 502.1 221.46C501.92 221.52 501.73 221.55 501.54 221.54L496.36 221.54C496.17 221.56 495.98 221.53 495.8 221.46C495.63 221.39 495.46 221.29 495.33 221.15C495.2 221.02 495.09 220.86 495.02 220.68C494.95 220.51 494.92 220.32 494.92 220.13L494.92 197.28C494.91 197.08 494.95 196.89 495.02 196.71C495.09 196.53 495.2 196.37 495.33 196.23C495.47 196.09 495.63 195.99 495.8 195.92C495.98 195.84 496.17 195.81 496.36 195.82L501.64 195.82C501.83 195.81 502.02 195.84 502.19 195.91C502.37 195.98 502.53 196.09 502.66 196.23C502.8 196.37 502.91 196.53 502.98 196.71C503.05 196.89 503.08 197.08 503.07 197.28L503.07 198.76C504.47 197.7 506.01 196.83 507.64 196.18C509.52 195.57 511.49 195.28 513.46 195.34C513.85 195.34 514.23 195.48 514.52 195.75C514.65 195.88 514.75 196.04 514.82 196.22C514.89 196.4 514.93 196.59 514.93 196.78L514.93 200.36C514.94 200.55 514.9 200.74 514.83 200.92C514.76 201.1 514.65 201.26 514.52 201.39C514.38 201.53 514.21 201.63 514.03 201.7C513.85 201.77 513.66 201.81 513.46 201.8L512.69 201.71Z" fill="#FFFFFF" fill-opacity="1.000000" fill-rule="nonzero"/>
	<path id="Vector" d="M178.43 118.62L178.43 118.75L171.17 146.33C170.93 147.4 170.8 148.5 170.78 149.6C170.89 151.19 171.53 152.7 172.58 153.89C173.33 154.76 174.27 155.44 175.33 155.87C176.39 156.3 177.54 156.47 178.68 156.36L200.17 156.36C203.11 156.32 205.95 155.3 208.23 153.46C210.69 151.67 212.43 149.06 213.12 146.1L220.38 118.69L220.38 118.57L178.43 118.62Z" fill="#FFFFFF" fill-opacity="1.000000" fill-rule="nonzero"/>
	<path id="Vector" d="M331.19 0.11C330.67 0.06 330.14 0.06 329.62 0.11L289.38 0.11L265.08 0.11C242.24 0.93 225.07 6.55 213.58 16.97C213.03 17.45 212.5 17.93 212 18.46C205.39 25.09 200.73 33.41 198.53 42.51L178.48 118.59L244.71 118.59C267.44 117.77 284.55 112.2 296.05 101.87C296.59 101.39 297.12 100.89 297.65 100.38C304.36 93.74 309.1 85.37 311.35 76.19L331.4 0.11L331.19 0.11ZM271.68 65.98C270.33 71.18 267.59 75.92 263.75 79.69C263.23 80.19 262.68 80.69 262.11 81.17L261.15 81.92C256.68 85.33 251.31 87.35 245.71 87.75L228.47 87.75L238.04 52.75C239.35 47.56 242.04 42.82 245.83 39.04C246.35 38.54 246.9 38.04 247.47 37.56L248.57 36.66C253.04 33.26 258.4 31.24 264 30.84L281.27 30.84L271.68 65.98Z" fill="#FFFFFF" fill-opacity="1.000000" fill-rule="nonzero"/>
	<path id="Vector" d="M321.53 76.6C318.2 90.71 309.75 103.09 297.83 111.33L297.83 118.53L297.83 145.94C297.78 147.3 298.01 148.66 298.5 149.92C299 151.19 299.75 152.34 300.71 153.3C301.67 154.26 302.82 155.02 304.08 155.52C305.35 156.02 306.7 156.25 308.06 156.2L328.61 156.2C329.96 156.22 331.3 155.98 332.56 155.48C333.81 154.98 334.95 154.24 335.92 153.3C336.9 152.39 337.68 151.29 338.2 150.06C338.72 148.83 338.98 147.5 338.96 146.17L338.96 10.5L321.53 76.6Z" fill="#FFFFFF" fill-opacity="1.000000" fill-rule="nonzero"/>
</svg>
