<svg width="800" height="800" viewBox="0 0 515 231" fill="none" xmlns="http://www.w3.org/2000/svg"><path d="M0 146.33V10.55c-.04-1.39.21-2.78.74-4.07.52-1.3 1.3-2.47 2.29-3.45.95-.97 2.09-1.75 3.34-2.27C7.63.24 8.98-.02 10.34 0h60.93c31.55 0 54.5 6.3 68.84 18.91 14.34 12.61 21.52 32.41 21.53 59.4 0 26.93-7.17 46.69-21.53 59.27-14.36 12.58-37.3 18.87-68.84 18.87H10.34c-1.35.02-2.69-.22-3.94-.72-1.26-.5-2.4-1.24-3.37-2.18a9.332 9.332 0 01-2.3-3.28 9.177 9.177 0 01-.73-3.94zm41.1-20.84h28.98c19.55 0 32.85-3.56 39.9-10.69 7.05-7.13 10.58-19.31 10.58-36.55 0-17.28-3.53-29.46-10.58-36.56-7.05-7.1-20.35-10.68-39.9-10.74H41.1v94.54z" fill="#1F1B1C"/><path d="M220.38 118.62v.11h18.5c1.99 0 3.93 0 5.85-.11h-24.35z" fill="#84C551"/><path d="M355.95 20.6V10.34c-.04-1.37.19-2.73.7-4.01.5-1.27 1.26-2.43 2.23-3.4.97-.97 2.13-1.73 3.4-2.24 1.28-.5 2.65-.74 4.02-.7h138.33c1.37-.04 2.73.19 4.01.7a9.934 9.934 0 015.64 5.64c.5 1.28.74 2.64.69 4.01V20.6a10.015 10.015 0 01-2.92 7.36c-.98.95-2.15 1.7-3.42 2.19-1.28.5-2.64.73-4 .69H456v115.49c.03 1.33-.22 2.65-.74 3.88a9.4 9.4 0 01-2.25 3.25c-.95.94-2.08 1.68-3.32 2.18-1.25.5-2.58.75-3.92.72h-20.55c-1.34.03-2.68-.22-3.93-.71-1.24-.5-2.38-1.25-3.33-2.19a9.564 9.564 0 01-2.26-3.25 9.744 9.744 0 01-.74-3.88V30.91h-48.62c-1.36.04-2.72-.2-3.99-.69a10.17 10.17 0 01-3.41-2.19 9.931 9.931 0 01-2.28-3.4 9.919 9.919 0 01-.71-4.03z" fill="#1F1B1C"/><path d="M3.06 219.39v-29.33c-.01-.31.05-.61.16-.89a2.232 2.232 0 011.22-1.24c.27-.11.56-.16.85-.16h4.62c.29 0 .57.05.84.16s.51.28.71.48c.21.22.38.48.5.76.11.28.17.58.16.89v24.83h20.56c.29 0 .58.05.86.17.27.11.51.28.71.5.41.42.64.98.64 1.57v2.29c-.01.58-.23 1.13-.64 1.55-.2.21-.45.37-.72.48-.27.11-.56.17-.85.16H5.34c-.59 0-1.15-.22-1.58-.62-.23-.19-.41-.44-.54-.71-.12-.28-.18-.58-.16-.89zm37.22-.8a15.349 15.349 0 010-19.85c2.9-2.24 6.46-3.45 10.12-3.45 3.66 0 7.22 1.21 10.12 3.45a12.645 12.645 0 013.63 9.69v1.35c0 .39-.14.76-.41 1.05-.14.13-.31.24-.49.31s-.37.11-.56.1H44.94c.02 1.56.61 3.06 1.67 4.2 1.3 1 2.93 1.48 4.56 1.33.78.09 1.56.01 2.3-.24.74-.24 1.41-.64 1.98-1.18.33-.44.77-.79 1.26-1.04s1.04-.39 1.59-.4h3.52c.19-.01.39.03.57.1.18.07.34.18.48.31.13.14.24.31.31.49s.11.37.1.56c0 4.57-4.29 6.86-12.88 6.86-3.72.16-7.35-1.15-10.12-3.64zm4.57-12.42h10.96c-.16-3.71-1.96-5.56-5.46-5.56-3.49 0-5.23 1.85-5.43 5.56h-.07zm35.86 10.28l3.24-.3h.87c.19-.01.38.03.56.1.18.07.35.18.49.31.13.14.24.3.31.47.07.18.1.37.1.56v2.54c0 .17-.04.34-.11.5-.07.15-.18.29-.3.41-.29.28-.66.46-1.05.5-2.08.36-4.18.52-6.28.48-6.73 0-10.11-3.53-10.12-10.6v-22.21c-.01-.39.14-.76.41-1.05.13-.13.3-.23.47-.3.18-.07.37-.1.56-.09h5.27c.19-.01.38.02.56.09.17.07.34.17.47.3.27.29.42.66.41 1.05v7.89h6.56c.38-.01.74.13 1.02.38.14.14.25.31.32.49s.1.37.09.57v2.78c.01.2-.02.39-.09.57-.07.18-.18.35-.32.48-.13.14-.29.24-.47.31a1.5 1.5 0 01-.55.08h-6.56v8.64c-.09 1.33.31 2.64 1.12 3.7.37.44.83.79 1.35 1.02.52.24 1.09.35 1.67.33zm14.63-28.68c2.01 0 3.04.74 3.04 2.29-.02.5-.13.99-.34 1.44l-2.81 7.1c-.31.76-.82 1.42-1.46 1.92-.65.52-1.46.8-2.29.78h-.93c-.98 0-1.6-.21-1.87-.62-.25-.38-.39-.82-.39-1.28-.03-.42-.03-.85 0-1.28l1.39-7.58c.17-.78.64-1.47 1.3-1.92.66-.5 1.46-.77 2.29-.78l2.07-.07zm6.4 15.11c0-5.11 4.1-7.65 12.29-7.63 8.58 0 12.9 2.28 12.9 6.85 0 .19-.03.38-.1.55-.07.18-.18.34-.31.47-.14.14-.3.24-.47.32-.18.07-.37.1-.56.1h-3.52c-.55 0-1.1-.12-1.59-.37-.5-.25-.93-.6-1.26-1.05a5.67 5.67 0 00-2.13-1.22c-.79-.24-1.62-.31-2.44-.19-3.04 0-4.57.76-4.57 2.28 0 .71.62 1.28 1.83 1.76 1.48.55 3.01.96 4.57 1.23 1.76.36 3.51.81 5.23 1.35 1.71.5 3.28 1.4 4.57 2.63.6.6 1.07 1.31 1.38 2.09.32.79.47 1.63.44 2.48 0 5.07-4.32 7.61-12.97 7.61s-12.96-2.29-12.95-6.86c0-.19.03-.38.1-.56.07-.19.18-.35.32-.49.13-.13.3-.24.48-.31s.37-.11.56-.1h3.52a3.555 3.555 0 012.86 1.44c.61.55 1.34.96 2.12 1.21.79.24 1.63.31 2.44.21 3.59 0 5.39-.76 5.39-2.29 0-.71-.61-1.3-1.82-1.76-1.49-.55-3.02-.97-4.57-1.28-1.78-.36-3.52-.82-5.25-1.35-1.67-.5-3.19-1.4-4.43-2.62a6.048 6.048 0 01-2.06-4.5zm49.03 13.48c-1.13-1.19-2-2.6-2.57-4.14-.56-1.54-.81-3.18-.72-4.82-.09-1.68.21-3.35.85-4.9a11.15 11.15 0 012.9-4.03 15.92 15.92 0 0110.73-3.22c2.39.01 4.77.27 7.11.77 1.93.33 3.79.96 5.52 1.88v21.81a8.89 8.89 0 01-.74 4.32 8.877 8.877 0 01-2.71 3.45 16.36 16.36 0 01-9.72 2.52c-3.29.15-6.57-.39-9.64-1.58a5.315 5.315 0 01-2.51-2.05 5.28 5.28 0 01-.87-3.11c-.01-.2.02-.39.09-.57.07-.18.18-.35.32-.49.14-.13.3-.24.48-.31s.38-.1.57-.1h3.52c.51-.01 1.03.09 1.5.3.47.22.89.54 1.21.94.59.59 1.31 1.05 2.1 1.33s1.64.38 2.47.29c1.61.17 3.22-.22 4.57-1.1a4.968 4.968 0 001.21-3.84v-1.09c-2.3.61-4.66.93-7.03.96-1.59.07-3.16-.18-4.65-.74a11.9 11.9 0 01-3.99-2.48zm10.71-15.4c-3.72 0-5.59 2.12-5.59 6.44s1.83 6.47 5.46 6.47c1.72-.03 3.43-.27 5.09-.71v-11.68c-1.62-.4-3.29-.58-4.96-.52zm36.77.75l-3.63-.14c-1.21.09-2.38.45-3.44 1.05a8.112 8.112 0 00-2.63 2.45v15.06c0 .19-.03.38-.1.55a1.376 1.376 0 01-.79.78c-.17.06-.36.09-.55.08h-5.28c-.19.02-.38-.01-.55-.08-.18-.07-.34-.17-.47-.31a1.27 1.27 0 01-.32-.47c-.07-.17-.1-.36-.1-.55v-22.85a1.394 1.394 0 01.42-1.05c.13-.14.29-.24.47-.31.17-.08.36-.11.55-.1h5.28c.19-.01.38.02.56.09.17.07.33.18.47.32.13.14.24.3.31.48s.1.37.1.57v1.48c1.4-1.06 2.93-1.93 4.56-2.58 1.88-.62 3.85-.9 5.83-.84.39 0 .76.14 1.05.41.13.13.24.29.31.47s.1.37.1.56v3.58c.01.19-.02.38-.09.56-.07.18-.18.34-.32.47-.14.14-.3.24-.48.31s-.38.11-.57.1l-.69-.09zm7.79 16.93a15.438 15.438 0 01-3.68-9.99c0-3.67 1.31-7.21 3.68-10 3.08-2.21 6.77-3.41 10.56-3.41 3.79 0 7.49 1.2 10.57 3.41 2.37 2.79 3.67 6.33 3.67 10 0 3.66-1.3 7.2-3.67 9.99A18.266 18.266 0 01216.6 222c-3.78 0-7.47-1.17-10.56-3.36zm5.96-16.13a13.51 13.51 0 000 12.22 6.472 6.472 0 009.14 0 13.51 13.51 0 000-12.22 6.573 6.573 0 00-9.14 0zm20.74-4.71c-.12-.33-.19-.67-.23-1.02 0-.69.41-1.03 1.19-1.05h4.38c.7-.01 1.39.18 1.99.54.56.36.98.9 1.19 1.53l3.86 12.71 3.81-12.71c.13-.61.47-1.15.97-1.53.49-.38 1.1-.57 1.73-.54h4.15c.63-.04 1.24.14 1.74.53.5.38.84.93.96 1.54l3.81 12.71 3.86-12.71c.21-.63.64-1.17 1.21-1.53.6-.37 1.29-.56 1.99-.54h4.36c.78 0 1.17.36 1.19 1.05-.01.35-.08.7-.21 1.02l-7.15 21.69c-.2.62-.61 1.15-1.16 1.5-.54.36-1.18.55-1.83.55h-3.31c-.66 0-1.3-.2-1.85-.57-.54-.34-.95-.87-1.14-1.48l-4.57-14.05-4.57 14.05c-.2.61-.61 1.14-1.16 1.48-.54.37-1.18.57-1.83.57h-3.26c-.65 0-1.27-.19-1.81-.55-.56-.35-.97-.88-1.19-1.5l-7.12-21.69zm74.7 18.65l3.25-.3h.86c.2-.01.39.03.57.1.18.07.35.18.48.31.14.14.25.3.32.47.07.18.1.37.09.56v2.54c0 .17-.04.34-.11.5-.07.15-.17.29-.3.41-.28.28-.65.46-1.05.5-2.07.36-4.17.52-6.28.48-6.73 0-10.1-3.53-10.11-10.6v-22.21c-.01-.39.14-.76.41-1.05.13-.13.29-.23.47-.3.18-.07.37-.1.56-.09h5.27c.19-.01.38.02.55.09.18.07.34.17.48.3.27.29.42.66.41 1.05v7.89h6.58c.37-.01.73.13 1 .38.14.14.25.3.33.49.07.18.11.37.1.57v2.78c.01.2-.03.39-.1.57a1.469 1.469 0 01-.79.78c-.17.07-.36.1-.54.09h-6.58v8.64c-.09 1.33.31 2.64 1.12 3.7.36.44.83.79 1.35 1.02.52.24 1.09.35 1.66.33zm11.42 2.19a15.438 15.438 0 01-3.68-9.99c0-3.67 1.31-7.21 3.68-10 3.08-2.21 6.77-3.41 10.56-3.41 3.8 0 7.49 1.2 10.57 3.41 2.37 2.79 3.67 6.33 3.67 10 0 3.66-1.3 7.2-3.67 9.99a18.266 18.266 0 01-10.57 3.36c-3.78 0-7.47-1.17-10.56-3.36zm5.96-16.13a13.51 13.51 0 000 12.22c.55.67 1.25 1.2 2.05 1.54.79.34 1.66.48 2.52.41.86.06 1.73-.08 2.52-.42.8-.34 1.5-.86 2.05-1.53.97-1.89 1.48-3.98 1.48-6.11 0-2.12-.51-4.22-1.48-6.11a5.487 5.487 0 00-2.06-1.5 5.51 5.51 0 00-2.51-.4c-.86-.07-1.72.06-2.52.39-.79.33-1.5.85-2.05 1.51zm24.99 13.85c-1.13-1.19-2.01-2.6-2.57-4.14-.57-1.54-.81-3.18-.72-4.82-.09-1.68.2-3.35.85-4.9.65-1.54 1.64-2.92 2.89-4.03 3.08-2.34 6.9-3.49 10.76-3.22 2.38.02 4.75.28 7.08.77 1.94.34 3.81.97 5.55 1.88v21.81c.11 1.49-.15 2.97-.76 4.33a8.846 8.846 0 01-2.71 3.44 16.31 16.31 0 01-9.71 2.52c-3.29.15-6.57-.38-9.64-1.58a5.39 5.39 0 01-2.51-2.04c-.61-.93-.91-2.02-.87-3.12 0-.2.03-.39.1-.57.07-.18.18-.35.32-.48a1.394 1.394 0 011.05-.42h3.56c.52-.02 1.03.09 1.5.3.48.21.89.53 1.22.94.59.59 1.31 1.04 2.1 1.32s1.63.39 2.46.3c1.61.18 3.23-.2 4.57-1.1.46-.52.81-1.12 1.03-1.79.21-.66.28-1.36.2-2.05v-1.09c-2.3.61-4.67.93-7.05.96-1.59.08-3.19-.17-4.68-.72-1.5-.56-2.87-1.41-4.02-2.5zm10.71-15.4c-3.72 0-5.57 2.12-5.57 6.44s1.8 6.47 5.43 6.47c1.73-.03 3.45-.27 5.12-.71v-11.68c-1.63-.4-3.31-.57-4.98-.52zm21.08 17.63a15.349 15.349 0 010-19.85c2.9-2.24 6.45-3.45 10.12-3.45 3.66 0 7.21 1.21 10.11 3.45 1.26 1.27 2.23 2.78 2.86 4.45.63 1.67.89 3.46.77 5.24v1.35c.01.39-.14.76-.41 1.05-.13.13-.3.24-.48.31s-.37.11-.57.1h-17.74c.01 1.56.61 3.06 1.66 4.2a6.55 6.55 0 004.57 1.33c.77.09 1.56.01 2.29-.24.74-.24 1.42-.64 1.98-1.18.34-.44.77-.79 1.27-1.04.49-.25 1.03-.39 1.59-.4h3.51c.2-.01.39.03.57.1.18.07.35.18.48.32.14.13.25.3.32.48s.1.37.1.56c0 4.57-4.3 6.86-12.88 6.86-3.72.16-7.36-1.15-10.12-3.64zm4.57-12.42h10.96c-.16-3.71-1.99-5.56-5.46-5.56-3.47 0-5.23 1.85-5.44 5.56h-.06zm35.94 10.28l3.22-.3h.89c.39-.01.77.14 1.05.41.14.14.25.3.32.47.07.18.1.37.1.56v2.54a1.313 1.313 0 01-.42.91c-.28.28-.65.45-1.05.5-2.07.36-4.17.52-6.28.48-6.74 0-10.11-3.53-10.11-10.6v-22.21c-.01-.39.14-.76.41-1.05.13-.13.29-.23.47-.3.18-.07.37-.1.56-.09h5.27c.19-.01.38.02.55.09.18.07.34.17.48.3.27.29.42.66.41 1.05v7.89h6.55c.38-.01.75.13 1.03.38.14.14.25.31.32.49s.1.37.09.57v2.78c.01.2-.02.39-.09.57-.07.18-.18.35-.32.48-.13.14-.29.24-.47.31-.18.06-.37.09-.56.08h-6.55v8.64c-.09 1.33.31 2.64 1.12 3.7.36.44.83.79 1.35 1.02.52.24 1.09.35 1.66.33zm9.44 3.68v-30.92c-.01-.39.14-.76.41-1.05.13-.13.29-.23.47-.3.18-.07.37-.1.55-.09h5.28c.19-.01.38.02.55.09.18.07.34.17.48.3.27.29.42.66.41 1.05v9.46c2.36-2.15 5.43-3.37 8.63-3.42 1.37-.06 2.73.16 4.01.65 1.28.48 2.45 1.21 3.44 2.16 1.03 1.15 1.82 2.5 2.31 3.97.5 1.47.69 3.03.56 4.57v13.53c.01.18-.02.37-.1.54-.07.17-.17.33-.31.46-.13.14-.3.25-.48.32s-.37.1-.57.09h-5.25c-.19.01-.38-.03-.56-.1a1.423 1.423 0 01-.78-.77c-.07-.17-.1-.36-.1-.54V206.6c0-3.77-1.51-5.64-4.57-5.64-1.22.12-2.4.48-3.48 1.06a9.3 9.3 0 00-2.82 2.32v15.79c.01.18-.03.37-.1.54a1.436 1.436 0 01-.78.77c-.18.07-.37.11-.56.1h-5.27c-.2.01-.38-.03-.56-.1a1.245 1.245 0 01-.75-.78c-.06-.17-.08-.35-.06-.53zm35.12-1.54a15.333 15.333 0 01-3.63-9.92c0-3.64 1.28-7.15 3.63-9.93a13.97 13.97 0 0110.12-3.49c3.68-.23 7.3.99 10.09 3.4a12.55 12.55 0 013.63 9.69v1.34c.01.4-.14.77-.41 1.06-.14.13-.3.24-.48.31s-.37.1-.57.1h-17.81c0 1.55.59 3.05 1.64 4.2 1.31 1 2.93 1.47 4.57 1.33.77.08 1.56 0 2.3-.24a5.37 5.37 0 001.99-1.18c.34-.44.77-.8 1.26-1.05a3.7 3.7 0 011.6-.39h3.49c.2-.01.39.03.57.1.18.07.35.17.48.31.14.14.25.3.32.48.07.19.1.38.09.57 0 4.57-4.29 6.86-12.88 6.86-3.66.15-7.25-1.12-10-3.55zm4.57-12.42h10.94c-.16-3.7-1.97-5.56-5.46-5.56-3.5 0-5.28 1.86-5.48 5.56zm41.45-4.46l-3.63-.14a8.106 8.106 0 00-6.08 3.5v15.06c.01.19-.03.38-.1.55-.07.18-.17.34-.31.47-.13.14-.29.24-.47.31-.18.06-.37.09-.56.08h-5.18c-.19.02-.38-.01-.56-.08-.17-.07-.33-.17-.47-.31-.13-.13-.24-.29-.31-.47-.07-.17-.1-.36-.1-.55v-22.85c-.01-.2.03-.39.1-.57.07-.18.18-.34.31-.48.14-.14.3-.24.47-.31.18-.08.37-.11.56-.1h5.28c.19-.01.38.02.55.09.18.07.34.18.47.32.14.14.25.3.32.48s.1.37.09.57v1.48c1.4-1.06 2.94-1.93 4.57-2.58a17.2 17.2 0 015.83-.84c.38 0 .76.14 1.05.41.13.13.23.29.3.47.07.18.11.37.11.56v3.58c.01.19-.03.38-.1.56-.07.18-.18.34-.31.47-.14.14-.31.24-.49.31s-.37.11-.56.1l-.78-.09z" fill="#84C551"/><path d="M178.43 118.62v.13l-7.26 27.58c-.24 1.07-.37 2.17-.39 3.27.11 1.59.74 3.1 1.8 4.29.75.87 1.69 1.55 2.75 1.98 1.06.43 2.21.6 3.35.49h21.49c2.94-.04 5.78-1.06 8.06-2.9 2.46-1.79 4.2-4.4 4.89-7.36l7.26-27.41v-.12l-41.95.05z" fill="#21603F"/><path d="M331.19.11c-.52-.05-1.05-.05-1.57 0h-64.54c-22.84.82-40.01 6.44-51.5 16.86-.55.48-1.08.96-1.58 1.49a51.057 51.057 0 00-13.47 24.05l-20.05 76.08h66.23c22.73-.82 39.84-6.39 51.34-16.72.55-.48 1.07-.98 1.59-1.49a51.09 51.09 0 0013.71-24.19L331.4.11h-.21zm-59.51 65.87c-1.34 5.2-4.08 9.94-7.93 13.71-.52.5-1.07 1-1.64 1.48l-.96.75a28.843 28.843 0 01-15.44 5.83h-17.24l9.57-35c1.31-5.19 4-9.93 7.79-13.71.52-.5 1.07-1 1.64-1.48l1.1-.9A28.88 28.88 0 01264 30.84h17.27l-9.59 35.14z" fill="#84C551"/><path d="M321.53 76.6a58.59 58.59 0 01-23.7 34.73v34.61c-.05 1.36.18 2.72.67 3.98.5 1.27 1.25 2.42 2.21 3.38s2.11 1.72 3.37 2.22c1.27.5 2.62.73 3.98.68h20.55c1.35.02 2.69-.22 3.95-.72 1.25-.5 2.39-1.24 3.36-2.18.98-.91 1.76-2.01 2.28-3.24.52-1.23.78-2.56.76-3.89V10.5l-17.43 66.1z" fill="#1F1B1C"/></svg>